<?xml version="1.0" encoding="utf-8"?>
<!-- Generator: Adobe Illustrator 19.2.1, SVG Export Plug-In . SVG Version: 6.00 Build 0)  -->
<svg version="1.1" id="Calque_1" xmlns="http://www.w3.org/2000/svg" xmlns:xlink="http://www.w3.org/1999/xlink" x="0px" y="0px"
	 viewBox="0 0 154 224" style="enable-background:new 0 0 154 224;" xml:space="preserve">
<style type="text/css">
	.st0{clip-path:url(#SVGID_2_);fill:#010202;}
</style>
<g>
	<defs>
		<rect id="SVGID_1_" width="154" height="224"/>
	</defs>
	<clipPath id="SVGID_2_">
		<use xlink:href="#SVGID_1_"  style="overflow:visible;"/>
	</clipPath>
	<path class="st0" d="M56.9,163.9l10.5-10.4L78,164.1l10.9-10.8l10.7,10.7l32.5-32.5c14.4-14.4,22.2-33.7,21.9-54.5
		c-0.1-10-2.1-19.8-5.9-29c-3.9-9.6-9.6-18.1-16.9-25.4C116.6,8.2,97.4,0.2,76.9,0C56.3-0.2,37,7.7,22.6,22
		C8.1,36.5,0.1,55.5,0,75.7c-0.1,20.2,7.8,39.3,22.2,53.7L56.9,163.9z M78,153.9l-5.5-5.5l5.8-5.8l5.5,5.5L78,153.9z M49.2,103.6
		C41.8,96.1,37.7,86.3,37.8,76c0.1-10.4,4.2-20.2,11.7-27.6C56.8,41,66.6,37,77.1,37c0.1,0,0.2,0,0.3,0c10.6,0.1,20.5,4.2,28,11.7
		c7.5,7.5,11.7,17.5,11.8,28.1c0.1,10.7-3.9,20.7-11.3,28l-27.7,27.7L49.2,103.6z M83.3,137.6l27.7-27.7
		c8.8-8.8,13.5-20.6,13.4-33.2c-0.2-12.5-5.1-24.3-13.9-33.1c-8.8-8.8-20.6-13.7-33-13.8c-0.1,0-0.3,0-0.4,0
		c-12.4,0-24,4.8-32.7,13.4C35.5,52,30.6,63.6,30.6,75.9c-0.1,12.3,4.7,23.9,13.5,32.7l29,28.9l-5.8,5.8l-29.5-29.4
		C27.6,103.7,22,90.1,22.1,75.7c0.1-14.4,5.8-27.9,16.1-38.2c10.2-10.1,23.7-15.7,38.2-15.7c0.1,0,0.3,0,0.4,0
		c14.6,0.1,28.4,5.9,38.7,16.2c10.4,10.3,16.2,24.1,16.4,38.9c0.2,14.8-5.3,28.6-15.6,38.8l-27.5,27.4L83.3,137.6z M27.7,27.1
		c13-13,30.5-20.1,49.1-19.9c18.6,0.1,36.1,7.4,49.2,20.5c6.6,6.6,11.8,14.4,15.4,23c3.5,8.4,5.3,17.3,5.4,26.4
		c0.2,18.8-6.8,36.3-19.8,49.3l-27.4,27.4l-5.6-5.6l27.5-27.4c11.6-11.6,17.9-27.2,17.7-44c-0.2-16.6-6.8-32.2-18.5-43.9
		C109,21.3,93.5,14.8,76.9,14.6c-16.6-0.1-32.2,6.2-43.8,17.8c-11.7,11.6-18.1,27-18.2,43.3C14.8,92,21.1,107.4,32.8,119l29.5,29.4
		l-5.4,5.3l-29.6-29.5C14.3,111.2,7.1,94,7.2,75.7C7.3,57.5,14.6,40.2,27.7,27.1"/>
	<path class="st0" d="M77,44.8c-17.7,0-32.1,14.3-32.1,32c0,17.6,14.4,32,32.1,32c17.7,0,32.1-14.3,32.1-32
		C109.1,59.2,94.7,44.8,77,44.8 M77,101.6c-13.7,0-24.9-11.1-24.9-24.8C52.1,63.1,63.3,52,77,52c13.7,0,24.9,11.1,24.9,24.8
		C101.9,90.5,90.7,101.6,77,101.6"/>
	<path class="st0" d="M29.3,188.4c-4.3,0-7.8,1.5-10.6,5.3v-17.9H5.8v47h9.7l0.7-4.3c2.4,3.5,6.3,5.5,11.4,5.5
		c10.1,0,15.2-7.4,15.2-18.5C42.8,194,37.5,188.4,29.3,188.4 M24.4,214.6c-3.6,0-5.9-2.6-5.9-8.2c0-6,2.4-8.5,6-8.5
		c3.6,0,5.9,2.3,5.9,8.4C30.4,211.8,28.3,214.6,24.4,214.6"/>
	<path class="st0" d="M63.8,188.4c-11.2,0-17.8,6.9-17.8,18.1c0,11.8,7.3,17.5,18.3,17.5c7.1,0,12.6-2.4,15.4-7.3l-7.5-4.8
		c-1.4,2.5-3.6,3.3-6.7,3.3c-4,0-6.6-1.4-7.2-5.9h21.9c0.2-1.1,0.3-2.5,0.3-3.7C80.4,196,75.7,188.4,63.8,188.4 M58.2,203.2
		c0.4-3.9,2.5-5.5,5.5-5.5c3.1,0,4.8,1.6,5,5.5H58.2z"/>
	<path class="st0" d="M101.5,188.4c-11.2,0-17.8,6.9-17.8,18.1c0,11.8,7.3,17.5,18.3,17.5c7.1,0,12.6-2.4,15.4-7.3l-7.5-4.8
		c-1.4,2.5-3.6,3.3-6.7,3.3c-4,0-6.6-1.4-7.2-5.9h21.9c0.2-1.1,0.3-2.5,0.3-3.7C118.1,196,113.4,188.4,101.5,188.4 M95.8,203.2
		c0.4-3.9,2.5-5.5,5.5-5.5c3.1,0,4.8,1.6,5,5.5H95.8z"/>
	<path class="st0" d="M137,196.9c4.1,0,6.7,1.6,8.4,3.6l6.1-6.2c-3.2-4.2-8.4-6-14.8-6c-10.2,0-14.9,4.7-14.9,11
		c0,6.5,4.9,9.9,11.2,11.4l2.8,0.7c2.7,0.6,4,1.1,4,2.4c0,1.4-1.4,2-4.3,2c-4.3,0-8.2-1.5-10.2-4.2l-5.7,6c2.9,4.1,8.5,6.2,15.7,6.2
		c11.6,0,15.8-5.4,15.8-11.1c0-5-3.1-8.8-10.6-10.5l-3.9-0.9c-2.8-0.6-3.9-1.4-3.9-2.6C132.9,197.4,134.5,196.9,137,196.9"/>
</g>
</svg>
