<?xml version="1.0" standalone="no"?>
<!DOCTYPE svg PUBLIC "-//W3C//DTD SVG 1.1//EN" "http://www.w3.org/Graphics/SVG/1.1/DTD/svg11.dtd" >
<svg xmlns="http://www.w3.org/2000/svg" xmlns:xlink="http://www.w3.org/1999/xlink" version="1.1">
<metadata>
Created by FontForge 20161013 at Tue Sep 16 21:12:35 2014
 By ,,,
Copyright 2014 Adobe Systems Incorporated. All Rights Reserved.
</metadata>
<defs>
<font id="SourceSerifPro-Light" horiz-adv-x="352" >
  <font-face 
    font-family="Source Serif Pro Light"
    font-weight="300"
    font-stretch="normal"
    units-per-em="1000"
    panose-1="2 4 3 3 5 4 5 2 2 4"
    ascent="730"
    descent="-270"
    x-height="468"
    cap-height="674"
    bbox="-178 -336 1127 926"
    underline-thickness="50"
    underline-position="-200"
    unicode-range="U+0020-FB02"
  />
<missing-glyph horiz-adv-x="640" 
d="M340 337l181 -277v554zM141 33h358l-179 274zM119 614v-554l182 277zM499 641h-358l179 -274zM560 674v-674h-480v674h480z" />
    <glyph glyph-name="f_i" unicode="fi" horiz-adv-x="618" 
d="M497 36l77 -10v-26h-214v26l84 10q2 102 2 174v47q0 98 -3 176h-265v-223q0 -58 2 -174l100 -10v-26h-246v26l92 10q2 116 2 174v223h-94v29l94 8q4 83 21.5 135.5t58.5 91.5q59 58 150 58q55 0 94.5 -24t43.5 -58q-7 -24 -32 -24q-22 0 -44 25l-50 55q-85 -4 -132 -53
q-31 -32 -46 -80t-14 -128h214l94 13l12 -8l-3 -124v-139q0 -72 2 -174z" />
    <glyph glyph-name="f_l" unicode="fl" horiz-adv-x="602" 
d="M480 36l90 -10v-26h-235v26l92 10q2 106 2 174v478q-36 2 -89 28l-19 9q-51 -13 -81 -45q-33 -35 -48 -82t-14 -130h153v-35h-153v-223q0 -58 2 -174l100 -10v-26h-246v26l92 10q2 116 2 174v223h-94v29l94 8q4 84 22 136.5t61 93.5q60 55 150 55q69 0 95 -28l16 8l9 -6
l-3 -144v-375q0 -68 2 -174z" />
    <glyph glyph-name="f_t" unicode="ft" horiz-adv-x="632" 
d="M602 47l14 -20q-37 -37 -98 -37q-106 0 -103 119q0 9 0.5 32t0.5 40v252h-238v-223q0 -58 2 -174l100 -10v-26h-246v26l92 10q2 116 2 174v223h-94v29l94 8q4 83 19.5 135.5t51.5 91.5q54 58 132 58q63 0 77 -33q-3 -32 -43 -32q-21 0 -58 18l-26 14q-30 -13 -54 -44
q-50 -66 -49 -210h239l17 147h36l-4 -147h141v-35h-142v-322q0 -86 65 -86q35 0 72 22z" />
    <glyph glyph-name=".notdef" horiz-adv-x="640" 
d="M340 337l181 -277v554zM141 33h358l-179 274zM119 614v-554l182 277zM499 641h-358l179 -274zM560 674v-674h-480v674h480z" />
    <glyph glyph-name=".null" horiz-adv-x="0" 
 />
    <glyph glyph-name="nonmarkingreturn" horiz-adv-x="333" 
 />
    <glyph glyph-name="space" unicode=" " horiz-adv-x="242" 
 />
    <glyph glyph-name="exclam" unicode="!" horiz-adv-x="264" 
d="M132 -12q-18 0 -31 13t-13 30q0 18 12.5 31t31.5 13t31.5 -13t12.5 -31q0 -17 -12.5 -30t-31.5 -13zM132 692q34 0 34 -41q0 -1 -14 -263l-8 -199h-24l-7 199q-14 262 -14 263q0 41 33 41z" />
    <glyph glyph-name="quotedbl" unicode="&#x22;" horiz-adv-x="314" 
d="M81 744q32 0 32 -43q0 -1 -12 -151l-8 -97h-24l-8 97q-1 20 -6.5 76t-5.5 75q0 43 32 43zM233 744q32 0 32 -43q0 -1 -12 -151l-8 -97h-24l-8 97q-1 20 -6.5 76t-5.5 75q0 43 32 43z" />
    <glyph glyph-name="numbersign" unicode="#" horiz-adv-x="516" 
d="M329 246l26 174h-171l-26 -174h171zM492 420h-105l-27 -174h99v-49h-106l-30 -197h-31l30 197h-171l-30 -197h-31l30 197h-96v49h103l26 174h-96v48h103l28 183h31l-28 -183h171l28 183h32l-28 -183h98v-48z" />
    <glyph glyph-name="dollar" unicode="$" horiz-adv-x="493" 
d="M269 296v-279q57 7 90.5 42.5t33.5 92.5q0 48 -27 80.5t-97 63.5zM241 364v267q-54 -5 -86.5 -38t-32.5 -89q0 -91 119 -140zM270 353l4 -1q94 -37 130 -84t36 -109q0 -74 -47.5 -120t-123.5 -53v-101h-29v100q-78 1 -127 38t-61 102q6 25 32 25q29 0 40 -39l19 -73
q41 -20 97 -22v292l-16 6q-75 31 -112 74.5t-37 107.5q0 72 47 117t119 50v94h29v-93q65 -4 111 -41.5t57 -98.5q-6 -25 -31 -25q-30 0 -40 39l-20 75q-34 17 -77 19v-279z" />
    <glyph glyph-name="percent" unicode="%" horiz-adv-x="860" 
d="M207 -23l-22 16l473 680l22 -17zM126 457q0 -180 84 -180q36 0 59.5 41.5t23.5 138.5q0 98 -23.5 139.5t-59.5 41.5q-84 0 -84 -181zM210 663q55 0 92.5 -51t37.5 -155q0 -103 -37.5 -153.5t-92.5 -50.5q-56 0 -94 50.5t-38 153.5q0 104 38 155t94 51zM568 196
q0 -180 84 -180q36 0 59.5 41.5t23.5 138.5q0 98 -23.5 139.5t-59.5 41.5q-84 0 -84 -181zM652 402q55 0 92.5 -51t37.5 -155q0 -103 -37.5 -153.5t-92.5 -50.5q-56 0 -94 50.5t-38 153.5q0 104 38 155t94 51z" />
    <glyph glyph-name="ampersand" unicode="&#x26;" horiz-adv-x="715" 
d="M258 24q112 0 186 83q-11 13 -58 64.5t-72 79.5q-53 62 -98 114q-123 -72 -123 -181q0 -63 45.5 -111.5t119.5 -48.5zM158 558q0 -31 10.5 -58t41.5 -63q10 -13 30 -35q66 45 95 79t29 82q0 45 -27 72.5t-71 27.5q-45 0 -76.5 -29.5t-31.5 -75.5zM577 37l96 -11l-2 -26
q-28 -7 -60 -7q-65 0 -96 34q-10 12 -28 32t-25 28q-84 -102 -214 -102q-91 0 -148.5 54t-57.5 131q0 131 158 213l-19 21q-65 74 -65 148q0 62 43 99.5t107 37.5q67 0 103.5 -35.5t36.5 -90.5q0 -53 -37.5 -94.5t-113.5 -84.5q56 -63 85 -93q60 -66 135 -145q69 105 89 241
l-83 9v28h191v-28l-73 -9q-16 -82 -40 -141.5t-66 -118.5z" />
    <glyph glyph-name="quotesingle" unicode="'" horiz-adv-x="162" 
d="M81 744q32 0 32 -43q0 -1 -12 -151l-8 -97h-24l-8 97q-1 20 -6.5 76t-5.5 75q0 43 32 43z" />
    <glyph glyph-name="parenleft" unicode="(" horiz-adv-x="322" 
d="M137 278q0 -131 35.5 -235t126.5 -236l-17 -14q-194 214 -194 485t194 485l17 -14q-91 -132 -126.5 -236t-35.5 -235z" />
    <glyph glyph-name="parenright" unicode=")" horiz-adv-x="322" 
d="M185 278q0 131 -35.5 235t-126.5 236l17 14q194 -214 194 -485t-194 -485l-17 14q91 132 126.5 236t35.5 235z" />
    <glyph glyph-name="asterisk" unicode="*" horiz-adv-x="443" 
d="M222 754q26 0 26 -29q0 -1 -11 -111l-6 -56l52 23q101 46 114 46q11 0 18 -7.5t7 -18.5q0 -16 -18.5 -23.5t-70.5 -17.5q-26 -5 -41 -8l-55 -12l38 -42q11 -12 26 -28.5t23 -25t16.5 -19t12 -18t3.5 -13.5q0 -10 -7.5 -17t-17.5 -7q-5 0 -10 2t-10.5 8t-9.5 11.5
t-10.5 16.5t-11.5 19.5t-13.5 24.5t-15.5 28l-28 49l-28 -49q-6 -11 -15 -26.5t-14 -24.5t-11.5 -20t-11 -17t-10 -11.5t-10.5 -8t-10 -2.5q-10 0 -17.5 7t-7.5 17q0 6 3.5 13t12 17.5t16 19t23.5 25.5t27 29l37 42l-55 11q-101 21 -113 27q-17 8 -17 23q0 11 7.5 18.5
t18.5 7.5t114 -47l51 -22l-6 56q-11 110 -11 111q0 29 27 29z" />
    <glyph glyph-name="plus" unicode="+" horiz-adv-x="530" 
d="M494 353v-39h-208v-225h-42v225h-208v39h208v220h42v-220h208z" />
    <glyph glyph-name="comma" unicode="," horiz-adv-x="300" 
d="M160 -30l-28 22q-28 23 -28 48q0 17 11 29t29 12q24 0 42 -18q9 -27 9 -56q0 -68 -41 -128.5t-102 -91.5l-11 20q97 61 119 163z" />
    <glyph glyph-name="hyphen" unicode="-" horiz-adv-x="310" 
d="M40 228v42h230v-42h-230z" />
    <glyph glyph-name="period" unicode="." horiz-adv-x="300" 
d="M150 -12q-20 0 -33.5 14t-13.5 32q0 20 13.5 33.5t33.5 13.5t33.5 -13.5t13.5 -33.5q0 -18 -13.5 -32t-33.5 -14z" />
    <glyph glyph-name="slash" unicode="/" horiz-adv-x="305" 
d="M1 -160l268 870h35l-267 -870h-36z" />
    <glyph glyph-name="zero" unicode="0" horiz-adv-x="493" 
d="M104 324q0 -162 41 -235.5t102 -73.5q60 0 101 73.5t41 235.5t-41 236t-101 74q-61 0 -102 -74t-41 -236zM247 664q84 0 141 -84.5t57 -255.5t-57 -255t-141 -84t-141 84t-57 255t57 255.5t141 84.5z" />
    <glyph glyph-name="one" unicode="1" horiz-adv-x="493" 
d="M286 38l148 -12v-27h-355v27l154 13q2 116 2 173v397l-147 -26v28l186 51l14 -11l-4 -145v-294q0 -56 2 -174z" />
    <glyph glyph-name="two" unicode="2" horiz-adv-x="493" 
d="M95 49h353v-49h-399v39l192 217q64 71 92.5 125.5t28.5 108.5q0 63 -37 103.5t-101 40.5q-38 0 -79 -16l-28 -66q-13 -40 -38 -40q-21 0 -32 21q18 62 69.5 96.5t119.5 34.5q86 0 133 -46t47 -125q0 -57 -32 -113t-107 -133z" />
    <glyph glyph-name="three" unicode="3" horiz-adv-x="493" 
d="M151 620l-21 -62q-7 -21 -15 -29t-23 -8q-24 0 -31 24q16 60 64.5 89.5t113.5 29.5q81 0 129.5 -44t48.5 -115q0 -57 -37.5 -101t-103.5 -62q79 -11 120.5 -55.5t41.5 -114.5q0 -83 -59 -135t-151 -52q-71 0 -118.5 30.5t-65.5 90.5q8 25 33 25q23 0 36 -39l22 -61
q40 -16 84 -16q79 0 122 42.5t43 114.5q0 74 -44 113.5t-132 39.5h-45v33h40q72 0 116.5 39t44.5 107q0 61 -35 95.5t-98 34.5q-42 0 -80 -14z" />
    <glyph glyph-name="four" unicode="4" horiz-adv-x="493" 
d="M70 250h245v341zM478 250v-40h-114v-210h-49v210h-285v32l301 418h33v-410h114z" />
    <glyph glyph-name="five" unicode="5" horiz-adv-x="493" 
d="M138 600l-14 -215q51 20 110 20q95 0 151.5 -54.5t56.5 -149.5q0 -94 -61 -155t-164 -61q-70 0 -116.5 31t-62.5 91q8 23 32 23q14 0 21.5 -8t14.5 -29l23 -63q37 -15 83 -15q84 0 130.5 48.5t46.5 130.5q0 86 -44.5 130.5t-121.5 44.5q-67 0 -113 -23l-22 3l21 300h317
v-49h-288z" />
    <glyph glyph-name="six" unicode="6" horiz-adv-x="493" 
d="M253 15q60 0 99.5 48t39.5 128q0 82 -36 124.5t-100 42.5q-86 0 -153 -75q-1 -8 -1 -23q0 -113 39.5 -179t111.5 -66zM427 664l5 -22q-145 -30 -228.5 -115.5t-98.5 -211.5q69 80 162 80q82 0 130.5 -53t48.5 -144q0 -94 -56 -153.5t-139 -59.5q-95 0 -149 73t-54 196
q0 155 102.5 271t276.5 139z" />
    <glyph glyph-name="seven" unicode="7" horiz-adv-x="493" 
d="M48 649h392v-32l-246 -617h-49l-6 6l260 594h-351v49z" />
    <glyph glyph-name="eight" unicode="8" horiz-adv-x="493" 
d="M246 15q68 0 108 36t40 94q0 49 -37 88t-127 80q-70 -37 -101 -75t-31 -91q0 -59 40 -95.5t108 -36.5zM119 513q0 -48 31 -87.5t106 -73.5q60 35 86 71t26 86q0 53 -32 89t-90 36q-52 0 -89.5 -33.5t-37.5 -87.5zM281 341q87 -40 125 -85t38 -108q0 -73 -55.5 -118
t-142.5 -45q-92 0 -144.5 42.5t-52.5 116.5q0 57 38.5 100t116.5 81q-132 66 -132 179q0 72 50.5 116t124.5 44q75 0 121 -42.5t46 -111.5q0 -104 -133 -169z" />
    <glyph glyph-name="nine" unicode="9" horiz-adv-x="493" 
d="M248 299q80 0 135 63q1 11 1 32q0 113 -41.5 176.5t-106.5 63.5q-60 0 -100.5 -45t-40.5 -122q0 -78 43 -123t110 -45zM86 -17l-8 25q264 94 301 319q-56 -64 -145 -64q-84 0 -139 55.5t-54 146.5q1 88 57 143.5t141 55.5q89 0 144 -71t55 -191q0 -146 -89 -258
t-263 -161z" />
    <glyph glyph-name="colon" unicode=":" horiz-adv-x="300" 
d="M150 389q-20 0 -33.5 14t-13.5 32q0 20 13.5 33.5t33.5 13.5t33.5 -13.5t13.5 -33.5q0 -18 -13.5 -32t-33.5 -14zM150 -12q-20 0 -33.5 14t-13.5 32q0 20 13.5 33.5t33.5 13.5t33.5 -13.5t13.5 -33.5q0 -18 -13.5 -32t-33.5 -14z" />
    <glyph glyph-name="semicolon" unicode=";" horiz-adv-x="300" 
d="M150 389q-20 0 -33.5 14t-13.5 32q0 20 13.5 33.5t33.5 13.5t33.5 -13.5t13.5 -33.5q0 -18 -13.5 -32t-33.5 -14zM160 -30l-28 22q-28 23 -28 48q0 17 11 29t29 12q24 0 42 -18q9 -27 9 -56q0 -68 -41 -128.5t-102 -91.5l-11 20q97 61 119 163z" />
    <glyph glyph-name="less" unicode="&#x3c;" horiz-adv-x="530" 
d="M467 545l-359 -211l359 -212l-19 -33l-386 229v31l386 230z" />
    <glyph glyph-name="equal" unicode="=" horiz-adv-x="530" 
d="M494 214h-458v39h458v-39zM494 414h-458v39h458v-39z" />
    <glyph glyph-name="greater" unicode="&#x3e;" horiz-adv-x="530" 
d="M82 578l386 -229v-31l-386 -230l-19 34l359 211l-359 212z" />
    <glyph glyph-name="question" unicode="?" horiz-adv-x="384" 
d="M140 75q19 0 31.5 -13t12.5 -31q0 -17 -12.5 -30t-31.5 -13q-18 0 -31 13t-13 30q0 18 12.5 31t31.5 13zM251 595l-128 20q-50 7 -50 40q0 29 35 38q59 -12 106 -35.5t81.5 -68.5t34.5 -103q0 -94 -91 -139l-34 -17q-35 -18 -45 -30t-9 -38l3 -73h-25l-8 38
q-12 53 -12 67q0 22 16 38t58 37l39 18q40 23 56.5 47.5t16.5 61.5q0 55 -44 99z" />
    <glyph glyph-name="at" unicode="@" horiz-adv-x="822" 
d="M478 156l47 241q-26 39 -71 39q-63 0 -110 -65q-62 -82 -62 -177q0 -51 20.5 -78.5t56.5 -27.5q50 0 119 68zM579 452l-58 -289q-17 -83 57 -83q65 0 119 70.5t54 190.5q0 129 -79 204.5t-206 75.5q-109 0 -199.5 -57.5t-140.5 -153t-50 -206.5q0 -155 91.5 -243
t229.5 -88q95 0 168 35l9 -20q-82 -43 -188 -43q-156 0 -253.5 93t-97.5 259q0 187 125.5 320t311.5 133q143 0 229 -87.5t86 -227.5q0 -131 -69.5 -208t-153.5 -77q-43 0 -66 20.5t-24 56.5q-66 -77 -131 -77q-47 0 -76 32.5t-29 96.5q0 108 77 205q65 84 147 84
q43 0 75 -32l27 26z" />
    <glyph glyph-name="A" unicode="A" horiz-adv-x="657" 
d="M202 266h222l-112 334zM559 36l93 -8v-28h-257v28l106 9l-67 199h-242l-66 -199l94 -9v-28h-211v28l82 9l214 637h37z" />
    <glyph glyph-name="B" unicode="B" horiz-adv-x="608" 
d="M212 32h94q95 0 146 39t51 111q0 153 -218 153h-75q0 -212 2 -303zM293 642h-81q-2 -89 -2 -277h66q96 0 146 38.5t50 109.5q0 64 -42.5 96.5t-136.5 32.5zM53 674h259q104 0 159 -43.5t55 -116.5q0 -59 -40 -102.5t-119 -58.5q98 -11 145.5 -57t47.5 -115
q0 -79 -62 -130t-183 -51h-262v28l102 8q1 91 1 274v54q0 183 -1 274l-102 8v28z" />
    <glyph glyph-name="C" unicode="C" horiz-adv-x="639" 
d="M551 177h39l-4 -141q-89 -51 -199 -51q-148 0 -239 98t-91 254q0 154 93 253t237 99q104 0 191 -51l4 -141h-39l-18 124q-61 35 -131 35q-123 0 -199 -86.5t-76 -232.5q0 -147 75 -233t194 -86q81 0 145 36z" />
    <glyph glyph-name="D" unicode="D" horiz-adv-x="709" 
d="M212 32h94q137 0 210.5 80t73.5 225q0 148 -71.5 226.5t-203.5 78.5h-103q-2 -91 -2 -285v-24q0 -209 2 -301zM53 674h272q151 0 239 -88t88 -249q0 -156 -92 -246.5t-248 -90.5h-259v28l102 8q1 91 1 297v24q0 190 -1 281l-102 8v28z" />
    <glyph glyph-name="E" unicode="E" horiz-adv-x="602" 
d="M524 163h37l-8 -163h-500v28l102 8q1 91 1 274v54q0 183 -1 274l-102 8v28h483l9 -163h-37l-19 130h-277q-2 -89 -2 -283h179l11 96h30v-224h-30l-11 96h-179q0 -203 2 -293h293z" />
    <glyph glyph-name="F" unicode="F" horiz-adv-x="579" 
d="M490 641h-278q-2 -89 -2 -283h182l11 96h30v-228h-30l-12 100h-181q0 -201 2 -290l108 -8v-28h-267v28l102 8q1 91 1 274v54q0 183 -1 274l-102 8v28h484l9 -163h-37z" />
    <glyph glyph-name="G" unicode="G" horiz-adv-x="684" 
d="M673 319v-28l-70 -6q-2 -116 -2 -192v-48q-105 -60 -213 -60q-148 0 -239.5 98.5t-91.5 253.5t93 253.5t240 98.5q114 0 201 -54l4 -142h-39l-18 125q-63 38 -143 38q-124 0 -200 -86.5t-76 -232.5q0 -147 74.5 -232.5t200.5 -85.5q80 0 153 37v37q0 63 -2 191l-114 7v28
h242z" />
    <glyph glyph-name="H" unicode="H" horiz-adv-x="793" 
d="M740 646l-102 -8q-2 -90 -2 -274v-54q0 -183 2 -274l102 -8v-28h-261v28l101 8q2 89 2 301h-372q0 -211 2 -301l102 -8v-28h-261v28l102 8q1 91 1 274v54q0 183 -1 274l-102 8v28h261v-28l-102 -8q-2 -89 -2 -270h372q0 181 -2 270l-101 8v28h261v-28z" />
    <glyph glyph-name="I" unicode="I" horiz-adv-x="366" 
d="M314 646l-102 -8q-2 -90 -2 -274v-54q0 -183 2 -274l102 -8v-28h-261v28l102 8q1 91 1 274v54q0 183 -1 274l-102 8v28h261v-28z" />
    <glyph glyph-name="J" unicode="J" horiz-adv-x="363" 
d="M326 674v-28l-101 -8q-2 -91 -2 -277v-162q0 -107 -6 -160q-9 -89 -61 -140.5t-123 -51.5q-57 0 -69 32q7 34 48 34q31 0 65 -22l15 -10q79 45 79 177q0 99 -5 580l-111 8v28h271z" />
    <glyph glyph-name="K" unicode="K" horiz-adv-x="664" 
d="M573 36l86 -8v-28h-239v28l95 8l-184 328l-122 -146q0 -112 2 -182l103 -8v-28h-261v28l102 8q1 91 1 274v54q0 183 -1 274l-102 8v28h261v-28l-103 -8q-2 -90 -2 -274v-97l308 370l-101 9v28h229v-28l-87 -9l-193 -232z" />
    <glyph glyph-name="L" unicode="L" horiz-adv-x="577" 
d="M503 173h38l-10 -173h-478v28l102 8q1 91 1 274v54q0 184 -1 274l-102 8v28h261v-28l-102 -8q-2 -91 -2 -292v-50q0 -172 2 -263h268z" />
    <glyph glyph-name="M" unicode="M" horiz-adv-x="899" 
d="M846 646l-102 -8q-1 -90 -1 -274v-54q0 -183 1 -274l102 -8v-28h-251v28l93 8q1 91 1 274v257l-245 -567h-23l-251 581v-544l94 -9v-28h-220v28l91 9v599l-97 10v28h147l257 -595l259 595h145v-28z" />
    <glyph glyph-name="N" unicode="N" horiz-adv-x="733" 
d="M694 674v-28l-89 -9v-647h-25l-412 597v-550l110 -9v-28h-233v28l88 9v594l-6 6l-86 9v28h133l397 -578v541l-109 9v28h232z" />
    <glyph glyph-name="O" unicode="O" horiz-adv-x="706" 
d="M119 337q0 -133 63 -226t172 -93t171.5 93t62.5 226t-62.5 226t-171.5 93t-172 -93t-63 -226zM354 689q125 0 210.5 -96t85.5 -256q0 -157 -86 -254.5t-210 -97.5q-125 0 -211 96.5t-86 255.5q0 157 86.5 254.5t210.5 97.5z" />
    <glyph glyph-name="P" unicode="P" horiz-adv-x="582" 
d="M301 642h-89q-2 -91 -2 -278v-57h55q223 0 223 174q0 161 -187 161zM266 277h-56q0 -159 2 -241l108 -8v-28h-267v28l102 8q1 91 1 274v54q0 183 -1 274l-102 8v28h259q114 0 173 -52t59 -143t-69.5 -146.5t-208.5 -55.5z" />
    <glyph glyph-name="Q" unicode="Q" horiz-adv-x="706" 
d="M119 337q0 -133 63 -226t172 -93t171.5 93t62.5 226t-62.5 226t-171.5 93t-172 -93t-63 -226zM600 -154l8 -22q-47 -30 -113 -30q-84 0 -128 56.5t-45 136.5q-114 12 -189.5 106.5t-75.5 243.5q0 157 86.5 254.5t210.5 97.5q125 0 210.5 -96t85.5 -256q0 -150 -78.5 -246
t-195.5 -105q1 -73 37 -114.5t97 -41.5q45 0 90 16z" />
    <glyph glyph-name="R" unicode="R" horiz-adv-x="648" 
d="M210 344h110q78 0 125.5 43.5t47.5 111.5t-43.5 105.5t-131.5 37.5h-106q-2 -90 -2 -298zM537 35l93 -7v-28q-24 -7 -67 -7q-40 0 -59 11t-27 37l-54 172q-18 59 -45 80t-91 21h-77q0 -189 2 -278l102 -8v-28h-261v28l102 8q1 91 1 274v54q0 183 -1 274l-102 8v28h267
q109 0 168.5 -45.5t59.5 -129.5q0 -69 -43 -117t-122 -61q35 -9 55.5 -33.5t37.5 -73.5z" />
    <glyph glyph-name="S" unicode="S" horiz-adv-x="513" 
d="M241 383l39 -15q105 -42 144.5 -86t39.5 -113q0 -85 -63 -134.5t-162 -49.5q-109 0 -190 54l5 131h36l15 -116q58 -36 133 -36q81 0 129 37t48 106q0 52 -31.5 84.5t-115.5 65.5l-37 15q-81 32 -121.5 78t-40.5 112q0 82 58.5 127.5t145.5 45.5q92 0 162 -50l-4 -124h-37
l-15 113q-46 28 -107 28q-69 0 -111.5 -33.5t-42.5 -96.5q0 -52 31 -85t92 -58z" />
    <glyph glyph-name="T" unicode="T" horiz-adv-x="597" 
d="M521 641h-194q-1 -91 -1 -277v-54q0 -183 1 -274l112 -8v-28h-281v28l112 8q1 91 1 274v54q0 186 -1 277h-194l-19 -136h-37l9 169h539l9 -169h-37z" />
    <glyph glyph-name="U" unicode="U" horiz-adv-x="733" 
d="M690 674v-28l-89 -9v-380q0 -136 -59.5 -204t-172.5 -68q-109 0 -169.5 64.5t-60.5 199.5v112q0 186 -2 277l-91 8v28h255v-28l-106 -9q-2 -91 -2 -276v-96q0 -236 182 -236q101 0 146.5 59t45.5 195v354l-114 9v28h237z" />
    <glyph glyph-name="V" unicode="V" horiz-adv-x="659" 
d="M649 674v-28l-88 -9l-213 -647h-28l-227 648l-87 8v28h251v-30l-106 -7l190 -565l182 565l-103 7v30h229z" />
    <glyph glyph-name="W" unicode="W" horiz-adv-x="964" 
d="M954 674v-28l-95 -9l-169 -647h-28l-179 581l-173 -581h-28l-179 648l-90 8v28h245v-28l-99 -9l147 -548l167 548l-99 9v28h245v-28l-103 -9l165 -550l142 550l-97 9v28h228z" />
    <glyph glyph-name="X" unicode="X" horiz-adv-x="641" 
d="M533 36l90 -8v-28h-250v28l100 8l-160 268l-164 -267l99 -9v-28h-229v28l89 9l188 295l-183 306l-89 8v28h250v-28l-101 -8l154 -258l156 257l-102 9v28h229v-28l-88 -9l-178 -286z" />
    <glyph glyph-name="Y" unicode="Y" horiz-adv-x="634" 
d="M528 637l-183 -369v-45q0 -115 2 -187l112 -8v-28h-282v28l112 8q2 72 2 187v43l-185 372l-82 8v28h247v-28l-104 -8l162 -335l163 334l-103 9v28h226v-28z" />
    <glyph glyph-name="Z" unicode="Z" horiz-adv-x="553" 
d="M490 169h37l-9 -169h-492v26l418 615h-345l-23 -136h-37l8 169h460v-26l-416 -615h375z" />
    <glyph glyph-name="bracketleft" unicode="[" horiz-adv-x="307" 
d="M263 686l-115 -9q-2 -91 -2 -279v-240q0 -186 2 -279l115 -9v-29h-164q3 103 3 317v240q0 212 -3 317h164v-29z" />
    <glyph glyph-name="backslash" unicode="\" horiz-adv-x="305" 
d="M36 710l268 -870h-36l-267 870h35z" />
    <glyph glyph-name="bracketright" unicode="]" horiz-adv-x="307" 
d="M205 398v-240q0 -212 3 -317h-164v29l115 9q2 91 2 279v240q0 186 -2 279l-115 9v29h164q-3 -103 -3 -317z" />
    <glyph glyph-name="asciicircum" unicode="^" horiz-adv-x="530" 
d="M445 233l-29 -21l-152 233l-146 -233l-29 21l156 253h39z" />
    <glyph glyph-name="underscore" unicode="_" horiz-adv-x="510" 
d="M40 -55v42h430v-42h-430z" />
    <glyph glyph-name="grave" unicode="`" horiz-adv-x="400" 
d="M260 574l-17 -13l-124 123q-22 21 -22 37q0 11 7.5 18t17.5 7q16 0 36 -27z" />
    <glyph glyph-name="a" unicode="a" horiz-adv-x="506" 
d="M343 109v158q-63 -15 -126 -38q-112 -42 -112 -115q0 -36 22 -61q26 -26 71 -26q34 0 65.5 18t79.5 64zM478 43l14 -17q-26 -37 -68 -37q-74 0 -80 88q-47 -50 -82.5 -71t-81.5 -21q-56 0 -91.5 32t-35.5 89q0 51 36 86.5t119 63.5q60 20 135 37v31q0 76 -26 104t-84 28
q-45 0 -83 -19l-16 -67q-9 -30 -37 -30q-27 0 -32 29q15 55 62 86t116 31q76 0 112.5 -36.5t36.5 -118.5v-221q0 -86 42 -86q20 0 38 14z" />
    <glyph glyph-name="b" unicode="b" horiz-adv-x="578" 
d="M176 374v-281q68 -71 145 -71q66 0 110 55t44 161q0 101 -42 156t-110 55q-76 0 -147 -75zM175 585v-179q68 80 161 80q85 0 138.5 -67.5t53.5 -176.5q0 -116 -55.5 -186.5t-145.5 -70.5q-89 0 -152 78l-5 -69l-129 6v26l84 9q2 104 2 175v469l-88 4v26l124 26l15 -8z
" />
    <glyph glyph-name="c" unicode="c" horiz-adv-x="487" 
d="M431 97l17 -11q-57 -101 -176 -101q-100 0 -161 69t-61 181q0 114 67.5 182.5t161.5 68.5q59 0 104.5 -30.5t62.5 -83.5q-6 -27 -31 -27q-28 0 -38 29l-22 64q-36 18 -76 18q-76 0 -126 -59.5t-50 -156.5q0 -96 50 -155t128 -59q91 0 150 71z" />
    <glyph glyph-name="d" unicode="d" horiz-adv-x="571" 
d="M402 98v284q-66 67 -135 67q-72 0 -118 -56t-46 -163q0 -100 43.5 -154t113.5 -54q79 0 142 76zM451 35l97 -9v-26l-144 -6l-1 69q-62 -78 -154 -78q-88 0 -143.5 68.5t-55.5 175.5q0 116 60 186.5t152 70.5q80 0 141 -73v266l-89 4v26l126 26l14 -8l-3 -140v-552z" />
    <glyph glyph-name="e" unicode="e" horiz-adv-x="498" 
d="M105 273h261q36 0 36 43q0 57 -37 98.5t-98 41.5q-63 0 -109 -50.5t-53 -132.5zM445 243h-341q1 -106 51.5 -161.5t127.5 -55.5q88 0 150 67l16 -14q-63 -94 -178 -94q-94 0 -157.5 65.5t-63.5 184.5q0 111 64.5 181t154.5 70q82 0 132.5 -52.5t50.5 -133.5q0 -32 -7 -57
z" />
    <glyph glyph-name="f" unicode="f" horiz-adv-x="354" 
d="M34 462l94 8q4 83 19.5 135.5t51.5 91.5q54 58 132 58q63 0 77 -33q-3 -32 -43 -32q-21 0 -58 18l-26 14q-30 -13 -54 -44q-50 -66 -49 -210h153v-35h-153v-223q0 -58 2 -174l100 -10v-26h-246v26l92 10q2 116 2 174v223h-94v29z" />
    <glyph glyph-name="g" unicode="g" horiz-adv-x="512" 
d="M237 182q55 0 89 39t34 100q0 60 -33 97.5t-88 37.5t-88.5 -38t-33.5 -99t33 -99t87 -38zM329 -10h-107q-38 0 -70 10q-58 -45 -58 -103q0 -52 41.5 -79.5t116.5 -27.5q86 0 133.5 33.5t47.5 85.5q0 81 -104 81zM482 469v-44h-107q34 -42 34 -106q0 -75 -48 -120
t-123 -45q-42 0 -77 15q-32 -29 -32 -64q0 -33 23 -49.5t82 -16.5h105q69 0 105 -30.5t36 -88.5q0 -67 -60.5 -115t-170.5 -48q-98 0 -152 36t-54 94q0 72 92 120q-53 27 -53 80q0 49 59 92q-73 44 -73 140q0 76 47.5 120.5t123.5 44.5q69 0 114 -37l114 32z" />
    <glyph glyph-name="h" unicode="h" horiz-adv-x="605" 
d="M494 36l77 -10v-26h-214v26l84 10q2 102 2 174v98q0 72 -23.5 102.5t-70.5 30.5q-86 0 -173 -92v-139q0 -72 2 -174l77 -10v-26h-214v26l84 10q2 102 2 174v469l-88 4v26l124 26l15 -8l-3 -142v-203q91 104 193 104q62 0 93 -41t31 -134v-101q0 -74 2 -174z" />
    <glyph glyph-name="i" unicode="i" horiz-adv-x="301" 
d="M149 627q-19 0 -32.5 12t-13.5 32t13.5 32.5t32.5 12.5t32.5 -12.5t13.5 -32.5t-13.5 -32t-32.5 -12zM180 36l77 -10v-26h-214v26l84 10q2 102 2 174v47q0 93 -3 162l-88 4v26l131 32l12 -8l-3 -124v-139q0 -72 2 -174z" />
    <glyph glyph-name="j" unicode="j" horiz-adv-x="277" 
d="M35 449l129 32l12 -8l-2 -124v-231q0 -152 -10 -214.5t-43 -102.5q-45 -54 -112 -54q-68 0 -75 35q9 28 44 28q27 0 60 -19l14 -8q25 15 37 33q23 36 30 90t7 170v181q0 93 -3 162l-88 4v26zM146 716q19 0 32.5 -12.5t13.5 -32.5t-13.5 -32t-32.5 -12t-32.5 12t-13.5 32
t13.5 32.5t32.5 12.5z" />
    <glyph glyph-name="k" unicode="k" horiz-adv-x="543" 
d="M464 35l76 -9v-26h-114l-167 267l-83 -83q0 -58 2 -148l81 -10v-26h-220v26l86 10q2 106 2 174v469l-88 4v26l126 26l14 -8l-3 -142v-360l205 207l-87 8v28h223v-28l-92 -7l-130 -130z" />
    <glyph glyph-name="l" unicode="l" horiz-adv-x="300" 
d="M178 36l90 -10v-26h-235v26l92 10q2 106 2 174v469l-88 4v26l126 26l14 -8l-3 -142v-375q0 -68 2 -174z" />
    <glyph glyph-name="m" unicode="m" horiz-adv-x="894" 
d="M783 36l77 -10v-26h-214v26l84 10q2 102 2 174v99q0 71 -23.5 101.5t-68.5 30.5q-82 0 -163 -85q2 -28 2 -45v-101q0 -72 2 -174l77 -10v-26h-214v26l84 10q2 102 2 174v98q0 133 -88 133q-79 0 -165 -91v-140q0 -72 2 -174l77 -10v-26h-214v26l84 10q2 102 2 174v47
q0 93 -3 162l-88 4v26l122 32l12 -8l5 -90q91 103 182 103q93 0 114 -100q84 100 184 100q125 0 125 -171v-105q0 -74 2 -174z" />
    <glyph glyph-name="n" unicode="n" horiz-adv-x="604" 
d="M493 36l77 -10v-26h-214v26l84 10q2 102 2 174v98q0 72 -23.5 102.5t-69.5 30.5q-84 0 -172 -91v-140q0 -72 2 -174l77 -10v-26h-214v26l84 10q2 102 2 174v47q0 93 -3 162l-88 4v26l122 32l12 -8l5 -90q90 103 192 103q61 0 92 -41t31 -134v-101q0 -72 2 -174z" />
    <glyph glyph-name="o" unicode="o" horiz-adv-x="542" 
d="M271 456q-77 0 -121.5 -59.5t-44.5 -162.5q0 -102 44.5 -160.5t121.5 -58.5t121.5 58.5t44.5 160.5q0 103 -44.5 162.5t-121.5 59.5zM271 486q90 0 156 -66.5t66 -185.5t-66 -184t-156 -65t-155.5 65t-65.5 184t65.5 185.5t155.5 66.5z" />
    <glyph glyph-name="p" unicode="p" horiz-adv-x="577" 
d="M178 377v-290q65 -65 141 -65q67 0 111 55t44 161q0 101 -41.5 156t-109.5 55q-74 0 -145 -72zM172 473l3 -68q68 81 161 81q85 0 138.5 -67.5t53.5 -176.5q0 -116 -56 -186.5t-146 -70.5t-150 71v-89q0 -68 2 -174l98 -10v-26h-236v26l86 10q2 106 2 174v290
q0 93 -3 162l-87 4v26l122 32z" />
    <glyph glyph-name="q" unicode="q" horiz-adv-x="550" 
d="M403 99v282q-67 68 -136 68q-72 0 -118 -56t-46 -163q0 -100 43.5 -154t113.5 -54q79 0 143 77zM455 -207l87 -10v-26h-236v26l97 10q2 116 2 174v100q-61 -82 -156 -82q-88 0 -143.5 68.5t-55.5 175.5q0 116 59.5 186.5t150.5 70.5q84 0 145 -75l33 67l18 -6l-3 -133
v-372q0 -58 2 -174z" />
    <glyph glyph-name="r" unicode="r" horiz-adv-x="411" 
d="M171 473l6 -123q24 63 69.5 99.5t98.5 36.5q20 0 37 -8.5t22 -24.5q-3 -32 -42 -32q-19 0 -53 17l-9 5q-80 -33 -123 -142v-91q0 -72 2 -174l90 -10v-26h-226v26l83 10q2 102 2 174v47q0 93 -3 162l-88 4v26l122 32z" />
    <glyph glyph-name="s" unicode="s" horiz-adv-x="429" 
d="M210 272l42 -16q69 -26 98.5 -57.5t29.5 -78.5q0 -57 -46.5 -96t-132.5 -39q-71 0 -145 34l-4 104h35l16 -88q42 -20 100 -20q62 0 95.5 26.5t33.5 68.5q0 34 -23 56.5t-79 42.5l-47 17q-119 43 -119 130q0 57 43.5 93.5t117.5 36.5q68 0 135 -40l-3 -94h-33l-11 81
q-42 23 -91 23q-54 0 -82 -24t-28 -64q0 -34 22.5 -55.5t75.5 -40.5z" />
    <glyph glyph-name="t" unicode="t" horiz-adv-x="328" 
d="M299 47l13 -20q-37 -37 -98 -37q-105 0 -103 119q0 9 0.5 32t0.5 40v252h-99v29l100 8l17 145h37l-5 -147h141v-35h-142v-322q0 -86 65 -86q35 0 73 22z" />
    <glyph glyph-name="u" unicode="u" horiz-adv-x="595" 
d="M476 35l75 -9v-26l-121 -6l-3 93q-82 -102 -182 -102q-68 0 -101 42.5t-32 142.5l3 259l-82 10v26l124 9l9 -11l-4 -139v-148q0 -79 24.5 -112.5t75.5 -33.5q87 0 164 90l2 309l-81 10v26l123 9l9 -11l-3 -139v-289z" />
    <glyph glyph-name="v" unicode="v" horiz-adv-x="497" 
d="M493 468v-28l-63 -7l-166 -443h-27l-176 444l-67 6v28h212v-28l-87 -7l141 -376l134 375l-87 8v28h186z" />
    <glyph glyph-name="w" unicode="w" horiz-adv-x="763" 
d="M756 468v-28l-61 -8l-145 -442h-24l-144 394l-139 -394h-25l-155 443l-66 7v28h207v-28l-85 -7l120 -365l130 365l-75 7v28h198v-28l-76 -8l130 -364l113 364l-86 8v28h183z" />
    <glyph glyph-name="x" unicode="x" horiz-adv-x="502" 
d="M425 35l67 -9v-26h-205v26l77 9l-120 173l-126 -173l72 -9v-26h-180v26l68 9l149 197l-145 201l-66 7v28h194v-28l-70 -7l117 -166l122 165l-74 8v28h176v-28l-62 -7l-144 -191z" />
    <glyph glyph-name="y" unicode="y" horiz-adv-x="498" 
d="M494 468v-28l-63 -8l-175 -474q-77 -211 -186 -211q-32 0 -55.5 12.5t-28.5 32.5q9 29 47 29q26 0 60 -28l11 -9q71 37 115 156l17 47l-175 446l-67 7v28h212v-28l-88 -7l141 -380l135 379l-89 8v28h189z" />
    <glyph glyph-name="z" unicode="z" horiz-adv-x="456" 
d="M390 149h33l-8 -149h-371v26l304 413h-248l-21 -109l-33 4l7 134h354v-26l-304 -413h263z" />
    <glyph glyph-name="braceleft" unicode="{" horiz-adv-x="346" 
d="M316 686l-33 -2q-66 -5 -89 -25t-23 -69q0 -44 14 -110t14 -87q0 -96 -99 -115q99 -19 99 -115q0 -21 -14 -87t-14 -110q0 -49 23 -69t89 -25l33 -2v-29h-39q-156 0 -156 123q0 44 23 114t23 90q0 84 -127 96v28q127 12 127 96q0 19 -23 89.5t-23 114.5q0 123 156 123h39
v-29z" />
    <glyph glyph-name="bar" unicode="|" horiz-adv-x="244" 
d="M103 -250v1000h38v-1000h-38z" />
    <glyph glyph-name="braceright" unicode="}" horiz-adv-x="346" 
d="M306 292v-28q-127 -12 -127 -96q0 -20 23 -90t23 -114q0 -123 -156 -123h-39v29l33 2q66 5 89 25t23 69q0 44 -14 110t-14 87q0 96 99 115q-99 19 -99 115q0 21 14 87t14 110q0 49 -23 69t-89 25l-33 2v29h39q156 0 156 -123q0 -44 -23 -114.5t-23 -89.5q0 -84 127 -96z
" />
    <glyph glyph-name="asciitilde" unicode="~" horiz-adv-x="530" 
d="M282 357q41 -40 84 -40q63 0 75 87l34 -5q-4 -56 -33 -88.5t-79 -32.5q-55 0 -111 53q-42 42 -84 42q-65 0 -77 -88l-33 6q4 56 33 88t79 32q53 0 112 -54z" />
    <glyph glyph-name="uni00A0" unicode="&#xa0;" horiz-adv-x="242" 
 />
    <glyph glyph-name="exclamdown" unicode="&#xa1;" horiz-adv-x="264" 
d="M133 494q18 0 31 -13t13 -30q0 -18 -12.5 -31t-31.5 -13t-31.5 13t-12.5 31q0 17 12.5 30t31.5 13zM133 -210q-34 0 -34 41q0 1 14 263l8 199h24l7 -199q14 -262 14 -263q0 -41 -33 -41z" />
    <glyph glyph-name="cent" unicode="&#xa2;" horiz-adv-x="493" 
d="M250 107v426q-66 -9 -107 -66.5t-41 -147.5q0 -88 40.5 -145.5t107.5 -66.5zM427 176l17 -11q-53 -94 -163 -101v-112h-31v113q-90 5 -145.5 73.5t-55.5 176.5q0 105 58 172.5t143 77.5v99h31v-98q57 -2 101 -33t60 -82q-6 -27 -32 -27q-30 0 -41 42l-18 52
q-34 15 -70 17v-430q91 3 146 71z" />
    <glyph glyph-name="sterling" unicode="&#xa3;" horiz-adv-x="493" 
d="M96 48h361v-48h-418v33q115 81 115 208q0 29 -6 54h-109v35h99q-4 13 -13.5 37t-15 39.5t-10 39.5t-4.5 47q0 76 48.5 123.5t126.5 47.5q64 0 111 -35t63 -93q-8 -20 -30 -20q-27 0 -38 39l-26 63q-33 16 -72 16q-59 0 -93 -36.5t-34 -102.5q0 -29 4.5 -56t13.5 -60.5
t12 -48.5h189v-35h-183q3 -22 3 -47q0 -126 -94 -200z" />
    <glyph glyph-name="currency" unicode="&#xa4;" horiz-adv-x="494" 
d="M248 203q53 0 90 37.5t37 92.5q0 56 -37 93t-90 37q-54 0 -91.5 -37t-37.5 -93q0 -57 37.5 -93.5t91.5 -36.5zM372 225l36 -26q57 -37 57 -59q0 -10 -7.5 -17.5t-18.5 -7.5q-21 0 -58 57l-26 37q-46 -38 -107 -38q-62 0 -109 38l-26 -37q-37 -57 -59 -57q-10 0 -18 7.5
t-8 18.5q0 21 57 58l38 26q-40 45 -40 108q0 64 40 109l-37 25q-57 37 -57 59q0 10 7.5 18t18.5 8q21 0 58 -57l27 -38q46 38 108 38q61 0 107 -38l26 37q37 57 59 57q10 0 18 -7.5t8 -18.5q0 -21 -57 -58l-37 -26q40 -45 40 -108q0 -65 -40 -108z" />
    <glyph glyph-name="yen" unicode="&#xa5;" horiz-adv-x="493" 
d="M499 622l-69 -9l-144 -314h152v-35h-167v-78h167v-35h-167q0 -18 2 -114l106 -9v-28h-265v28l106 9q2 96 2 114h-167v35h167v78h-167v35h152l-145 316l-68 7v27h215v-27l-90 -8l138 -310l138 309l-89 9v27h193v-27z" />
    <glyph glyph-name="brokenbar" unicode="&#xa6;" horiz-adv-x="244" 
d="M104 -250v450h38v-450h-38zM142 320h-38v430h38v-430z" />
    <glyph glyph-name="section" unicode="&#xa7;" horiz-adv-x="483" 
d="M329 154q57 42 57 104q0 42 -28.5 70t-101.5 60q-63 28 -100 60q-54 -39 -54 -100q0 -47 31 -79.5t97 -58.5q64 -26 99 -56zM350 587l-26 60q-31 13 -61 13q-56 0 -86 -25.5t-30 -67.5t30 -72t103 -64q83 -38 116.5 -73t33.5 -91q0 -80 -83 -130q39 -42 39 -96
q0 -61 -44.5 -101t-120.5 -40q-61 0 -104 29.5t-55 78.5q6 26 31 26q24 0 39 -31l26 -60q31 -13 61 -13q59 0 90.5 28t31.5 74q0 44 -29.5 73.5t-103.5 60.5q-77 32 -113.5 73t-36.5 99q0 80 81 126q-37 40 -37 94q0 56 41.5 94t116.5 38q62 0 105 -29.5t55 -79.5
q-6 -25 -31 -25q-23 0 -39 31z" />
    <glyph glyph-name="dieresis" unicode="&#xa8;" horiz-adv-x="400" 
d="M296 610q-17 0 -29 11t-12 28t12 28t29 11q16 0 28 -11t12 -28t-12 -28t-28 -11zM104 610q-16 0 -28 11t-12 28t12 28t28 11q17 0 29 -11t12 -28t-12 -28t-29 -11z" />
    <glyph glyph-name="copyright" unicode="&#xa9;" horiz-adv-x="758" 
d="M472 175l10 74h32l-2 -88q-52 -30 -118 -30q-87 0 -140.5 58t-53.5 150q0 91 54.5 150t139.5 59q60 0 114 -30l2 -89h-32l-11 76q-30 15 -68 15q-69 0 -111 -48.5t-42 -132.5q0 -83 41.5 -131.5t108.5 -48.5q43 0 76 16zM379 14q135 0 224.5 89.5t89.5 235.5t-89 233.5
t-225 87.5t-224.5 -87.5t-88.5 -233.5q0 -148 88.5 -236.5t224.5 -88.5zM379 689q149 0 249 -95.5t100 -254.5q0 -160 -100.5 -257t-248.5 -97t-248.5 97t-100.5 257q0 159 100.5 254.5t248.5 95.5z" />
    <glyph glyph-name="ordfeminine" unicode="&#xaa;" horiz-adv-x="339" 
d="M222 504v104q-52 -13 -77 -23q-70 -26 -70 -73q0 -25 14 -39q16 -17 44 -17q20 0 38 10t51 38zM318 466l11 -10q-19 -30 -51 -30q-50 0 -55 56q-32 -32 -54.5 -45.5t-52.5 -13.5q-38 0 -62 21.5t-24 59.5q0 33 24 57t82 43q37 13 86 23v20q0 49 -16 66.5t-53 17.5
q-25 0 -48 -9l-12 -41q-6 -27 -29 -27q-22 0 -25 22q11 37 44.5 58t82.5 21q50 0 74 -25.5t24 -82.5v-145q0 -49 25 -49q13 0 29 13z" />
    <glyph glyph-name="guillemotleft" unicode="&#xab;" horiz-adv-x="477" 
d="M255 437l-175 -184l175 -185l-17 -19l-214 188v31l214 188zM449 437l-175 -184l175 -185l-17 -19l-214 188v31l214 188z" />
    <glyph glyph-name="logicalnot" unicode="&#xac;" horiz-adv-x="530" 
d="M33 391h459v-222h-41v183h-418v39z" />
    <glyph glyph-name="uni00AD" unicode="&#xad;" horiz-adv-x="310" 
d="M40 228v42h230v-42h-230z" />
    <glyph glyph-name="registered" unicode="&#xae;" horiz-adv-x="458" 
d="M206 523h20q22 0 33.5 12t11.5 32q0 40 -47 40h-18v-84zM291 483l14 -49l25 -2v-13q-9 -2 -23 -2q-30 0 -35 19l-13 47q-7 26 -36 26h-17v-75l28 -2v-13h-87v13l28 2v171l-28 3v13h83q35 0 54 -14t19 -38q0 -19 -13 -33.5t-37 -19.5q29 -6 38 -33zM229 342q71 0 121.5 49
t50.5 125q0 75 -51 123.5t-121 48.5t-121 -48.5t-51 -123.5q0 -76 50.5 -125t121.5 -49zM229 712q81 0 140 -54.5t59 -141.5t-59 -142.5t-140 -55.5q-82 0 -140.5 55.5t-58.5 142.5t59 141.5t140 54.5z" />
    <glyph glyph-name="macron" unicode="&#xaf;" horiz-adv-x="400" 
d="M76 620v40h248v-40h-248z" />
    <glyph glyph-name="degree" unicode="&#xb0;" horiz-adv-x="313" 
d="M157 476q37 0 62 25.5t25 66.5t-25 67.5t-62 26.5t-62 -26.5t-25 -67.5t25 -66.5t62 -25.5zM157 449q-50 0 -84.5 33t-34.5 86t35 87t84 34t84 -34t35 -87t-34.5 -86t-84.5 -33z" />
    <glyph glyph-name="plusminus" unicode="&#xb1;" horiz-adv-x="530" 
d="M36 0v38h458v-38h-458zM286 353h208v-39h-208v-216h-42v216h-208v39h208v212h42v-212z" />
    <glyph glyph-name="two.sups" unicode="&#xb2;" 
d="M97 478h215v-45h-260v34l113 113q80 81 80 148q0 38 -22 60.5t-62 22.5q-19 0 -42 -6l-15 -40q-9 -35 -29 -35q-16 0 -26 17q9 43 44 66t83 23q57 0 87 -29t30 -75q0 -37 -22.5 -72.5t-79.5 -92.5z" />
    <glyph glyph-name="three.sups" unicode="&#xb3;" 
d="M121 805l-10 -36q-7 -31 -29 -31q-18 0 -24 17q9 40 41 60.5t76 20.5q52 0 84.5 -26.5t32.5 -70.5q0 -35 -22.5 -61.5t-60.5 -36.5q47 -7 72.5 -34.5t25.5 -68.5q0 -53 -39.5 -83.5t-97.5 -30.5q-104 0 -124 82q5 19 25 19t28 -33l12 -37q21 -7 48 -7q48 0 74.5 24.5
t26.5 66.5q0 87 -107 87h-29v28h26q44 0 70 21.5t26 59.5q0 36 -21.5 56t-59.5 20q-20 0 -44 -6z" />
    <glyph glyph-name="acute" unicode="&#xb4;" horiz-adv-x="400" 
d="M140 574l102 145q18 27 36 27q10 0 17.5 -7t7.5 -18q0 -16 -23 -37l-124 -123z" />
    <glyph glyph-name="uni00B5" unicode="&#xb5;" horiz-adv-x="581" 
d="M537 49l14 -32q-31 -30 -69 -30q-39 0 -56.5 24.5t-17.5 77.5q-71 -104 -163 -104q-87 0 -113 81l-3 -316q-13 -9 -30 -9q-29 0 -29 36q0 15 10 87l22 216v176l-4 210l32 15l14 -8l-4 -104v-192q0 -74 27.5 -106t80.5 -32q86 0 160 83v134l-4 209l32 16l14 -8l-4 -104
v-270q0 -65 42 -65q27 0 49 15z" />
    <glyph glyph-name="paragraph" unicode="&#xb6;" horiz-adv-x="600" 
d="M547 646l-101 -8q-2 -90 -2 -274v-184q0 -208 3 -310h-50q2 102 2 310v461h-58v-474q-132 0 -213.5 69.5t-81.5 184.5t85 184t231 69h185v-28z" />
    <glyph glyph-name="periodcentered" unicode="&#xb7;" horiz-adv-x="300" 
d="M150 276q-20 0 -33.5 14t-13.5 32q0 20 13.5 33.5t33.5 13.5t33.5 -13.5t13.5 -33.5q0 -18 -13.5 -32t-33.5 -14z" />
    <glyph glyph-name="cedilla" unicode="&#xb8;" horiz-adv-x="400" 
d="M189 1l-8 -60q42 -5 67.5 -26t25.5 -53q0 -35 -26.5 -56.5t-74.5 -21.5q-32 0 -62 10l6 21q36 -6 51 -6q63 0 63 53t-82 57l13 82h27z" />
    <glyph glyph-name="one.sups" unicode="&#xb9;" 
d="M209 465l93 -11v-21h-234v21l97 11v324l-88 -11v26l123 31l9 -7v-363z" />
    <glyph glyph-name="ordmasculine" unicode="&#xba;" horiz-adv-x="363" 
d="M182 730q-49 0 -76.5 -37t-27.5 -105t27.5 -104.5t76.5 -36.5t76.5 37t27.5 104q0 68 -28 105t-76 37zM182 755q60 0 104.5 -44.5t44.5 -122.5q0 -77 -44 -121t-105 -44t-105.5 44t-44.5 121q0 78 45 122.5t105 44.5z" />
    <glyph glyph-name="guillemotright" unicode="&#xbb;" horiz-adv-x="477" 
d="M259 268v-31l-214 -188l-17 19l175 185l-175 184l17 19zM239 456l214 -188v-31l-214 -188l-17 19l175 185l-175 184z" />
    <glyph glyph-name="onequarter" unicode="&#xbc;" horiz-adv-x="860" 
d="M309 261h-234v21l97 11v324l-88 -11v26l123 31l9 -7v-363l93 -11v-21zM680 673l22 -17l-473 -679l-22 16zM517 153h145v195zM775 153v-37h-71v-116h-42v116h-178v31l191 253h29v-247h71z" />
    <glyph glyph-name="onehalf" unicode="&#xbd;" horiz-adv-x="860" 
d="M301 261h-234v21l97 11v324l-88 -11v26l123 31l9 -7v-363l93 -11v-21zM647 673l22 -17l-473 -679l-22 16zM565 45h215v-45h-260v34l113 113q80 81 80 148q0 38 -22 60.5t-62 22.5q-19 0 -42 -6l-15 -40q-9 -35 -29 -35q-16 0 -26 17q9 43 44 66t83 23q57 0 87 -29t30 -75
q0 -37 -22.5 -72.5t-79.5 -92.5z" />
    <glyph glyph-name="threequarters" unicode="&#xbe;" horiz-adv-x="860" 
d="M163 633l-10 -36q-7 -31 -29 -31q-18 0 -24 17q9 40 41 60.5t76 20.5q52 0 84.5 -26.5t32.5 -70.5q0 -35 -22.5 -61.5t-60.5 -36.5q47 -7 72.5 -34.5t25.5 -68.5q0 -53 -39.5 -83.5t-97.5 -30.5q-104 0 -124 82q5 19 25 19t28 -33l12 -37q21 -7 48 -7q48 0 74.5 24.5
t26.5 66.5q0 87 -107 87h-29v28h26q44 0 70 21.5t26 59.5q0 36 -21.5 56t-59.5 20q-20 0 -44 -6zM689 673l22 -17l-473 -679l-22 16zM526 153h145v195zM784 153v-37h-71v-116h-42v116h-178v31l191 253h29v-247h71z" />
    <glyph glyph-name="questiondown" unicode="&#xbf;" horiz-adv-x="384" 
d="M244 408q-19 0 -31.5 13t-12.5 31q0 17 12.5 30t31.5 13q18 0 31 -13t13 -30q0 -18 -12.5 -31t-31.5 -13zM133 -112l128 -20q50 -8 50 -40q0 -29 -35 -38q-59 12 -106 35.5t-81.5 68.5t-34.5 103q0 94 91 139l34 17q35 18 45 30t9 38l-3 73h25l8 -38q12 -52 12 -67
q0 -22 -16 -38t-58 -37l-39 -18q-40 -23 -56.5 -47.5t-16.5 -61.5q0 -55 44 -99z" />
    <glyph glyph-name="Agrave" unicode="&#xc0;" horiz-adv-x="657" 
d="M371 727l-120 70q-26 16 -36 25.5t-10 20.5q0 10 7.5 16.5t18.5 6.5q16 0 49 -30l103 -93zM202 266h222l-112 334zM559 36l93 -8v-28h-257v28l106 9l-67 199h-242l-66 -199l94 -9v-28h-211v28l82 9l214 637h37z" />
    <glyph glyph-name="Aacute" unicode="&#xc1;" horiz-adv-x="657" 
d="M383 797l-120 -70l-12 16l103 93q33 30 49 30q11 0 18.5 -6.5t7.5 -16.5q0 -11 -10 -20.5t-36 -25.5zM202 266h222l-112 334zM559 36l93 -8v-28h-257v28l106 9l-67 199h-242l-66 -199l94 -9v-28h-211v28l82 9l214 637h37z" />
    <glyph glyph-name="Acircumflex" unicode="&#xc2;" horiz-adv-x="657" 
d="M323 800l-118 -78l-13 16l120 112h22l120 -112l-13 -16zM202 266h222l-112 334zM559 36l93 -8v-28h-257v28l106 9l-67 199h-242l-66 -199l94 -9v-28h-211v28l82 9l214 637h37z" />
    <glyph glyph-name="Atilde" unicode="&#xc3;" horiz-adv-x="657" 
d="M189 741h-24q-1 2 -1 15q0 45 22.5 68.5t62.5 23.5q39 0 83 -38q41 -37 67 -37q52 0 55 72h24v-14q0 -45 -22.5 -69.5t-61.5 -24.5q-41 0 -85 40q-39 36 -65 36q-54 0 -55 -72zM202 266h222l-112 334zM559 36l93 -8v-28h-257v28l106 9l-67 199h-242l-66 -199l94 -9v-28
h-211v28l82 9l214 637h37z" />
    <glyph glyph-name="Adieresis" unicode="&#xc4;" horiz-adv-x="657" 
d="M426 747q-18 0 -30 11.5t-12 29.5t12 29.5t30 11.5q17 0 29.5 -11.5t12.5 -29.5t-12.5 -29.5t-29.5 -11.5zM214 747q-17 0 -29.5 11.5t-12.5 29.5t12.5 29.5t29.5 11.5t29.5 -11.5t12.5 -29.5t-12.5 -29.5t-29.5 -11.5zM202 266h222l-112 334zM559 36l93 -8v-28h-257v28
l106 9l-67 199h-242l-66 -199l94 -9v-28h-211v28l82 9l214 637h37z" />
    <glyph glyph-name="Aring" unicode="&#xc5;" horiz-adv-x="657" 
d="M323 869q-25 0 -40.5 -18t-15.5 -43q0 -24 15.5 -42t40.5 -18t40.5 18t15.5 42q0 25 -15.5 43t-40.5 18zM323 722q-35 0 -61.5 24t-26.5 62q0 39 26.5 63.5t61.5 24.5t61.5 -24.5t26.5 -63.5q0 -38 -26.5 -62t-61.5 -24zM202 266h222l-112 334zM559 36l93 -8v-28h-257v28
l106 9l-67 199h-242l-66 -199l94 -9v-28h-211v28l82 9l214 637h37z" />
    <glyph glyph-name="AE" unicode="&#xc6;" horiz-adv-x="910" 
d="M453 637l-187 -348h198v347zM832 163h37l-9 -163h-497v28l100 8q1 77 1 222h-214l-119 -221l89 -9v-28h-211v28l83 9l323 603l-77 6v28h506l9 -163h-37l-19 130h-277q-2 -89 -2 -283h179l11 96h30v-224h-30l-11 96h-179q0 -203 2 -293h293z" />
    <glyph glyph-name="Ccedilla" unicode="&#xc7;" horiz-adv-x="639" 
d="M590 177l-4 -141q-90 -51 -196 -51l-6 -44q42 -5 67.5 -26t25.5 -53q0 -35 -26.5 -56.5t-74.5 -21.5q-32 0 -62 10l6 21q36 -6 51 -6q63 0 63 53t-82 57l11 67q-138 8 -222 105t-84 246q0 154 93 253t237 99q104 0 191 -51l4 -141h-39l-18 124q-61 35 -131 35
q-123 0 -199 -86.5t-76 -232.5q0 -147 75 -233t194 -86q81 0 145 36l18 123h39z" />
    <glyph glyph-name="Egrave" unicode="&#xc8;" horiz-adv-x="602" 
d="M358 727l-120 70q-26 16 -36 25.5t-10 20.5q0 10 7.5 16.5t18.5 6.5q16 0 49 -30l103 -93zM524 163h37l-8 -163h-500v28l102 8q1 91 1 274v54q0 183 -1 274l-102 8v28h483l9 -163h-37l-19 130h-277q-2 -89 -2 -283h179l11 96h30v-224h-30l-11 96h-179q0 -203 2 -293h293z
" />
    <glyph glyph-name="Eacute" unicode="&#xc9;" horiz-adv-x="602" 
d="M392 797l-120 -70l-12 16l103 93q33 30 49 30q11 0 18.5 -6.5t7.5 -16.5q0 -11 -10 -20.5t-36 -25.5zM524 163h37l-8 -163h-500v28l102 8q1 91 1 274v54q0 183 -1 274l-102 8v28h483l9 -163h-37l-19 130h-277q-2 -89 -2 -283h179l11 96h30v-224h-30l-11 96h-179
q0 -203 2 -293h293z" />
    <glyph glyph-name="Ecircumflex" unicode="&#xca;" horiz-adv-x="602" 
d="M339 808l-118 -78l-13 16l120 112h22l120 -112l-13 -16zM524 163h37l-8 -163h-500v28l102 8q1 91 1 274v54q0 183 -1 274l-102 8v28h483l9 -163h-37l-19 130h-277q-2 -89 -2 -283h179l11 96h30v-224h-30l-11 96h-179q0 -203 2 -293h293z" />
    <glyph glyph-name="Edieresis" unicode="&#xcb;" horiz-adv-x="602" 
d="M436 747q-18 0 -30 11.5t-12 29.5t12 29.5t30 11.5q17 0 29.5 -11.5t12.5 -29.5t-12.5 -29.5t-29.5 -11.5zM224 747q-17 0 -29.5 11.5t-12.5 29.5t12.5 29.5t29.5 11.5t29.5 -11.5t12.5 -29.5t-12.5 -29.5t-29.5 -11.5zM524 163h37l-8 -163h-500v28l102 8q1 91 1 274v54
q0 183 -1 274l-102 8v28h483l9 -163h-37l-19 130h-277q-2 -89 -2 -283h179l11 96h30v-224h-30l-11 96h-179q0 -203 2 -293h293z" />
    <glyph glyph-name="Igrave" unicode="&#xcc;" horiz-adv-x="366" 
d="M234 727l-120 70q-26 16 -36 25.5t-10 20.5q0 10 7.5 16.5t18.5 6.5q16 0 49 -30l103 -93zM314 646l-102 -8q-2 -90 -2 -274v-54q0 -183 2 -274l102 -8v-28h-261v28l102 8q1 91 1 274v54q0 183 -1 274l-102 8v28h261v-28z" />
    <glyph glyph-name="Iacute" unicode="&#xcd;" horiz-adv-x="366" 
d="M260 797l-120 -70l-12 16l103 93q33 30 49 30q11 0 18.5 -6.5t7.5 -16.5q0 -11 -10 -20.5t-36 -25.5zM314 646l-102 -8q-2 -90 -2 -274v-54q0 -183 2 -274l102 -8v-28h-261v28l102 8q1 91 1 274v54q0 183 -1 274l-102 8v28h261v-28z" />
    <glyph glyph-name="Icircumflex" unicode="&#xce;" horiz-adv-x="366" 
d="M183 808l-118 -78l-13 16l120 112h22l120 -112l-13 -16zM314 674v-28l-102 -8q-2 -90 -2 -274v-54q0 -183 2 -274l102 -8v-28h-261v28l102 8q1 91 1 274v54q0 183 -1 274l-102 8v28h261z" />
    <glyph glyph-name="Idieresis" unicode="&#xcf;" horiz-adv-x="366" 
d="M119 788q0 -18 -12.5 -29.5t-29.5 -11.5t-29.5 11.5t-12.5 29.5t12.5 29.5t29.5 11.5t29.5 -11.5t12.5 -29.5zM314 674v-28l-102 -8q-2 -90 -2 -274v-54q0 -183 2 -274l102 -8v-28h-261v28l102 8q1 91 1 274v54q0 183 -1 274l-102 8v28h261zM289 829q17 0 29.5 -11.5
t12.5 -29.5t-12.5 -29.5t-29.5 -11.5q-18 0 -30 11.5t-12 29.5t12 29.5t30 11.5z" />
    <glyph glyph-name="Eth" unicode="&#xd0;" horiz-adv-x="709" 
d="M212 32h94q137 0 210.5 80t73.5 225q0 148 -71.5 226.5t-203.5 78.5h-103q-2 -90 -2 -281h177v-32h-177q0 -206 2 -297zM53 674h272q151 0 239 -88t88 -249q0 -156 -92 -246.5t-248 -90.5h-259v28l102 8q1 90 1 293h-103v32h103q0 188 -1 277l-102 8v28z" />
    <glyph glyph-name="Ntilde" unicode="&#xd1;" horiz-adv-x="733" 
d="M232 737h-24q-1 2 -1 15q0 45 22.5 68.5t62.5 23.5q39 0 83 -38q41 -37 67 -37q52 0 55 72h24v-14q0 -45 -22.5 -69.5t-61.5 -24.5q-41 0 -85 40q-39 36 -65 36q-54 0 -55 -72zM694 674v-28l-89 -9v-647h-25l-412 597v-550l110 -9v-28h-233v28l88 9v594l-6 6l-86 9v28
h133l397 -578v541l-109 9v28h232z" />
    <glyph glyph-name="Ograve" unicode="&#xd2;" horiz-adv-x="706" 
d="M119 337q0 -133 63 -226t172 -93t171.5 93t62.5 226t-62.5 226t-171.5 93t-172 -93t-63 -226zM354 689q125 0 210.5 -96t85.5 -256q0 -157 -86 -254.5t-210 -97.5q-125 0 -211 96.5t-86 255.5q0 157 86.5 254.5t210.5 97.5zM417 743l-12 -16l-120 70q-26 16 -36 25.5
t-10 20.5q0 10 7.5 16.5t18.5 6.5q16 0 49 -30z" />
    <glyph glyph-name="Oacute" unicode="&#xd3;" horiz-adv-x="706" 
d="M119 337q0 -133 63 -226t172 -93t171.5 93t62.5 226t-62.5 226t-171.5 93t-172 -93t-63 -226zM354 689q125 0 210.5 -96t85.5 -256q0 -157 -86 -254.5t-210 -97.5q-125 0 -211 96.5t-86 255.5q0 157 86.5 254.5t210.5 97.5zM299 743l103 93q33 30 49 30q11 0 18.5 -6.5
t7.5 -16.5q0 -11 -10 -20.5t-36 -25.5l-120 -70z" />
    <glyph glyph-name="Ocircumflex" unicode="&#xd4;" horiz-adv-x="706" 
d="M354 808l-118 -78l-13 16l120 112h22l120 -112l-13 -16zM354 18q109 0 171.5 93t62.5 226t-62.5 226t-171.5 93t-172 -93t-63 -226t63 -226t172 -93zM354 689q125 0 210.5 -96t85.5 -256q0 -157 -86 -254.5t-210 -97.5q-125 0 -211 96.5t-86 255.5q0 157 86.5 254.5
t210.5 97.5z" />
    <glyph glyph-name="Otilde" unicode="&#xd5;" horiz-adv-x="706" 
d="M510 845v-14q0 -45 -22.5 -69.5t-61.5 -24.5q-41 0 -85 40q-39 36 -65 36q-54 0 -55 -72h-24q-1 2 -1 15q0 45 22.5 68.5t62.5 23.5q39 0 83 -38q41 -37 67 -37q52 0 55 72h24zM354 689q125 0 210.5 -96t85.5 -256q0 -157 -86 -254.5t-210 -97.5q-125 0 -211 96.5
t-86 255.5q0 157 86.5 254.5t210.5 97.5zM119 337q0 -133 63 -226t172 -93t171.5 93t62.5 226t-62.5 226t-171.5 93t-172 -93t-63 -226z" />
    <glyph glyph-name="Odieresis" unicode="&#xd6;" horiz-adv-x="706" 
d="M119 337q0 -133 63 -226t172 -93t171.5 93t62.5 226t-62.5 226t-171.5 93t-172 -93t-63 -226zM354 689q125 0 210.5 -96t85.5 -256q0 -157 -86 -254.5t-210 -97.5q-125 0 -211 96.5t-86 255.5q0 157 86.5 254.5t210.5 97.5zM248 747q-17 0 -29.5 11.5t-12.5 29.5
t12.5 29.5t29.5 11.5t29.5 -11.5t12.5 -29.5t-12.5 -29.5t-29.5 -11.5zM460 747q-18 0 -30 11.5t-12 29.5t12 29.5t30 11.5q17 0 29.5 -11.5t12.5 -29.5t-12.5 -29.5t-29.5 -11.5z" />
    <glyph glyph-name="multiply" unicode="&#xd7;" horiz-adv-x="530" 
d="M479 519l-186 -185l186 -186l-28 -28l-186 186l-186 -186l-27 27l186 187l-186 186l27 27l186 -186l186 186z" />
    <glyph glyph-name="Oslash" unicode="&#xd8;" horiz-adv-x="706" 
d="M538 544l-351 -441q65 -85 167 -85q109 0 171.5 93t62.5 226q0 121 -50 207zM167 135l350 440q-63 81 -163 81q-109 0 -172 -93t-63 -226q0 -118 48 -202zM639 672l-69 -86q80 -98 80 -249q0 -157 -86 -254.5t-210 -97.5q-117 0 -196 81l-67 -84l-28 23l70 88
q-76 97 -76 244q0 157 86.5 254.5t210.5 97.5q112 0 192 -77l66 82z" />
    <glyph glyph-name="Ugrave" unicode="&#xd9;" horiz-adv-x="733" 
d="M412 723l-120 70q-26 16 -36 25.5t-10 20.5q0 10 7.5 16.5t18.5 6.5q16 0 49 -30l103 -93zM690 674v-28l-89 -9v-380q0 -136 -59.5 -204t-172.5 -68q-109 0 -169.5 64.5t-60.5 199.5v112q0 186 -2 277l-91 8v28h255v-28l-106 -9q-2 -91 -2 -276v-96q0 -236 182 -236
q101 0 146.5 59t45.5 195v354l-114 9v28h237z" />
    <glyph glyph-name="Uacute" unicode="&#xda;" horiz-adv-x="733" 
d="M454 793l-120 -70l-12 16l103 93q33 30 49 30q11 0 18.5 -6.5t7.5 -16.5q0 -11 -10 -20.5t-36 -25.5zM690 674v-28l-89 -9v-380q0 -136 -59.5 -204t-172.5 -68q-109 0 -169.5 64.5t-60.5 199.5v112q0 186 -2 277l-91 8v28h255v-28l-106 -9q-2 -91 -2 -276v-96
q0 -236 182 -236q101 0 146.5 59t45.5 195v354l-114 9v28h237z" />
    <glyph glyph-name="Ucircumflex" unicode="&#xdb;" horiz-adv-x="733" 
d="M379 804l-118 -78l-13 16l120 112h22l120 -112l-13 -16zM690 674v-28l-89 -9v-380q0 -136 -59.5 -204t-172.5 -68q-109 0 -169.5 64.5t-60.5 199.5v112q0 186 -2 277l-91 8v28h255v-28l-106 -9q-2 -91 -2 -276v-96q0 -236 182 -236q101 0 146.5 59t45.5 195v354l-114 9
v28h237z" />
    <glyph glyph-name="Udieresis" unicode="&#xdc;" horiz-adv-x="733" 
d="M485 747q-18 0 -30 11.5t-12 29.5t12 29.5t30 11.5q17 0 29.5 -11.5t12.5 -29.5t-12.5 -29.5t-29.5 -11.5zM273 747q-17 0 -29.5 11.5t-12.5 29.5t12.5 29.5t29.5 11.5t29.5 -11.5t12.5 -29.5t-12.5 -29.5t-29.5 -11.5zM690 674v-28l-89 -9v-380q0 -136 -59.5 -204
t-172.5 -68q-109 0 -169.5 64.5t-60.5 199.5v112q0 186 -2 277l-91 8v28h255v-28l-106 -9q-2 -91 -2 -276v-96q0 -236 182 -236q101 0 146.5 59t45.5 195v354l-114 9v28h237z" />
    <glyph glyph-name="Yacute" unicode="&#xdd;" horiz-adv-x="634" 
d="M416 793l-120 -70l-12 16l103 93q33 30 49 30q11 0 18.5 -6.5t7.5 -16.5q0 -11 -10 -20.5t-36 -25.5zM528 637l-183 -369v-45q0 -115 2 -187l112 -8v-28h-282v28l112 8q2 72 2 187v43l-185 372l-82 8v28h247v-28l-104 -8l162 -335l163 334l-103 9v28h226v-28z" />
    <glyph glyph-name="Thorn" unicode="&#xde;" horiz-adv-x="600" 
d="M308 508h-97q-1 -47 -1 -143v-55v-111h99q196 0 196 156q0 153 -197 153zM302 167h-91q0 -22 0.5 -65.5t0.5 -65.5l107 -8v-28h-266v28l102 8q1 91 1 274v54q0 183 -1 274l-102 8v28h266v-28l-107 -8l-1 -98h102q125 0 186.5 -51t61.5 -138q0 -82 -61 -133t-198 -51z" />
    <glyph glyph-name="germandbls" unicode="&#xdf;" horiz-adv-x="577" 
d="M124 210v233q0 162 55 228q61 84 168 84q68 0 107.5 -35t39.5 -93q0 -39 -21.5 -71t-66.5 -72q-65 -59 -65 -114q0 -32 18 -53.5t62 -46.5q68 -40 94 -75t26 -79q0 -61 -39 -96t-114 -35q-64 0 -132 28l-3 108h31l18 -88q42 -18 87 -18q52 0 78 25t26 68q0 32 -21 60
t-76 58q-49 28 -74.5 58t-25.5 75q0 70 77 137q38 35 55 63t17 62q0 47 -25.5 75.5t-80.5 28.5q-84 0 -124 -65q-23 -32 -32.5 -78t-9.5 -138v-234q0 -70 4 -210h-147v26l91 10q3 87 3 174z" />
    <glyph glyph-name="agrave" unicode="&#xe0;" horiz-adv-x="506" 
d="M297 561l-124 123q-22 21 -22 37q0 11 7.5 18t17.5 7q16 0 36 -27l102 -145zM343 109v158q-63 -15 -126 -38q-112 -42 -112 -115q0 -36 22 -61q26 -26 71 -26q34 0 65.5 18t79.5 64zM478 43l14 -17q-26 -37 -68 -37q-74 0 -80 88q-47 -50 -82.5 -71t-81.5 -21
q-56 0 -91.5 32t-35.5 89q0 51 36 86.5t119 63.5q60 20 135 37v31q0 76 -26 104t-84 28q-45 0 -83 -19l-16 -67q-9 -30 -37 -30q-27 0 -32 29q15 55 62 86t116 31q76 0 112.5 -36.5t36.5 -118.5v-221q0 -86 42 -86q20 0 38 14z" />
    <glyph glyph-name="aacute" unicode="&#xe1;" horiz-adv-x="506" 
d="M343 684l-124 -123l-16 13l102 145q18 27 36 27q10 0 17.5 -7t7.5 -18q0 -16 -23 -37zM343 109v158q-63 -15 -126 -38q-112 -42 -112 -115q0 -36 22 -61q26 -26 71 -26q34 0 65.5 18t79.5 64zM478 43l14 -17q-26 -37 -68 -37q-74 0 -80 88q-47 -50 -82.5 -71t-81.5 -21
q-56 0 -91.5 32t-35.5 89q0 51 36 86.5t119 63.5q60 20 135 37v31q0 76 -26 104t-84 28q-45 0 -83 -19l-16 -67q-9 -30 -37 -30q-27 0 -32 29q15 55 62 86t116 31q76 0 112.5 -36.5t36.5 -118.5v-221q0 -86 42 -86q20 0 38 14z" />
    <glyph glyph-name="acircumflex" unicode="&#xe2;" horiz-adv-x="506" 
d="M248 677l-116 -117l-15 14l120 165h22l120 -165l-15 -14zM343 109v158q-63 -15 -126 -38q-112 -42 -112 -115q0 -36 22 -61q26 -26 71 -26q34 0 65.5 18t79.5 64zM478 43l14 -17q-26 -37 -68 -37q-74 0 -80 88q-47 -50 -82.5 -71t-81.5 -21q-56 0 -91.5 32t-35.5 89
q0 51 36 86.5t119 63.5q60 20 135 37v31q0 76 -26 104t-84 28q-45 0 -83 -19l-16 -67q-9 -30 -37 -30q-27 0 -32 29q15 55 62 86t116 31q76 0 112.5 -36.5t36.5 -118.5v-221q0 -86 42 -86q20 0 38 14z" />
    <glyph glyph-name="atilde" unicode="&#xe3;" horiz-adv-x="506" 
d="M111 593h-23q0 1 -0.5 7t-0.5 8q0 46 23.5 72t59.5 26q39 0 82 -40q42 -39 67 -39q51 0 52 75h23q0 -1 0.5 -7t0.5 -8q0 -46 -23 -72t-59 -26q-42 0 -84 41q-37 38 -65 38q-52 0 -53 -75zM343 109v158q-63 -15 -126 -38q-112 -42 -112 -115q0 -36 22 -61q26 -26 71 -26
q34 0 65.5 18t79.5 64zM478 43l14 -17q-26 -37 -68 -37q-74 0 -80 88q-47 -50 -82.5 -71t-81.5 -21q-56 0 -91.5 32t-35.5 89q0 51 36 86.5t119 63.5q60 20 135 37v31q0 76 -26 104t-84 28q-45 0 -83 -19l-16 -67q-9 -30 -37 -30q-27 0 -32 29q15 55 62 86t116 31
q76 0 112.5 -36.5t36.5 -118.5v-221q0 -86 42 -86q20 0 38 14z" />
    <glyph glyph-name="adieresis" unicode="&#xe4;" horiz-adv-x="506" 
d="M341 610q-17 0 -29 11t-12 28t12 28t29 11q16 0 28 -11t12 -28t-12 -28t-28 -11zM149 610q-16 0 -28 11t-12 28t12 28t28 11q17 0 29 -11t12 -28t-12 -28t-29 -11zM343 109v158q-63 -15 -126 -38q-112 -42 -112 -115q0 -36 22 -61q26 -26 71 -26q34 0 65.5 18t79.5 64z
M478 43l14 -17q-26 -37 -68 -37q-74 0 -80 88q-47 -50 -82.5 -71t-81.5 -21q-56 0 -91.5 32t-35.5 89q0 51 36 86.5t119 63.5q60 20 135 37v31q0 76 -26 104t-84 28q-45 0 -83 -19l-16 -67q-9 -30 -37 -30q-27 0 -32 29q15 55 62 86t116 31q76 0 112.5 -36.5t36.5 -118.5
v-221q0 -86 42 -86q20 0 38 14z" />
    <glyph glyph-name="aring" unicode="&#xe5;" horiz-adv-x="506" 
d="M251 708q-27 0 -44 -19t-17 -45t17 -45.5t44 -19.5t44 19.5t17 45.5t-17 45t-44 19zM251 551q-38 0 -65.5 25.5t-27.5 67.5q0 41 27.5 66.5t65.5 25.5t65.5 -25.5t27.5 -66.5q0 -42 -27.5 -67.5t-65.5 -25.5zM343 109v158q-63 -15 -126 -38q-112 -42 -112 -115
q0 -36 22 -61q26 -26 71 -26q34 0 65.5 18t79.5 64zM478 43l14 -17q-26 -37 -68 -37q-74 0 -80 88q-47 -50 -82.5 -71t-81.5 -21q-56 0 -91.5 32t-35.5 89q0 51 36 86.5t119 63.5q60 20 135 37v31q0 76 -26 104t-84 28q-45 0 -83 -19l-16 -67q-9 -30 -37 -30q-27 0 -32 29
q15 55 62 86t116 31q76 0 112.5 -36.5t36.5 -118.5v-221q0 -86 42 -86q20 0 38 14z" />
    <glyph glyph-name="ae" unicode="&#xe6;" horiz-adv-x="787" 
d="M201 27q32 0 65.5 18.5t93.5 73.5q-21 50 -21 118q0 10 2 30q-70 -18 -124 -38q-112 -42 -112 -115q0 -36 22 -61q24 -26 74 -26zM394 273h261q36 0 36 43q0 57 -37 98.5t-98 41.5q-63 0 -109 -50t-53 -133zM734 243h-341q1 -105 51.5 -161t127.5 -56q88 0 150 67l16 -14
q-63 -94 -178 -94q-61 0 -111 28.5t-79 82.5q-62 -65 -101.5 -88t-85.5 -23q-58 0 -94 31.5t-36 89.5q0 51 36 86.5t119 63.5q63 21 135 37v31q0 76 -26 104t-83 28q-45 0 -84 -19l-16 -67q-9 -30 -37 -30q-27 0 -32 29q15 55 62 86t116 31q122 0 143 -101q64 101 172 101
q82 0 132.5 -52.5t50.5 -134.5q0 -31 -7 -56z" />
    <glyph glyph-name="ccedilla" unicode="&#xe7;" horiz-adv-x="487" 
d="M431 97l17 -11q-56 -98 -169 -101l-6 -44q42 -5 67.5 -26t25.5 -53q0 -35 -26.5 -56.5t-74.5 -21.5q-32 0 -62 10l6 21q36 -6 51 -6q63 0 63 53t-82 57l11 67q-92 8 -147 75.5t-55 173.5q0 114 67.5 182.5t161.5 68.5q59 0 104.5 -30.5t62.5 -83.5q-6 -27 -31 -27
q-28 0 -38 29l-22 64q-36 18 -76 18q-76 0 -126 -59.5t-50 -156.5q0 -96 50 -155t128 -59q91 0 150 71z" />
    <glyph glyph-name="egrave" unicode="&#xe8;" horiz-adv-x="498" 
d="M298 561l-124 123q-22 21 -22 37q0 11 7.5 18t17.5 7q17 0 36 -27l102 -145zM105 273h261q36 0 36 43q0 57 -37 98.5t-98 41.5q-63 0 -109 -50.5t-53 -132.5zM445 243h-341q1 -106 51.5 -161.5t127.5 -55.5q88 0 150 67l16 -14q-63 -94 -178 -94q-94 0 -157.5 65.5
t-63.5 184.5q0 111 64.5 181t154.5 70q82 0 132.5 -52.5t50.5 -133.5q0 -32 -7 -57z" />
    <glyph glyph-name="eacute" unicode="&#xe9;" horiz-adv-x="498" 
d="M353 684l-124 -123l-16 13l102 145q18 27 36 27q10 0 17.5 -7t7.5 -18q0 -16 -23 -37zM105 273h261q36 0 36 43q0 57 -37 98.5t-98 41.5q-63 0 -109 -50.5t-53 -132.5zM445 243h-341q1 -106 51.5 -161.5t127.5 -55.5q88 0 150 67l16 -14q-63 -94 -178 -94
q-94 0 -157.5 65.5t-63.5 184.5q0 111 64.5 181t154.5 70q82 0 132.5 -52.5t50.5 -133.5q0 -32 -7 -57z" />
    <glyph glyph-name="ecircumflex" unicode="&#xea;" horiz-adv-x="498" 
d="M267 677l-116 -117l-15 14l120 165h22l120 -165l-15 -14zM105 273h261q36 0 36 43q0 57 -37 98.5t-98 41.5q-63 0 -109 -50.5t-53 -132.5zM445 243h-341q1 -106 51.5 -161.5t127.5 -55.5q88 0 150 67l16 -14q-63 -94 -178 -94q-94 0 -157.5 65.5t-63.5 184.5
q0 111 64.5 181t154.5 70q82 0 132.5 -52.5t50.5 -133.5q0 -32 -7 -57z" />
    <glyph glyph-name="edieresis" unicode="&#xeb;" horiz-adv-x="498" 
d="M362 610q-17 0 -29 11t-12 28t12 28t29 11q16 0 28 -11t12 -28t-12 -28t-28 -11zM170 610q-16 0 -28 11t-12 28t12 28t28 11q17 0 29 -11t12 -28t-12 -28t-29 -11zM105 273h261q36 0 36 43q0 57 -37 98.5t-98 41.5q-63 0 -109 -50.5t-53 -132.5zM445 243h-341
q1 -106 51.5 -161.5t127.5 -55.5q88 0 150 67l16 -14q-63 -94 -178 -94q-94 0 -157.5 65.5t-63.5 184.5q0 111 64.5 181t154.5 70q82 0 132.5 -52.5t50.5 -133.5q0 -32 -7 -57z" />
    <glyph glyph-name="igrave" unicode="&#xec;" horiz-adv-x="301" 
d="M170 561l-124 123q-22 21 -22 37q0 11 7.5 18t17.5 7q17 0 36 -27l102 -145zM180 36l77 -10v-26h-214v26l84 10q2 102 2 174v47q0 93 -3 162l-88 4v26l131 32l12 -8l-3 -124v-139q0 -72 2 -174z" />
    <glyph glyph-name="iacute" unicode="&#xed;" horiz-adv-x="301" 
d="M178 349v-139q0 -72 2 -174l77 -10v-26h-214v26l84 10q2 102 2 174v47q0 93 -3 162l-88 4v26l131 32l12 -8zM118 574l102 145q18 27 36 27q10 0 17.5 -7t7.5 -18q0 -16 -23 -37l-124 -123z" />
    <glyph glyph-name="icircumflex" unicode="&#xee;" horiz-adv-x="301" 
d="M178 349v-139q0 -72 2 -174l77 -10v-26h-214v26l84 10q2 102 2 174v47q0 93 -3 162l-88 4v26l131 32l12 -8zM154 739l120 -165l-15 -14l-116 117l-116 -117l-15 14l120 165h22z" />
    <glyph glyph-name="idieresis" unicode="&#xef;" horiz-adv-x="301" 
d="M84 649q0 -17 -12 -28t-29 -11q-16 0 -28 11t-12 28t12 28t28 11q17 0 29 -11t12 -28zM178 349v-139q0 -72 2 -174l77 -10v-26h-214v26l84 10q2 102 2 174v47q0 93 -3 162l-88 4v26l131 32l12 -8zM235 688q16 0 28 -11t12 -28t-12 -28t-28 -11q-17 0 -29 11t-12 28t12 28
t29 11z" />
    <glyph glyph-name="eth" unicode="&#xf0;" horiz-adv-x="543" 
d="M268 15q76 0 120 59.5t44 155.5q0 101 -46 154.5t-118 53.5q-74 0 -118.5 -55.5t-44.5 -155.5q0 -97 45.5 -154.5t117.5 -57.5zM490 710l-149 -77q144 -144 144 -365q0 -133 -59.5 -208t-161.5 -75q-92 0 -153 66t-61 178q0 110 62 174.5t154 64.5q110 0 162 -97
q-28 148 -121 244l-146 -75l-13 26l137 70q-56 51 -136 95l15 24q90 -43 155 -101l159 82z" />
    <glyph glyph-name="ntilde" unicode="&#xf1;" horiz-adv-x="604" 
d="M172 593h-23q0 1 -0.5 7t-0.5 8q0 46 23.5 72t59.5 26q39 0 82 -40q42 -39 67 -39q51 0 52 75h23q0 -1 0.5 -7t0.5 -8q0 -46 -23 -72t-59 -26q-42 0 -84 41q-37 38 -65 38q-52 0 -53 -75zM493 36l77 -10v-26h-214v26l84 10q2 102 2 174v98q0 72 -23.5 102.5t-69.5 30.5
q-84 0 -172 -91v-140q0 -72 2 -174l77 -10v-26h-214v26l84 10q2 102 2 174v47q0 93 -3 162l-88 4v26l122 32l12 -8l5 -90q90 103 192 103q61 0 92 -41t31 -134v-101q0 -72 2 -174z" />
    <glyph glyph-name="ograve" unicode="&#xf2;" horiz-adv-x="542" 
d="M271 456q-77 0 -121.5 -59.5t-44.5 -162.5q0 -102 44.5 -160.5t121.5 -58.5t121.5 58.5t44.5 160.5q0 103 -44.5 162.5t-121.5 59.5zM271 486q90 0 156 -66.5t66 -185.5t-66 -184t-156 -65t-155.5 65t-65.5 184t65.5 185.5t155.5 66.5zM327 574l-17 -13l-124 123
q-22 21 -22 37q0 11 7.5 18t17.5 7q17 0 36 -27z" />
    <glyph glyph-name="oacute" unicode="&#xf3;" horiz-adv-x="542" 
d="M271 456q-77 0 -121.5 -59.5t-44.5 -162.5q0 -102 44.5 -160.5t121.5 -58.5t121.5 58.5t44.5 160.5q0 103 -44.5 162.5t-121.5 59.5zM271 486q90 0 156 -66.5t66 -185.5t-66 -184t-156 -65t-155.5 65t-65.5 184t65.5 185.5t155.5 66.5zM219 574l102 145q18 27 36 27
q10 0 17.5 -7t7.5 -18q0 -16 -23 -37l-124 -123z" />
    <glyph glyph-name="ocircumflex" unicode="&#xf4;" horiz-adv-x="542" 
d="M271 677l-116 -117l-15 14l120 165h22l120 -165l-15 -14zM271 15q77 0 121.5 58.5t44.5 160.5q0 103 -44.5 162.5t-121.5 59.5t-121.5 -59.5t-44.5 -162.5q0 -102 44.5 -160.5t121.5 -58.5zM271 486q90 0 156 -66.5t66 -185.5t-66 -184t-156 -65t-155.5 65t-65.5 184
t65.5 185.5t155.5 66.5z" />
    <glyph glyph-name="otilde" unicode="&#xf5;" horiz-adv-x="542" 
d="M271 456q-77 0 -121.5 -59.5t-44.5 -162.5q0 -102 44.5 -160.5t121.5 -58.5t121.5 58.5t44.5 160.5q0 103 -44.5 162.5t-121.5 59.5zM271 486q90 0 156 -66.5t66 -185.5t-66 -184t-156 -65t-155.5 65t-65.5 184t65.5 185.5t155.5 66.5zM343 589q-42 0 -84 41
q-37 38 -65 38q-52 0 -53 -75h-23q0 1 -0.5 7t-0.5 8q0 46 23.5 72t59.5 26q39 0 82 -40q42 -39 67 -39q51 0 52 75h23q0 -1 0.5 -7t0.5 -8q0 -46 -23 -72t-59 -26z" />
    <glyph glyph-name="odieresis" unicode="&#xf6;" horiz-adv-x="542" 
d="M271 456q-77 0 -121.5 -59.5t-44.5 -162.5q0 -102 44.5 -160.5t121.5 -58.5t121.5 58.5t44.5 160.5q0 103 -44.5 162.5t-121.5 59.5zM271 486q90 0 156 -66.5t66 -185.5t-66 -184t-156 -65t-155.5 65t-65.5 184t65.5 185.5t155.5 66.5zM367 610q-17 0 -29 11t-12 28
t12 28t29 11q16 0 28 -11t12 -28t-12 -28t-28 -11zM175 610q-16 0 -28 11t-12 28t12 28t28 11q17 0 29 -11t12 -28t-12 -28t-29 -11z" />
    <glyph glyph-name="divide" unicode="&#xf7;" horiz-adv-x="530" 
d="M265 96q-19 0 -32.5 13t-13.5 32t13 31.5t33 12.5t33 -12.5t13 -31.5t-13.5 -32t-32.5 -13zM265 479q-19 0 -32.5 13t-13.5 32t13 31.5t33 12.5t33 -12.5t13 -31.5t-13.5 -32t-32.5 -13zM494 314h-458v39h458v-39z" />
    <glyph glyph-name="oslash" unicode="&#xf8;" horiz-adv-x="542" 
d="M403 381l-251 -311q44 -55 119 -55q77 0 121.5 58.5t44.5 160.5q0 90 -34 147zM135 96l250 310q-44 50 -114 50q-77 0 -121.5 -59.5t-44.5 -162.5q0 -83 30 -138zM481 478l-50 -62q62 -70 62 -182q0 -119 -66 -184t-156 -65q-83 0 -144 54l-49 -61l-23 18l52 64
q-57 67 -57 174q0 119 65.5 185.5t155.5 66.5q78 0 139 -50l48 60z" />
    <glyph glyph-name="ugrave" unicode="&#xf9;" horiz-adv-x="595" 
d="M318 561l-124 123q-22 21 -22 37q0 11 7.5 18t17.5 7q16 0 36 -27l102 -145zM476 35l75 -9v-26l-121 -6l-3 93q-82 -102 -182 -102q-68 0 -101 42.5t-32 142.5l3 259l-82 10v26l124 9l9 -11l-4 -139v-148q0 -79 24.5 -112.5t75.5 -33.5q87 0 164 90l2 309l-81 10v26
l123 9l9 -11l-3 -139v-289z" />
    <glyph glyph-name="uacute" unicode="&#xfa;" horiz-adv-x="595" 
d="M380 684l-124 -123l-16 13l102 145q18 27 36 27q10 0 17.5 -7t7.5 -18q0 -16 -23 -37zM476 35l75 -9v-26l-121 -6l-3 93q-82 -102 -182 -102q-68 0 -101 42.5t-32 142.5l3 259l-82 10v26l124 9l9 -11l-4 -139v-148q0 -79 24.5 -112.5t75.5 -33.5q87 0 164 90l2 309
l-81 10v26l123 9l9 -11l-3 -139v-289z" />
    <glyph glyph-name="ucircumflex" unicode="&#xfb;" horiz-adv-x="595" 
d="M290 677l-116 -117l-15 14l120 165h22l120 -165l-15 -14zM476 35l75 -9v-26l-121 -6l-3 93q-82 -102 -182 -102q-68 0 -101 42.5t-32 142.5l3 259l-82 10v26l124 9l9 -11l-4 -139v-148q0 -79 24.5 -112.5t75.5 -33.5q87 0 164 90l2 309l-81 10v26l123 9l9 -11l-3 -139
v-289z" />
    <glyph glyph-name="udieresis" unicode="&#xfc;" horiz-adv-x="595" 
d="M394 610q-17 0 -29 11t-12 28t12 28t29 11q16 0 28 -11t12 -28t-12 -28t-28 -11zM202 610q-16 0 -28 11t-12 28t12 28t28 11q17 0 29 -11t12 -28t-12 -28t-29 -11zM476 35l75 -9v-26l-121 -6l-3 93q-82 -102 -182 -102q-68 0 -101 42.5t-32 142.5l3 259l-82 10v26l124 9
l9 -11l-4 -139v-148q0 -79 24.5 -112.5t75.5 -33.5q87 0 164 90l2 309l-81 10v26l123 9l9 -11l-3 -139v-289z" />
    <glyph glyph-name="yacute" unicode="&#xfd;" horiz-adv-x="498" 
d="M361 684l-124 -123l-16 13l102 145q18 27 36 27q10 0 17.5 -7t7.5 -18q0 -16 -23 -37zM494 468v-28l-63 -8l-175 -474q-77 -211 -186 -211q-32 0 -55.5 12.5t-28.5 32.5q9 29 47 29q26 0 60 -28l11 -9q71 37 115 156l17 47l-175 446l-67 7v28h212v-28l-88 -7l141 -380
l135 379l-89 8v28h189z" />
    <glyph glyph-name="thorn" unicode="&#xfe;" horiz-adv-x="568" 
d="M168 377v-286q69 -69 143 -69q66 0 110 55t44 161q0 101 -42 156t-110 55q-74 0 -145 -72zM167 585v-177q68 78 159 78q85 0 139 -67.5t54 -176.5q0 -116 -56 -186.5t-146 -70.5q-87 0 -150 75v-93q0 -68 2 -174l98 -10v-26h-237v26l87 10q2 106 2 174v712l-88 4v26
l124 26l15 -8z" />
    <glyph glyph-name="ydieresis" unicode="&#xff;" horiz-adv-x="498" 
d="M359 610q-17 0 -29 11t-12 28t12 28t29 11q16 0 28 -11t12 -28t-12 -28t-28 -11zM167 610q-16 0 -28 11t-12 28t12 28t28 11q17 0 29 -11t12 -28t-12 -28t-29 -11zM494 468v-28l-63 -8l-175 -474q-77 -211 -186 -211q-32 0 -55.5 12.5t-28.5 32.5q9 29 47 29q26 0 60 -28
l11 -9q71 37 115 156l17 47l-175 446l-67 7v28h212v-28l-88 -7l141 -380l135 379l-89 8v28h189z" />
    <glyph glyph-name="Amacron" unicode="&#x100;" horiz-adv-x="657" 
d="M468 800v-40h-296v40h296zM202 266h222l-112 334zM559 36l93 -8v-28h-257v28l106 9l-67 199h-242l-66 -199l94 -9v-28h-211v28l82 9l214 637h37z" />
    <glyph glyph-name="amacron" unicode="&#x101;" horiz-adv-x="506" 
d="M369 660v-40h-248v40h248zM343 109v158q-63 -15 -126 -38q-112 -42 -112 -115q0 -36 22 -61q26 -26 71 -26q34 0 65.5 18t79.5 64zM478 43l14 -17q-26 -37 -68 -37q-74 0 -80 88q-47 -50 -82.5 -71t-81.5 -21q-56 0 -91.5 32t-35.5 89q0 51 36 86.5t119 63.5
q60 20 135 37v31q0 76 -26 104t-84 28q-45 0 -83 -19l-16 -67q-9 -30 -37 -30q-27 0 -32 29q15 55 62 86t116 31q76 0 112.5 -36.5t36.5 -118.5v-221q0 -86 42 -86q20 0 38 14z" />
    <glyph glyph-name="Abreve" unicode="&#x102;" horiz-adv-x="657" 
d="M438 859l21 -7q-10 -49 -44.5 -85t-93.5 -36t-93.5 36t-44.5 85l21 7q30 -88 117 -88q89 0 117 88zM202 266h222l-112 334zM559 36l93 -8v-28h-257v28l106 9l-67 199h-242l-66 -199l94 -9v-28h-211v28l82 9l214 637h37z" />
    <glyph glyph-name="abreve" unicode="&#x103;" horiz-adv-x="506" 
d="M373 732l21 -7q-9 -63 -47 -103.5t-98 -40.5t-98 40.5t-47 103.5l21 7q35 -107 124 -107t124 107zM343 109v158q-63 -15 -126 -38q-112 -42 -112 -115q0 -36 22 -61q26 -26 71 -26q34 0 65.5 18t79.5 64zM478 43l14 -17q-26 -37 -68 -37q-74 0 -80 88q-47 -50 -82.5 -71
t-81.5 -21q-56 0 -91.5 32t-35.5 89q0 51 36 86.5t119 63.5q60 20 135 37v31q0 76 -26 104t-84 28q-45 0 -83 -19l-16 -67q-9 -30 -37 -30q-27 0 -32 29q15 55 62 86t116 31q76 0 112.5 -36.5t36.5 -118.5v-221q0 -86 42 -86q20 0 38 14z" />
    <glyph glyph-name="Aogonek" unicode="&#x104;" horiz-adv-x="657" 
d="M202 266h222l-112 334zM652 0h-89q-56 -51 -56 -112q0 -35 18.5 -54t48.5 -19q31 0 60 21l12 -15q-31 -43 -92 -43q-39 0 -64 23.5t-25 65.5q0 37 21.5 72.5t52.5 60.5h-144v28l106 9l-67 199h-242l-66 -199l94 -9v-28h-211v28l82 9l214 637h37l217 -638l93 -8v-28z" />
    <glyph glyph-name="aogonek" unicode="&#x105;" horiz-adv-x="506" 
d="M343 109v158q-63 -15 -126 -38q-112 -42 -112 -115q0 -36 22 -61q26 -26 71 -26q34 0 65.5 18t79.5 64zM500 -159l11 -15q-31 -43 -91 -43q-38 0 -62.5 23.5t-24.5 65.5q0 65 87 118q-71 3 -76 87q-47 -50 -82.5 -71t-81.5 -21q-56 0 -91.5 32t-35.5 89q0 51 36 86.5
t119 63.5q60 20 135 37v31q0 76 -26 104t-84 28q-45 0 -83 -19l-16 -67q-9 -30 -37 -30q-27 0 -32 29q15 55 62 86t116 31q76 0 112.5 -36.5t36.5 -118.5v-221q0 -86 42 -86q22 0 39 14l6 4l13 -16q-8 -9 -39 -32q-79 -52 -79 -102q0 -34 18.5 -53t47.5 -19q33 0 60 21z" />
    <glyph glyph-name="Cacute" unicode="&#x106;" horiz-adv-x="639" 
d="M449 797l-120 -70l-12 16l103 93q33 30 49 30q11 0 18.5 -6.5t7.5 -16.5q0 -11 -10 -20.5t-36 -25.5zM551 177h39l-4 -141q-89 -51 -199 -51q-148 0 -239 98t-91 254q0 154 93 253t237 99q104 0 191 -51l4 -141h-39l-18 124q-61 35 -131 35q-123 0 -199 -86.5t-76 -232.5
q0 -147 75 -233t194 -86q81 0 145 36z" />
    <glyph glyph-name="cacute" unicode="&#x107;" horiz-adv-x="487" 
d="M362 684l-124 -123l-16 13l102 145q18 27 36 27q10 0 17.5 -7t7.5 -18q0 -16 -23 -37zM431 97l17 -11q-57 -101 -176 -101q-100 0 -161 69t-61 181q0 114 67.5 182.5t161.5 68.5q59 0 104.5 -30.5t62.5 -83.5q-6 -27 -31 -27q-28 0 -38 29l-22 64q-36 18 -76 18
q-76 0 -126 -59.5t-50 -156.5q0 -96 50 -155t128 -59q91 0 150 71z" />
    <glyph glyph-name="Ccaron" unicode="&#x10c;" horiz-adv-x="639" 
d="M397 736h-42l-107 115l16 15l112 -89l112 89l16 -15zM551 177h39l-4 -141q-89 -51 -199 -51q-148 0 -239 98t-91 254q0 154 93 253t237 99q104 0 191 -51l4 -141h-39l-18 124q-61 35 -131 35q-123 0 -199 -86.5t-76 -232.5q0 -147 75 -233t194 -86q81 0 145 36z" />
    <glyph glyph-name="ccaron" unicode="&#x10d;" horiz-adv-x="487" 
d="M299 570h-42l-111 141l16 14l116 -108l116 108l16 -14zM431 97l17 -11q-57 -101 -176 -101q-100 0 -161 69t-61 181q0 114 67.5 182.5t161.5 68.5q59 0 104.5 -30.5t62.5 -83.5q-6 -27 -31 -27q-28 0 -38 29l-22 64q-36 18 -76 18q-76 0 -126 -59.5t-50 -156.5
q0 -96 50 -155t128 -59q91 0 150 71z" />
    <glyph glyph-name="Dcaron" unicode="&#x10e;" horiz-adv-x="709" 
d="M356 736h-42l-107 115l16 15l112 -89l112 89l16 -15zM212 32h94q137 0 210.5 80t73.5 225q0 148 -71.5 226.5t-203.5 78.5h-103q-2 -91 -2 -285v-24q0 -209 2 -301zM53 674h272q151 0 239 -88t88 -249q0 -156 -92 -246.5t-248 -90.5h-259v28l102 8q1 91 1 297v24
q0 190 -1 281l-102 8v28z" />
    <glyph glyph-name="dcaron" unicode="&#x10f;" horiz-adv-x="581" 
d="M402 98v284q-66 67 -135 67q-72 0 -118 -56t-46 -163q0 -100 43.5 -154t113.5 -54q79 0 142 76zM451 587v-552l97 -9v-26l-144 -6l-1 69q-62 -78 -154 -78q-88 0 -143.5 68.5t-55.5 175.5q0 116 60 186.5t152 70.5q80 0 141 -73v266l-89 4v26l126 26l14 -8zM525 519
l3 215q12 8 29 8q23 0 23 -27q0 -20 -21 -131l-12 -65h-22z" />
    <glyph glyph-name="Dcroat" unicode="&#x110;" horiz-adv-x="709" 
d="M212 32h94q137 0 210.5 80t73.5 225q0 148 -71.5 226.5t-203.5 78.5h-103q-2 -90 -2 -281h177v-32h-177q0 -206 2 -297zM53 674h272q151 0 239 -88t88 -249q0 -156 -92 -246.5t-248 -90.5h-259v28l102 8q1 90 1 293h-103v32h103q0 188 -1 277l-102 8v28z" />
    <glyph glyph-name="dcroat" unicode="&#x111;" horiz-adv-x="571" 
d="M402 98v269q-67 68 -134 68q-72 0 -118.5 -53.5t-46.5 -155.5q0 -98 43.5 -151t113.5 -53q79 0 142 76zM451 35l97 -9v-26l-144 -6l-1 69q-61 -78 -154 -78q-88 0 -143.5 67.5t-55.5 172.5q0 111 59.5 179t150.5 68q82 0 143 -73v167h-194v33h194v80l-89 4v26l126 26
l14 -8l-3 -128h89v-33h-89v-531z" />
    <glyph glyph-name="Emacron" unicode="&#x112;" horiz-adv-x="602" 
d="M487 800v-40h-296v40h296zM524 163h37l-8 -163h-500v28l102 8q1 91 1 274v54q0 183 -1 274l-102 8v28h483l9 -163h-37l-19 130h-277q-2 -89 -2 -283h179l11 96h30v-224h-30l-11 96h-179q0 -203 2 -293h293z" />
    <glyph glyph-name="emacron" unicode="&#x113;" horiz-adv-x="498" 
d="M389 660v-40h-248v40h248zM105 273h261q36 0 36 43q0 57 -37 98.5t-98 41.5q-63 0 -109 -50.5t-53 -132.5zM445 243h-341q1 -106 51.5 -161.5t127.5 -55.5q88 0 150 67l16 -14q-63 -94 -178 -94q-94 0 -157.5 65.5t-63.5 184.5q0 111 64.5 181t154.5 70q82 0 132.5 -52.5
t50.5 -133.5q0 -32 -7 -57z" />
    <glyph glyph-name="Edotaccent" unicode="&#x116;" horiz-adv-x="602" 
d="M323 750q-20 0 -34 13t-14 34q0 20 14 33t34 13t34 -13t14 -33q0 -21 -14 -34t-34 -13zM524 163h37l-8 -163h-500v28l102 8q1 91 1 274v54q0 183 -1 274l-102 8v28h483l9 -163h-37l-19 130h-277q-2 -89 -2 -283h179l11 96h30v-224h-30l-11 96h-179q0 -203 2 -293h293z
" />
    <glyph glyph-name="edotaccent" unicode="&#x117;" horiz-adv-x="498" 
d="M269 621q-19 0 -32.5 12.5t-13.5 31.5q0 20 13.5 32.5t32.5 12.5t32.5 -12.5t13.5 -32.5q0 -19 -13.5 -31.5t-32.5 -12.5zM105 273h261q36 0 36 43q0 57 -37 98.5t-98 41.5q-63 0 -109 -50.5t-53 -132.5zM445 243h-341q1 -106 51.5 -161.5t127.5 -55.5q88 0 150 67
l16 -14q-63 -94 -178 -94q-94 0 -157.5 65.5t-63.5 184.5q0 111 64.5 181t154.5 70q82 0 132.5 -52.5t50.5 -133.5q0 -32 -7 -57z" />
    <glyph glyph-name="Eogonek" unicode="&#x118;" horiz-adv-x="602" 
d="M558 -164l12 -15q-31 -43 -92 -43q-39 0 -64 23.5t-25 65.5q0 37 21.5 72.5t52.5 60.5h-410v28l102 8q1 91 1 274v54q0 183 -1 274l-102 8v28h483l9 -163h-37l-19 130h-277q-2 -89 -2 -283h179l11 96h30v-224h-30l-11 96h-179q0 -203 2 -293h293l19 130h37l-8 -163h-66
q-56 -51 -56 -112q0 -35 18.5 -54t48.5 -19q31 0 60 21z" />
    <glyph glyph-name="eogonek" unicode="&#x119;" horiz-adv-x="498" 
d="M105 273h261q20 0 28 10t8 33q0 57 -37 98.5t-98 41.5q-63 0 -109 -49.5t-53 -133.5zM433 93l16 -14q-23 -34 -74 -72q-32 -23 -52.5 -54.5t-20.5 -60.5q0 -34 18.5 -53t47.5 -19q33 0 60 21l11 -15q-31 -43 -91 -43q-38 0 -62.5 23.5t-24.5 65.5q0 63 67 119
q-27 -6 -57 -6q-95 0 -158 66t-63 186q0 109 64.5 179t154.5 70q82 0 132.5 -52.5t50.5 -134.5q0 -31 -7 -56h-341q1 -104 51.5 -160.5t127.5 -56.5q88 0 150 67z" />
    <glyph glyph-name="Ecaron" unicode="&#x11a;" horiz-adv-x="602" 
d="M360 736h-42l-107 115l16 15l112 -89l112 89l16 -15zM524 163h37l-8 -163h-500v28l102 8q1 91 1 274v54q0 183 -1 274l-102 8v28h483l9 -163h-37l-19 130h-277q-2 -89 -2 -283h179l11 96h30v-224h-30l-11 96h-179q0 -203 2 -293h293z" />
    <glyph glyph-name="ecaron" unicode="&#x11b;" horiz-adv-x="498" 
d="M286 570h-42l-111 141l16 14l116 -108l116 108l16 -14zM105 273h261q36 0 36 43q0 57 -37 98.5t-98 41.5q-63 0 -109 -50.5t-53 -132.5zM445 243h-341q1 -106 51.5 -161.5t127.5 -55.5q88 0 150 67l16 -14q-63 -94 -178 -94q-94 0 -157.5 65.5t-63.5 184.5
q0 111 64.5 181t154.5 70q82 0 132.5 -52.5t50.5 -133.5q0 -32 -7 -57z" />
    <glyph glyph-name="Gbreve" unicode="&#x11e;" horiz-adv-x="684" 
d="M493 863l21 -7q-10 -49 -44.5 -85t-93.5 -36t-93.5 36t-44.5 85l21 7q30 -88 117 -88q89 0 117 88zM673 319v-28l-70 -6q-2 -116 -2 -192v-48q-105 -60 -213 -60q-148 0 -239.5 98.5t-91.5 253.5t93 253.5t240 98.5q114 0 201 -54l4 -142h-39l-18 125q-63 38 -143 38
q-124 0 -200 -86.5t-76 -232.5q0 -147 74.5 -232.5t200.5 -85.5q80 0 153 37v37q0 63 -2 191l-114 7v28h242z" />
    <glyph glyph-name="gbreve" unicode="&#x11f;" horiz-adv-x="512" 
d="M368 732l21 -7q-9 -63 -47 -103.5t-98 -40.5t-98 40.5t-47 103.5l21 7q35 -107 124 -107t124 107zM237 182q55 0 89 39t34 100q0 60 -33 97.5t-88 37.5t-88.5 -38t-33.5 -99t33 -99t87 -38zM329 -10h-107q-38 0 -70 10q-58 -45 -58 -103q0 -52 41.5 -79.5t116.5 -27.5
q86 0 133.5 33.5t47.5 85.5q0 81 -104 81zM482 469v-44h-107q34 -42 34 -106q0 -75 -48 -120t-123 -45q-42 0 -77 15q-32 -29 -32 -64q0 -33 23 -49.5t82 -16.5h105q69 0 105 -30.5t36 -88.5q0 -67 -60.5 -115t-170.5 -48q-98 0 -152 36t-54 94q0 72 92 120q-53 27 -53 80
q0 49 59 92q-73 44 -73 140q0 76 47.5 120.5t123.5 44.5q69 0 114 -37l114 32z" />
    <glyph glyph-name="Gdotaccent" unicode="&#x120;" horiz-adv-x="684" 
d="M380 750q-20 0 -34 13t-14 34q0 20 14 33t34 13t34 -13t14 -33q0 -21 -14 -34t-34 -13zM673 319v-28l-70 -6q-2 -116 -2 -192v-48q-105 -60 -213 -60q-148 0 -239.5 98.5t-91.5 253.5t93 253.5t240 98.5q114 0 201 -54l4 -142h-39l-18 125q-63 38 -143 38
q-124 0 -200 -86.5t-76 -232.5q0 -147 74.5 -232.5t200.5 -85.5q80 0 153 37v37q0 63 -2 191l-114 7v28h242z" />
    <glyph glyph-name="gdotaccent" unicode="&#x121;" horiz-adv-x="512" 
d="M245 621q-19 0 -32.5 12.5t-13.5 31.5q0 20 13.5 32.5t32.5 12.5t32.5 -12.5t13.5 -32.5q0 -19 -13.5 -31.5t-32.5 -12.5zM237 182q55 0 89 39t34 100q0 60 -33 97.5t-88 37.5t-88.5 -38t-33.5 -99t33 -99t87 -38zM329 -10h-107q-38 0 -70 10q-58 -45 -58 -103
q0 -52 41.5 -79.5t116.5 -27.5q86 0 133.5 33.5t47.5 85.5q0 81 -104 81zM482 469v-44h-107q34 -42 34 -106q0 -75 -48 -120t-123 -45q-42 0 -77 15q-32 -29 -32 -64q0 -33 23 -49.5t82 -16.5h105q69 0 105 -30.5t36 -88.5q0 -67 -60.5 -115t-170.5 -48q-98 0 -152 36
t-54 94q0 72 92 120q-53 27 -53 80q0 49 59 92q-73 44 -73 140q0 76 47.5 120.5t123.5 44.5q69 0 114 -37l114 32z" />
    <glyph glyph-name="uni0122" unicode="&#x122;" horiz-adv-x="684" 
d="M319 -236l-8 21q64 26 88 75q-18 7 -30 20t-12 27q0 16 10.5 25.5t26.5 9.5q21 0 36 -14q6 -18 6 -34q0 -46 -33.5 -80.5t-83.5 -49.5zM673 319v-28l-70 -6q-2 -116 -2 -192v-48q-105 -60 -213 -60q-148 0 -239.5 98.5t-91.5 253.5t93 253.5t240 98.5q114 0 201 -54
l4 -142h-39l-18 125q-63 38 -143 38q-124 0 -200 -86.5t-76 -232.5q0 -147 74.5 -232.5t200.5 -85.5q80 0 153 37v37q0 63 -2 191l-114 7v28h242z" />
    <glyph glyph-name="uni0123" unicode="&#x123;" horiz-adv-x="512" 
d="M322 753l8 -21q-64 -26 -88 -75q18 -7 30 -20t12 -27q0 -16 -10.5 -25.5t-26.5 -9.5q-21 0 -36 14q-6 18 -6 34q0 46 33.5 80.5t83.5 49.5zM237 182q55 0 89 39t34 100q0 60 -33 97.5t-88 37.5t-88.5 -38t-33.5 -99t33 -99t87 -38zM329 -10h-107q-38 0 -70 10
q-58 -45 -58 -103q0 -52 41.5 -79.5t116.5 -27.5q86 0 133.5 33.5t47.5 85.5q0 81 -104 81zM482 469v-44h-107q34 -42 34 -106q0 -75 -48 -120t-123 -45q-42 0 -77 15q-32 -29 -32 -64q0 -33 23 -49.5t82 -16.5h105q69 0 105 -30.5t36 -88.5q0 -67 -60.5 -115t-170.5 -48
q-98 0 -152 36t-54 94q0 72 92 120q-53 27 -53 80q0 49 59 92q-73 44 -73 140q0 76 47.5 120.5t123.5 44.5q69 0 114 -37l114 32z" />
    <glyph glyph-name="Imacron" unicode="&#x12a;" horiz-adv-x="366" 
d="M314 674v-28l-102 -8q-2 -90 -2 -274v-54q0 -183 2 -274l102 -8v-28h-261v28l102 8q1 91 1 274v54q0 183 -1 274l-102 8v28h261zM35 800h296v-40h-296v40z" />
    <glyph glyph-name="imacron" unicode="&#x12b;" horiz-adv-x="301" 
d="M178 349v-139q0 -72 2 -174l77 -10v-26h-214v26l84 10q2 102 2 174v47q0 93 -3 162l-88 4v26l131 32l12 -8zM14 660h248v-40h-248v40z" />
    <glyph glyph-name="Iogonek" unicode="&#x12e;" horiz-adv-x="366" 
d="M314 646l-102 -8q-2 -90 -2 -274v-54q0 -183 2 -274l102 -8v-28h-106q-56 -51 -56 -112q0 -35 18.5 -54t48.5 -19q31 0 60 21l12 -15q-31 -43 -92 -43q-39 0 -64 23.5t-25 65.5q0 37 21.5 72.5t52.5 60.5h-131v28l102 8q1 91 1 274v54q0 183 -1 274l-102 8v28h261v-28z
" />
    <glyph glyph-name="iogonek" unicode="&#x12f;" horiz-adv-x="301" 
d="M149 627q-19 0 -32.5 12t-13.5 32t13.5 32.5t32.5 12.5t32.5 -12.5t13.5 -32.5t-13.5 -32t-32.5 -12zM257 0h-83q-56 -51 -56 -112q0 -35 18.5 -54t48.5 -19q31 0 60 21l12 -15q-31 -43 -92 -43q-39 0 -64 23.5t-25 65.5q0 37 21.5 72.5t52.5 60.5h-107v26l84 10
q2 102 2 174v47q0 93 -3 162l-88 4v26l131 32l12 -8l-3 -124v-139q0 -72 2 -174l77 -10v-26z" />
    <glyph glyph-name="Idotaccent" unicode="&#x130;" horiz-adv-x="366" 
d="M183 750q-20 0 -34 13t-14 34q0 20 14 33t34 13t34 -13t14 -33q0 -21 -14 -34t-34 -13zM314 646l-102 -8q-2 -90 -2 -274v-54q0 -183 2 -274l102 -8v-28h-261v28l102 8q1 91 1 274v54q0 183 -1 274l-102 8v28h261v-28z" />
    <glyph glyph-name="dotlessi" unicode="&#x131;" horiz-adv-x="301" 
d="M180 36l77 -10v-26h-214v26l84 10q2 102 2 174v47q0 93 -3 162l-88 4v26l131 32l12 -8l-3 -124v-139q0 -72 2 -174z" />
    <glyph glyph-name="uni0136" unicode="&#x136;" horiz-adv-x="664" 
d="M292 -236l-8 21q64 26 88 75q-18 7 -30 20t-12 27q0 16 10.5 25.5t26.5 9.5q21 0 36 -14q6 -18 6 -34q0 -46 -33.5 -80.5t-83.5 -49.5zM573 36l86 -8v-28h-239v28l95 8l-184 328l-122 -146q0 -112 2 -182l103 -8v-28h-261v28l102 8q1 91 1 274v54q0 183 -1 274l-102 8v28
h261v-28l-103 -8q-2 -90 -2 -274v-97l308 370l-101 9v28h229v-28l-87 -9l-193 -232z" />
    <glyph glyph-name="uni0137" unicode="&#x137;" horiz-adv-x="543" 
d="M231 -236l-8 21q64 26 88 75q-18 7 -30 20t-12 27q0 16 10.5 25.5t26.5 9.5q21 0 36 -14q6 -18 6 -34q0 -46 -33.5 -80.5t-83.5 -49.5zM464 35l76 -9v-26h-114l-167 267l-83 -83q0 -58 2 -148l81 -10v-26h-220v26l86 10q2 106 2 174v469l-88 4v26l126 26l14 -8l-3 -142
v-360l205 207l-87 8v28h223v-28l-92 -7l-130 -130z" />
    <glyph glyph-name="Lacute" unicode="&#x139;" horiz-adv-x="577" 
d="M300 797l-120 -70l-12 16l103 93q33 30 49 30q11 0 18.5 -6.5t7.5 -16.5q0 -11 -10 -20.5t-36 -25.5zM503 173h38l-10 -173h-478v28l102 8q1 91 1 274v54q0 184 -1 274l-102 8v28h261v-28l-102 -8q-2 -91 -2 -292v-50q0 -172 2 -263h268z" />
    <glyph glyph-name="lacute" unicode="&#x13a;" horiz-adv-x="300" 
d="M176 585v-375q0 -68 2 -174l90 -10v-26h-235v26l92 10q2 106 2 174v469l-88 4v26l126 26l14 -8zM105 784l103 93q33 30 49 30q11 0 18.5 -6.5t7.5 -16.5q0 -11 -10 -20.5t-36 -25.5l-120 -70z" />
    <glyph glyph-name="uni013B" unicode="&#x13b;" horiz-adv-x="577" 
d="M234 -236l-8 21q64 26 88 75q-18 7 -30 20t-12 27q0 16 10.5 25.5t26.5 9.5q21 0 36 -14q6 -18 6 -34q0 -46 -33.5 -80.5t-83.5 -49.5zM503 173h38l-10 -173h-478v28l102 8q1 91 1 274v54q0 184 -1 274l-102 8v28h261v-28l-102 -8q-2 -91 -2 -292v-50q0 -172 2 -263h268z
" />
    <glyph glyph-name="uni013C" unicode="&#x13c;" horiz-adv-x="300" 
d="M76 -236l-8 21q64 26 88 75q-18 7 -30 20t-12 27q0 16 10.5 25.5t26.5 9.5q21 0 36 -14q6 -18 6 -34q0 -46 -33.5 -80.5t-83.5 -49.5zM178 36l90 -10v-26h-235v26l92 10q2 106 2 174v469l-88 4v26l126 26l14 -8l-3 -142v-375q0 -68 2 -174z" />
    <glyph glyph-name="Lcaron" unicode="&#x13d;" horiz-adv-x="577" 
d="M460 584l-12 -65h-22l3 215q12 8 29 8q23 0 23 -27q0 -20 -21 -131zM503 173h38l-10 -173h-478v28l102 8q1 91 1 274v54q0 184 -1 274l-102 8v28h261v-28l-102 -8q-2 -91 -2 -292v-50q0 -172 2 -263h268z" />
    <glyph glyph-name="lcaron" unicode="&#x13e;" horiz-adv-x="310" 
d="M176 585v-375q0 -68 2 -174l90 -10v-26h-235v26l92 10q2 106 2 174v469l-88 4v26l126 26l14 -8zM254 519l3 215q12 8 29 8q23 0 23 -27q0 -20 -21 -131l-12 -65h-22z" />
    <glyph glyph-name="Ldot" unicode="&#x13f;" horiz-adv-x="577" 
d="M459 312q-20 0 -33.5 14t-13.5 32q0 20 13.5 33.5t33.5 13.5t33.5 -13.5t13.5 -33.5q0 -18 -13.5 -32t-33.5 -14zM503 173h38l-10 -173h-478v28l102 8q1 91 1 274v54q0 184 -1 274l-102 8v28h261v-28l-102 -8q-2 -91 -2 -292v-50q0 -172 2 -263h268z" />
    <glyph glyph-name="ldot" unicode="&#x140;" horiz-adv-x="326" 
d="M176 585v-375q0 -68 2 -174l90 -10v-26h-235v26l92 10q2 106 2 174v469l-88 4v26l126 26l14 -8zM313 361q19 0 32.5 -12.5t13.5 -32.5q0 -19 -13.5 -31.5t-32.5 -12.5t-32.5 12.5t-13.5 31.5q0 20 13.5 32.5t32.5 12.5z" />
    <glyph glyph-name="Lslash" unicode="&#x141;" horiz-adv-x="577" 
d="M503 174h38l-10 -173h-478v28l102 8q1 81 1 244l-103 -59v39l103 59v45q0 184 -1 274l-102 8v28h261v-28l-102 -8q-2 -90 -2 -290l186 107v-40l-186 -107v-12q0 -172 2 -263h268z" />
    <glyph glyph-name="lslash" unicode="&#x142;" horiz-adv-x="300" 
d="M178 36l90 -10v-26h-235v26l92 10q2 106 2 174v142l-96 -53v39l96 54v287l-88 4v26l126 26l14 -8l-3 -142v-169l90 51v-40l-90 -49v-168q0 -68 2 -174z" />
    <glyph glyph-name="Nacute" unicode="&#x143;" horiz-adv-x="733" 
d="M449 791l-120 -70l-12 16l103 93q33 30 49 30q11 0 18.5 -6.5t7.5 -16.5q0 -11 -10 -20.5t-36 -25.5zM694 674v-28l-89 -9v-647h-25l-412 597v-550l110 -9v-28h-233v28l88 9v594l-6 6l-86 9v28h133l397 -578v541l-109 9v28h232z" />
    <glyph glyph-name="nacute" unicode="&#x144;" horiz-adv-x="604" 
d="M410 684l-124 -123l-16 13l102 145q18 27 36 27q10 0 17.5 -7t7.5 -18q0 -16 -23 -37zM493 36l77 -10v-26h-214v26l84 10q2 102 2 174v98q0 72 -23.5 102.5t-69.5 30.5q-84 0 -172 -91v-140q0 -72 2 -174l77 -10v-26h-214v26l84 10q2 102 2 174v47q0 93 -3 162l-88 4v26
l122 32l12 -8l5 -90q90 103 192 103q61 0 92 -41t31 -134v-101q0 -72 2 -174z" />
    <glyph glyph-name="uni0145" unicode="&#x145;" horiz-adv-x="733" 
d="M319 -232l-8 21q64 26 88 75q-18 7 -30 20t-12 27q0 16 10.5 25.5t26.5 9.5q21 0 36 -14q6 -18 6 -34q0 -46 -33.5 -80.5t-83.5 -49.5zM694 674v-28l-89 -9v-647h-25l-412 597v-550l110 -9v-28h-233v28l88 9v594l-6 6l-86 9v28h133l397 -578v541l-109 9v28h232z" />
    <glyph glyph-name="uni0146" unicode="&#x146;" horiz-adv-x="604" 
d="M238 -236l-8 21q64 26 88 75q-18 7 -30 20t-12 27q0 16 10.5 25.5t26.5 9.5q21 0 36 -14q6 -18 6 -34q0 -46 -33.5 -80.5t-83.5 -49.5zM493 36l77 -10v-26h-214v26l84 10q2 102 2 174v98q0 72 -23.5 102.5t-69.5 30.5q-84 0 -172 -91v-140q0 -72 2 -174l77 -10v-26h-214
v26l84 10q2 102 2 174v47q0 93 -3 162l-88 4v26l122 32l12 -8l5 -90q90 103 192 103q61 0 92 -41t31 -134v-101q0 -72 2 -174z" />
    <glyph glyph-name="Ncaron" unicode="&#x147;" horiz-adv-x="733" 
d="M380 732h-42l-107 115l16 15l112 -89l112 89l16 -15zM694 674v-28l-89 -9v-647h-25l-412 597v-550l110 -9v-28h-233v28l88 9v594l-6 6l-86 9v28h133l397 -578v541l-109 9v28h232z" />
    <glyph glyph-name="ncaron" unicode="&#x148;" horiz-adv-x="604" 
d="M327 570h-42l-111 141l16 14l116 -108l116 108l16 -14zM493 36l77 -10v-26h-214v26l84 10q2 102 2 174v98q0 72 -23.5 102.5t-69.5 30.5q-84 0 -172 -91v-140q0 -72 2 -174l77 -10v-26h-214v26l84 10q2 102 2 174v47q0 93 -3 162l-88 4v26l122 32l12 -8l5 -90
q90 103 192 103q61 0 92 -41t31 -134v-101q0 -72 2 -174z" />
    <glyph glyph-name="Omacron" unicode="&#x14c;" horiz-adv-x="706" 
d="M119 337q0 -133 63 -226t172 -93t171.5 93t62.5 226t-62.5 226t-171.5 93t-172 -93t-63 -226zM354 689q125 0 210.5 -96t85.5 -256q0 -157 -86 -254.5t-210 -97.5q-125 0 -211 96.5t-86 255.5q0 157 86.5 254.5t210.5 97.5zM206 760v40h296v-40h-296z" />
    <glyph glyph-name="omacron" unicode="&#x14d;" horiz-adv-x="542" 
d="M271 456q-77 0 -121.5 -59.5t-44.5 -162.5q0 -102 44.5 -160.5t121.5 -58.5t121.5 58.5t44.5 160.5q0 103 -44.5 162.5t-121.5 59.5zM271 486q90 0 156 -66.5t66 -185.5t-66 -184t-156 -65t-155.5 65t-65.5 184t65.5 185.5t155.5 66.5zM147 620v40h248v-40h-248z" />
    <glyph glyph-name="Ohungarumlaut" unicode="&#x150;" horiz-adv-x="706" 
d="M119 337q0 -133 63 -226t172 -93t171.5 93t62.5 226t-62.5 226t-171.5 93t-172 -93t-63 -226zM354 689q125 0 210.5 -96t85.5 -256q0 -157 -86 -254.5t-210 -97.5q-125 0 -211 96.5t-86 255.5q0 157 86.5 254.5t210.5 97.5zM251 732l71 115q15 28 36 28q10 0 16.5 -6.5
t6.5 -16.5q0 -14 -16 -33l-96 -99zM403 732l70 115q16 28 36 28q10 0 17 -6.5t7 -16.5q0 -13 -17 -33l-96 -99z" />
    <glyph glyph-name="ohungarumlaut" unicode="&#x151;" horiz-adv-x="542" 
d="M271 456q-77 0 -121.5 -59.5t-44.5 -162.5q0 -102 44.5 -160.5t121.5 -58.5t121.5 58.5t44.5 160.5q0 103 -44.5 162.5t-121.5 59.5zM271 486q90 0 156 -66.5t66 -185.5t-66 -184t-156 -65t-155.5 65t-65.5 184t65.5 185.5t155.5 66.5zM182 567l60 144q15 35 36 35
q10 0 17 -7t7 -17q0 -17 -15 -37l-86 -129zM319 567l59 144q15 35 37 35q10 0 17 -7t7 -17q0 -15 -15 -37l-86 -129z" />
    <glyph glyph-name="OE" unicode="&#x152;" horiz-adv-x="922" 
d="M476 310v54q0 186 -2 277q-48 15 -94 15q-87 0 -147.5 -46t-86.5 -116t-26 -157q0 -135 66 -227t194 -92q46 0 94 15q2 91 2 277zM844 163h37l-9 -163h-369q-66 -15 -120 -15q-144 0 -235 96.5t-91 255.5t91.5 255.5t234.5 96.5q54 0 120 -15h353l9 -163h-37l-19 130
h-277q-2 -89 -2 -283h178l11 96h30v-224h-30l-11 96h-178q0 -203 2 -293h293z" />
    <glyph glyph-name="oe" unicode="&#x153;" horiz-adv-x="880" 
d="M271 15q77 0 121.5 58.5t44.5 160.5q0 103 -44.5 162.5t-121.5 59.5t-121.5 -59.5t-44.5 -162.5q0 -102 44.5 -160.5t121.5 -58.5zM487 273h259q21 0 29 10t8 33q0 58 -36.5 99t-98.5 41t-108 -51t-53 -132zM826 243h-340q1 -105 51.5 -161t126.5 -56q93 0 150 67l15 -14
q-60 -94 -177 -94q-63 0 -113.5 32t-76.5 91q-27 -59 -79.5 -91t-111.5 -32q-90 0 -155.5 65t-65.5 184t65.5 185.5t155.5 66.5q60 0 113.5 -33t79.5 -95q27 59 77.5 93.5t108.5 34.5q83 0 133 -52.5t50 -134.5q0 -36 -7 -56z" />
    <glyph glyph-name="Racute" unicode="&#x154;" horiz-adv-x="648" 
d="M409 797l-120 -70l-12 16l103 93q33 30 49 30q11 0 18.5 -6.5t7.5 -16.5q0 -11 -10 -20.5t-36 -25.5zM210 344h110q78 0 125.5 43.5t47.5 111.5t-43.5 105.5t-131.5 37.5h-106q-2 -90 -2 -298zM537 35l93 -7v-28q-24 -7 -67 -7q-40 0 -59 11t-27 37l-54 172
q-18 59 -45 80t-91 21h-77q0 -189 2 -278l102 -8v-28h-261v28l102 8q1 91 1 274v54q0 183 -1 274l-102 8v28h267q109 0 168.5 -45.5t59.5 -129.5q0 -69 -43 -117t-122 -61q35 -9 55.5 -33.5t37.5 -73.5z" />
    <glyph glyph-name="racute" unicode="&#x155;" horiz-adv-x="411" 
d="M322 684l-124 -123l-16 13l102 145q18 27 36 27q10 0 17.5 -7t7.5 -18q0 -16 -23 -37zM171 473l6 -123q24 63 69.5 99.5t98.5 36.5q20 0 37 -8.5t22 -24.5q-3 -32 -42 -32q-19 0 -53 17l-9 5q-80 -33 -123 -142v-91q0 -72 2 -174l90 -10v-26h-226v26l83 10q2 102 2 174
v47q0 93 -3 162l-88 4v26l122 32z" />
    <glyph glyph-name="uni0156" unicode="&#x156;" horiz-adv-x="648" 
d="M299 -232l-8 21q64 26 88 75q-18 7 -30 20t-12 27q0 16 10.5 25.5t26.5 9.5q21 0 36 -14q6 -18 6 -34q0 -46 -33.5 -80.5t-83.5 -49.5zM210 344h110q78 0 125.5 43.5t47.5 111.5t-43.5 105.5t-131.5 37.5h-106q-2 -90 -2 -298zM537 35l93 -7v-28q-24 -7 -67 -7
q-40 0 -59 11t-27 37l-54 172q-18 59 -45 80t-91 21h-77q0 -189 2 -278l102 -8v-28h-261v28l102 8q1 91 1 274v54q0 183 -1 274l-102 8v28h267q109 0 168.5 -45.5t59.5 -129.5q0 -69 -43 -117t-122 -61q35 -9 55.5 -33.5t37.5 -73.5z" />
    <glyph glyph-name="uni0157" unicode="&#x157;" horiz-adv-x="411" 
d="M79 -236l-8 21q64 26 88 75q-18 7 -30 20t-12 27q0 16 10.5 25.5t26.5 9.5q21 0 36 -14q6 -18 6 -34q0 -46 -33.5 -80.5t-83.5 -49.5zM171 473l6 -123q24 63 69.5 99.5t98.5 36.5q20 0 37 -8.5t22 -24.5q-3 -32 -42 -32q-19 0 -53 17l-9 5q-80 -33 -123 -142v-91
q0 -72 2 -174l90 -10v-26h-226v26l83 10q2 102 2 174v47q0 93 -3 162l-88 4v26l122 32z" />
    <glyph glyph-name="Rcaron" unicode="&#x158;" horiz-adv-x="648" 
d="M343 736h-42l-107 115l16 15l112 -89l112 89l16 -15zM210 344h110q78 0 125.5 43.5t47.5 111.5t-43.5 105.5t-131.5 37.5h-106q-2 -90 -2 -298zM537 35l93 -7v-28q-24 -7 -67 -7q-40 0 -59 11t-27 37l-54 172q-18 59 -45 80t-91 21h-77q0 -189 2 -278l102 -8v-28h-261v28
l102 8q1 91 1 274v54q0 183 -1 274l-102 8v28h267q109 0 168.5 -45.5t59.5 -129.5q0 -69 -43 -117t-122 -61q35 -9 55.5 -33.5t37.5 -73.5z" />
    <glyph glyph-name="rcaron" unicode="&#x159;" horiz-adv-x="411" 
d="M246 570h-42l-111 141l16 14l116 -108l116 108l16 -14zM171 473l6 -123q24 63 69.5 99.5t98.5 36.5q20 0 37 -8.5t22 -24.5q-3 -32 -42 -32q-19 0 -53 17l-9 5q-80 -33 -123 -142v-91q0 -72 2 -174l90 -10v-26h-226v26l83 10q2 102 2 174v47q0 93 -3 162l-88 4v26l122 32
z" />
    <glyph glyph-name="Sacute" unicode="&#x15a;" horiz-adv-x="513" 
d="M338 797l-120 -70l-12 16l103 93q33 30 49 30q11 0 18.5 -6.5t7.5 -16.5q0 -11 -10 -20.5t-36 -25.5zM241 383l39 -15q105 -42 144.5 -86t39.5 -113q0 -85 -63 -134.5t-162 -49.5q-109 0 -190 54l5 131h36l15 -116q58 -36 133 -36q81 0 129 37t48 106q0 52 -31.5 84.5
t-115.5 65.5l-37 15q-81 32 -121.5 78t-40.5 112q0 82 58.5 127.5t145.5 45.5q92 0 162 -50l-4 -124h-37l-15 113q-46 28 -107 28q-69 0 -111.5 -33.5t-42.5 -96.5q0 -52 31 -85t92 -58z" />
    <glyph glyph-name="sacute" unicode="&#x15b;" horiz-adv-x="429" 
d="M318 684l-124 -123l-16 13l102 145q18 27 36 27q10 0 17.5 -7t7.5 -18q0 -16 -23 -37zM210 272l42 -16q69 -26 98.5 -57.5t29.5 -78.5q0 -57 -46.5 -96t-132.5 -39q-71 0 -145 34l-4 104h35l16 -88q42 -20 100 -20q62 0 95.5 26.5t33.5 68.5q0 34 -23 56.5t-79 42.5
l-47 17q-119 43 -119 130q0 57 43.5 93.5t117.5 36.5q68 0 135 -40l-3 -94h-33l-11 81q-42 23 -91 23q-54 0 -82 -24t-28 -64q0 -34 22.5 -55.5t75.5 -40.5z" />
    <glyph glyph-name="uni015E" unicode="&#x15e;" horiz-adv-x="513" 
d="M241 383l39 -15q105 -42 144.5 -86t39.5 -113q0 -80 -56 -129t-146 -54l-6 -45q42 -5 67.5 -26t25.5 -53q0 -35 -26.5 -56.5t-74.5 -21.5q-32 0 -62 10l6 21q36 -6 51 -6q63 0 63 53t-82 57l10 66q-105 1 -185 54l5 131h36l15 -116q58 -36 133 -36q81 0 129 37t48 106
q0 52 -31.5 84.5t-115.5 65.5l-37 15q-81 32 -121.5 78t-40.5 112q0 82 58.5 127.5t145.5 45.5q92 0 162 -50l-4 -124h-37l-15 113q-46 28 -107 28q-69 0 -111.5 -33.5t-42.5 -96.5q0 -52 31 -85t92 -58z" />
    <glyph glyph-name="uni015F" unicode="&#x15f;" horiz-adv-x="429" 
d="M210 272l42 -16q69 -26 98.5 -57.5t29.5 -78.5q0 -54 -41.5 -92t-118.5 -42l-6 -45q42 -5 67.5 -26t25.5 -53q0 -35 -26.5 -56.5t-74.5 -21.5q-32 0 -62 10l6 21q36 -6 51 -6q63 0 63 53t-82 57l10 66q-64 1 -136 34l-4 104h35l16 -88q42 -20 100 -20q62 0 95.5 26.5
t33.5 68.5q0 34 -23 56.5t-79 42.5l-47 17q-119 43 -119 130q0 57 43.5 93.5t117.5 36.5q68 0 135 -40l-3 -94h-33l-11 81q-42 23 -91 23q-54 0 -82 -24t-28 -64q0 -34 22.5 -55.5t75.5 -40.5z" />
    <glyph glyph-name="Scaron" unicode="&#x160;" horiz-adv-x="513" 
d="M297 736h-42l-107 115l16 15l112 -89l112 89l16 -15zM241 383l39 -15q105 -42 144.5 -86t39.5 -113q0 -85 -63 -134.5t-162 -49.5q-109 0 -190 54l5 131h36l15 -116q58 -36 133 -36q81 0 129 37t48 106q0 52 -31.5 84.5t-115.5 65.5l-37 15q-81 32 -121.5 78t-40.5 112
q0 82 58.5 127.5t145.5 45.5q92 0 162 -50l-4 -124h-37l-15 113q-46 28 -107 28q-69 0 -111.5 -33.5t-42.5 -96.5q0 -52 31 -85t92 -58z" />
    <glyph glyph-name="scaron" unicode="&#x161;" horiz-adv-x="429" 
d="M248 570h-42l-111 141l16 14l116 -108l116 108l16 -14zM210 272l42 -16q69 -26 98.5 -57.5t29.5 -78.5q0 -57 -46.5 -96t-132.5 -39q-71 0 -145 34l-4 104h35l16 -88q42 -20 100 -20q62 0 95.5 26.5t33.5 68.5q0 34 -23 56.5t-79 42.5l-47 17q-119 43 -119 130
q0 57 43.5 93.5t117.5 36.5q68 0 135 -40l-3 -94h-33l-11 81q-42 23 -91 23q-54 0 -82 -24t-28 -64q0 -34 22.5 -55.5t75.5 -40.5z" />
    <glyph glyph-name="uni0162" unicode="&#x162;" horiz-adv-x="597" 
d="M521 641h-194q-1 -91 -1 -277v-54q0 -183 1 -274l112 -8v-28h-127l-8 -59q42 -5 67.5 -26t25.5 -53q0 -35 -26.5 -56.5t-74.5 -21.5q-32 0 -62 10l6 21q36 -6 51 -6q63 0 63 53t-82 57l13 81h-127v28l112 8q1 91 1 274v54q0 186 -1 277h-194l-19 -136h-37l9 169h539
l9 -169h-37z" />
    <glyph glyph-name="uni0163" unicode="&#x163;" horiz-adv-x="328" 
d="M219 -10l-7 -49q42 -5 67.5 -26t25.5 -53q0 -35 -26.5 -56.5t-74.5 -21.5q-32 0 -62 10l6 21q36 -6 51 -6q63 0 63 53t-82 57l11 73q-82 10 -80 117q0 9 0.5 32t0.5 40v252h-99v29l100 8l17 145h37l-5 -147h141v-35h-142v-322q0 -86 65 -86q35 0 73 22l13 -20
q-35 -35 -93 -37z" />
    <glyph glyph-name="Tcaron" unicode="&#x164;" horiz-adv-x="597" 
d="M320 736h-42l-107 115l16 15l112 -89l112 89l16 -15zM521 641h-194q-1 -91 -1 -277v-54q0 -183 1 -274l112 -8v-28h-281v28l112 8q1 91 1 274v54q0 186 -1 277h-194l-19 -136h-37l9 169h539l9 -169h-37z" />
    <glyph glyph-name="tcaron" unicode="&#x165;" horiz-adv-x="328" 
d="M267 584l-12 -65h-22l3 215q12 8 29 8q23 0 23 -27q0 -20 -21 -131zM299 47l13 -20q-37 -37 -98 -37q-105 0 -103 119q0 9 0.5 32t0.5 40v252h-99v29l100 8l17 145h37l-5 -147h141v-35h-142v-322q0 -86 65 -86q35 0 73 22z" />
    <glyph glyph-name="Umacron" unicode="&#x16a;" horiz-adv-x="733" 
d="M528 800v-40h-296v40h296zM690 674v-28l-89 -9v-380q0 -136 -59.5 -204t-172.5 -68q-109 0 -169.5 64.5t-60.5 199.5v112q0 186 -2 277l-91 8v28h255v-28l-106 -9q-2 -91 -2 -276v-96q0 -236 182 -236q101 0 146.5 59t45.5 195v354l-114 9v28h237z" />
    <glyph glyph-name="umacron" unicode="&#x16b;" horiz-adv-x="595" 
d="M420 660v-40h-248v40h248zM476 35l75 -9v-26l-121 -6l-3 93q-82 -102 -182 -102q-68 0 -101 42.5t-32 142.5l3 259l-82 10v26l124 9l9 -11l-4 -139v-148q0 -79 24.5 -112.5t75.5 -33.5q87 0 164 90l2 309l-81 10v26l123 9l9 -11l-3 -139v-289z" />
    <glyph glyph-name="Uring" unicode="&#x16e;" horiz-adv-x="733" 
d="M378 869q-25 0 -40.5 -18t-15.5 -43q0 -24 16 -42t40 -18t40 18t16 42q0 25 -15.5 43t-40.5 18zM378 722q-35 0 -61.5 24t-26.5 62q0 39 26.5 63.5t61.5 24.5t61.5 -24.5t26.5 -63.5q0 -38 -26.5 -62t-61.5 -24zM690 674v-28l-89 -9v-380q0 -136 -59.5 -204t-172.5 -68
q-109 0 -169.5 64.5t-60.5 199.5v112q0 186 -2 277l-91 8v28h255v-28l-106 -9q-2 -91 -2 -276v-96q0 -236 182 -236q101 0 146.5 59t45.5 195v354l-114 9v28h237z" />
    <glyph glyph-name="uring" unicode="&#x16f;" horiz-adv-x="595" 
d="M290 708q-27 0 -44 -19t-17 -45t17 -45.5t44 -19.5t44 19.5t17 45.5t-17 45t-44 19zM290 551q-38 0 -65.5 25.5t-27.5 67.5q0 41 27.5 66.5t65.5 25.5t65.5 -25.5t27.5 -66.5q0 -42 -27.5 -67.5t-65.5 -25.5zM476 35l75 -9v-26l-121 -6l-3 93q-82 -102 -182 -102
q-68 0 -101 42.5t-32 142.5l3 259l-82 10v26l124 9l9 -11l-4 -139v-148q0 -79 24.5 -112.5t75.5 -33.5q87 0 164 90l2 309l-81 10v26l123 9l9 -11l-3 -139v-289z" />
    <glyph glyph-name="Uhungarumlaut" unicode="&#x170;" horiz-adv-x="733" 
d="M547 819l-96 -99l-17 12l70 115q16 28 36 28q10 0 17 -6.5t7 -16.5q0 -13 -17 -33zM396 819l-96 -99l-18 12l71 115q15 28 36 28q10 0 16.5 -6.5t6.5 -16.5q0 -14 -16 -33zM690 674v-28l-89 -9v-380q0 -136 -59.5 -204t-172.5 -68q-109 0 -169.5 64.5t-60.5 199.5v112
q0 186 -2 277l-91 8v28h255v-28l-106 -9q-2 -91 -2 -276v-96q0 -236 182 -236q101 0 146.5 59t45.5 195v354l-114 9v28h237z" />
    <glyph glyph-name="uhungarumlaut" unicode="&#x171;" horiz-adv-x="595" 
d="M441 685l-86 -129l-19 11l59 144q15 35 37 35q10 0 17 -7t7 -17q0 -15 -15 -37zM304 685l-86 -129l-19 11l60 144q15 35 36 35q10 0 17 -7t7 -17q0 -17 -15 -37zM476 35l75 -9v-26l-121 -6l-3 93q-82 -102 -182 -102q-68 0 -101 42.5t-32 142.5l3 259l-82 10v26l124 9
l9 -11l-4 -139v-148q0 -79 24.5 -112.5t75.5 -33.5q87 0 164 90l2 309l-81 10v26l123 9l9 -11l-3 -139v-289z" />
    <glyph glyph-name="Uogonek" unicode="&#x172;" horiz-adv-x="733" 
d="M690 674v-28l-89 -9v-380q0 -174 -102 -240q-42 -27 -63.5 -60.5t-21.5 -65.5q0 -35 20.5 -54.5t52.5 -19.5q31 0 61 22l11 -15q-31 -43 -91 -43q-42 0 -68.5 24t-26.5 65q0 67 66 123q-32 -8 -67 -8q-233 0 -233 264v112q0 186 -2 277l-91 8v28h255v-28l-106 -9
q-2 -91 -2 -276v-96q0 -236 180 -236q102 0 148 58.5t46 195.5v354l-114 9v28h237z" />
    <glyph glyph-name="uogonek" unicode="&#x173;" horiz-adv-x="595" 
d="M562 -161l11 -15q-31 -43 -92 -43q-39 0 -63.5 23.5t-24.5 65.5q0 69 86 126l-49 -2l-3 93q-82 -102 -182 -102q-68 0 -101 42.5t-32 142.5l3 259l-82 10v26l124 9l9 -11l-4 -139v-148q0 -79 24.5 -112.5t75.5 -33.5q87 0 164 90l2 309l-81 10v26l123 9l9 -11l-3 -139
v-289l75 -9v-26l-46 -2q-70 -53 -70 -107q0 -35 18.5 -54.5t48.5 -19.5q32 0 60 22z" />
    <glyph glyph-name="Ydieresis" unicode="&#x178;" horiz-adv-x="634" 
d="M433 747q-18 0 -30 11.5t-12 29.5t12 29.5t30 11.5q17 0 29.5 -11.5t12.5 -29.5t-12.5 -29.5t-29.5 -11.5zM221 747q-17 0 -29.5 11.5t-12.5 29.5t12.5 29.5t29.5 11.5t29.5 -11.5t12.5 -29.5t-12.5 -29.5t-29.5 -11.5zM528 637l-183 -369v-45q0 -115 2 -187l112 -8v-28
h-282v28l112 8q2 72 2 187v43l-185 372l-82 8v28h247v-28l-104 -8l162 -335l163 334l-103 9v28h226v-28z" />
    <glyph glyph-name="Zacute" unicode="&#x179;" horiz-adv-x="553" 
d="M358 797l-120 -70l-12 16l103 93q33 30 49 30q11 0 18.5 -6.5t7.5 -16.5q0 -11 -10 -20.5t-36 -25.5zM490 169h37l-9 -169h-492v26l418 615h-345l-23 -136h-37l8 169h460v-26l-416 -615h375z" />
    <glyph glyph-name="zacute" unicode="&#x17a;" horiz-adv-x="456" 
d="M329 684l-124 -123l-16 13l102 145q18 27 36 27q10 0 17.5 -7t7.5 -18q0 -16 -23 -37zM390 149h33l-8 -149h-371v26l304 413h-248l-21 -109l-33 4l7 134h354v-26l-304 -413h263z" />
    <glyph glyph-name="Zdotaccent" unicode="&#x17b;" horiz-adv-x="553" 
d="M287 750q-20 0 -34 13t-14 34q0 20 14 33t34 13t34 -13t14 -33q0 -21 -14 -34t-34 -13zM490 169h37l-9 -169h-492v26l418 615h-345l-23 -136h-37l8 169h460v-26l-416 -615h375z" />
    <glyph glyph-name="zdotaccent" unicode="&#x17c;" horiz-adv-x="456" 
d="M243 621q-19 0 -32.5 12.5t-13.5 31.5q0 20 13.5 32.5t32.5 12.5t32.5 -12.5t13.5 -32.5q0 -19 -13.5 -31.5t-32.5 -12.5zM390 149h33l-8 -149h-371v26l304 413h-248l-21 -109l-33 4l7 134h354v-26l-304 -413h263z" />
    <glyph glyph-name="Zcaron" unicode="&#x17d;" horiz-adv-x="553" 
d="M301 736h-42l-107 115l16 15l112 -89l112 89l16 -15zM490 169h37l-9 -169h-492v26l418 615h-345l-23 -136h-37l8 169h460v-26l-416 -615h375z" />
    <glyph glyph-name="zcaron" unicode="&#x17e;" horiz-adv-x="456" 
d="M263 570h-42l-111 141l16 14l116 -108l116 108l16 -14zM390 149h33l-8 -149h-371v26l304 413h-248l-21 -109l-33 4l7 134h354v-26l-304 -413h263z" />
    <glyph glyph-name="longs" unicode="&#x17f;" horiz-adv-x="350" 
d="M124 210v234q0 175 71 253q54 58 131 58q63 0 76 -33q-3 -31 -42 -31q-22 0 -59 18l-24 13q-28 -11 -54 -44q-50 -66 -50 -234v-234q0 -87 3 -174l99 -10v-26h-245v26l91 10q3 87 3 174z" />
    <glyph glyph-name="uni0192" unicode="&#x192;" horiz-adv-x="493" 
d="M101 390h127q16 159 76 223q46 51 112 51q60 0 95 -40q-4 -32 -36 -32q-29 0 -71 30l-17 12q-39 -13 -60 -44q-22 -33 -32.5 -75.5t-18.5 -124.5h139v-35h-141l-11 -127q-10 -114 -27 -175.5t-53 -101.5q-48 -51 -113 -51q-62 0 -94 41q4 31 35 31q27 0 70 -31l17 -12
q40 11 62 45q23 36 33.5 87t19.5 156l11 138h-123v35z" />
    <glyph glyph-name="uni0218" unicode="&#x218;" horiz-adv-x="513" 
d="M198 -236l-8 21q64 26 88 75q-18 7 -30 20t-12 27q0 16 10.5 25.5t26.5 9.5q21 0 36 -14q6 -18 6 -34q0 -46 -33.5 -80.5t-83.5 -49.5zM241 383l39 -15q105 -42 144.5 -86t39.5 -113q0 -85 -63 -134.5t-162 -49.5q-109 0 -190 54l5 131h36l15 -116q58 -36 133 -36
q81 0 129 37t48 106q0 52 -31.5 84.5t-115.5 65.5l-37 15q-81 32 -121.5 78t-40.5 112q0 82 58.5 127.5t145.5 45.5q92 0 162 -50l-4 -124h-37l-15 113q-46 28 -107 28q-69 0 -111.5 -33.5t-42.5 -96.5q0 -52 31 -85t92 -58z" />
    <glyph glyph-name="uni0219" unicode="&#x219;" horiz-adv-x="429" 
d="M145 -236l-8 21q64 26 88 75q-18 7 -30 20t-12 27q0 16 10.5 25.5t26.5 9.5q21 0 36 -14q6 -18 6 -34q0 -46 -33.5 -80.5t-83.5 -49.5zM210 272l42 -16q69 -26 98.5 -57.5t29.5 -78.5q0 -57 -46.5 -96t-132.5 -39q-71 0 -145 34l-4 104h35l16 -88q42 -20 100 -20
q62 0 95.5 26.5t33.5 68.5q0 34 -23 56.5t-79 42.5l-47 17q-119 43 -119 130q0 57 43.5 93.5t117.5 36.5q68 0 135 -40l-3 -94h-33l-11 81q-42 23 -91 23q-54 0 -82 -24t-28 -64q0 -34 22.5 -55.5t75.5 -40.5z" />
    <glyph glyph-name="uni021A" unicode="&#x21a;" horiz-adv-x="597" 
d="M222 -236l-8 21q64 26 88 75q-18 7 -30 20t-12 27q0 16 10.5 25.5t26.5 9.5q21 0 36 -14q6 -18 6 -34q0 -46 -33.5 -80.5t-83.5 -49.5zM521 641h-194q-1 -91 -1 -277v-54q0 -183 1 -274l112 -8v-28h-281v28l112 8q1 91 1 274v54q0 186 -1 277h-194l-19 -136h-37l9 169
h539l9 -169h-37z" />
    <glyph glyph-name="uni021B" unicode="&#x21b;" horiz-adv-x="328" 
d="M299 47l13 -20q-37 -37 -98 -37q-105 0 -103 119q0 9 0.5 32t0.5 40v252h-99v29l100 8l17 145h37l-5 -147h141v-35h-142v-322q0 -86 65 -86q35 0 73 22zM123 -236l-8 21q64 26 88 75q-18 7 -30 20t-12 27q0 16 10.5 25.5t26.5 9.5q21 0 36 -14q6 -18 6 -34
q0 -46 -33.5 -80.5t-83.5 -49.5z" />
    <glyph glyph-name="h.sups" unicode="&#x2b0;" horiz-adv-x="401" 
d="M329 462l50 -8v-21h-147v21l55 8v171q0 45 -15 64.5t-45 19.5q-50 0 -108 -57v-198l50 -8v-21h-147v21l55 8v406l-57 4v21l89 20l9 -5v-222q59 69 125 69q86 0 86 -115v-178z" />
    <glyph glyph-name="j.sups" unicode="&#x2b2;" horiz-adv-x="185" 
d="M22 725l92 26l9 -5v-243q0 -92 -7 -132t-30 -66q-31 -36 -79 -36q-52 0 -56 27q6 26 33 26q22 0 44 -18l10 -8q10 7 20 18q14 23 18 58t4 111v219l-58 3v20zM99 905q15 0 25 -9.5t10 -24.5q0 -16 -10 -25.5t-25 -9.5t-25 10t-10 25t10 24.5t25 9.5z" />
    <glyph glyph-name="r.sups" unicode="&#x2b3;" horiz-adv-x="275" 
d="M119 746l6 -81q17 41 45 65.5t59 24.5q34 0 41 -28q-2 -28 -31 -28q-17 0 -38 15l-6 4q-46 -26 -70 -89v-167l59 -8v-21h-155v21l54 8v238l-58 4v21l86 27z" />
    <glyph glyph-name="w.sups" unicode="&#x2b7;" horiz-adv-x="513" 
d="M509 743v-23l-42 -6l-99 -288h-18l-94 249l-92 -249h-19l-103 289l-44 5v23h143v-23l-53 -5l75 -219l83 219l-48 5v23h136v-23l-48 -6l80 -217l72 217l-52 6v23h123z" />
    <glyph glyph-name="y.sups" unicode="&#x2b8;" horiz-adv-x="339" 
d="M338 743v-23l-45 -6l-114 -306q-51 -138 -127 -138q-23 0 -39 9.5t-18 24.5q4 23 33 23q20 0 44 -20l6 -6q46 24 82 121l-117 292l-46 6v23h152v-23l-60 -6l92 -234l85 234l-55 6v23h127z" />
    <glyph glyph-name="uni02BB" unicode="&#x2bb;" horiz-adv-x="210" 
d="M82 608l26 -21q30 -25 30 -53q0 -18 -10.5 -28t-27.5 -10q-20 0 -32 9q-20 31 -20 69q0 52 30 99.5t80 81.5l14 -18q-39 -30 -59.5 -59t-30.5 -70z" />
    <glyph glyph-name="uni02BC" unicode="&#x2bc;" horiz-adv-x="210" 
d="M124 633l-26 21q-30 25 -30 53q0 18 10.5 28t27.5 10q20 0 32 -9q20 -31 20 -69q0 -52 -30 -99.5t-80 -81.5l-14 18q39 30 59.5 59t30.5 70z" />
    <glyph glyph-name="circumflex" unicode="&#x2c6;" horiz-adv-x="400" 
d="M331 574l-15 -14l-116 117l-116 -117l-15 14l120 165h22z" />
    <glyph glyph-name="caron" unicode="&#x2c7;" horiz-adv-x="400" 
d="M316 725l16 -14l-111 -141h-42l-111 141l16 14l116 -108z" />
    <glyph glyph-name="uni02C9" unicode="&#x2c9;" horiz-adv-x="400" 
d="M76 620v40h248v-40h-248z" />
    <glyph glyph-name="uni02CA" unicode="&#x2ca;" horiz-adv-x="400" 
d="M141 574l102 145q18 27 36 27q10 0 17.5 -7t7.5 -18q0 -16 -23 -37l-124 -123z" />
    <glyph glyph-name="uni02CB" unicode="&#x2cb;" horiz-adv-x="400" 
d="M261 574l-17 -13l-124 123q-22 21 -22 37q0 11 7.5 18t17.5 7q17 0 36 -27z" />
    <glyph glyph-name="breve" unicode="&#x2d8;" horiz-adv-x="400" 
d="M200 581q-60 0 -98 40.5t-47 103.5l21 7q35 -107 124 -107t124 107l21 -7q-9 -63 -47 -103.5t-98 -40.5z" />
    <glyph glyph-name="dotaccent" unicode="&#x2d9;" horiz-adv-x="400" 
d="M200 621q-19 0 -32.5 12.5t-13.5 31.5q0 20 13.5 32.5t32.5 12.5t32.5 -12.5t13.5 -32.5q0 -19 -13.5 -31.5t-32.5 -12.5z" />
    <glyph glyph-name="ring" unicode="&#x2da;" horiz-adv-x="400" 
d="M200 579q27 0 44 19.5t17 45.5t-17 45t-44 19t-44 -19t-17 -45t17 -45.5t44 -19.5zM200 551q-38 0 -65.5 25.5t-27.5 67.5q0 41 27.5 66.5t65.5 25.5t65.5 -25.5t27.5 -66.5q0 -42 -27.5 -67.5t-65.5 -25.5z" />
    <glyph glyph-name="ogonek" unicode="&#x2db;" horiz-adv-x="400" 
d="M113 -133q0 41 25 79t60 62h23q-30 -23 -48 -56t-18 -64q0 -35 18.5 -54t48.5 -19q31 0 60 21l12 -15q-31 -43 -92 -43q-39 0 -64 23.5t-25 65.5z" />
    <glyph glyph-name="tilde" unicode="&#x2dc;" horiz-adv-x="400" 
d="M274 589q-42 0 -84 41q-37 38 -65 38q-52 0 -53 -75h-23q0 1 -0.5 7t-0.5 8q0 46 23.5 72t59.5 26q39 0 82 -40q42 -39 67 -39q51 0 52 75h23q0 -1 0.5 -7t0.5 -8q0 -46 -23 -72t-59 -26z" />
    <glyph glyph-name="hungarumlaut" unicode="&#x2dd;" horiz-adv-x="400" 
d="M72 567l60 144q15 35 36 35q10 0 17 -7t7 -17q0 -17 -15 -37l-86 -129zM209 567l59 144q15 35 37 35q10 0 17 -7t7 -17q0 -15 -15 -37l-86 -129z" />
    <glyph glyph-name="l.sups" unicode="&#x2e1;" horiz-adv-x="198" 
d="M122 462l58 -8v-21h-160v21l59 8v406l-56 4v21l89 20l10 -5v-446z" />
    <glyph glyph-name="s.sups" unicode="&#x2e2;" horiz-adv-x="290" 
d="M145 617l27 -9q86 -31 86 -93q0 -40 -31.5 -66t-90.5 -26q-52 0 -99 25l-2 70h26l10 -56q30 -15 67 -15q40 0 61 15t21 41q0 22 -15 35.5t-53 27.5l-31 11q-79 30 -79 89q0 39 29.5 64t80.5 25q46 0 92 -26l-2 -65h-26l-7 51q-29 15 -58 15q-71 0 -71 -53q0 -21 15 -34
t50 -26z" />
    <glyph glyph-name="x.sups" unicode="&#x2e3;" horiz-adv-x="338" 
d="M284 461l47 -7v-21h-142v21l47 7l-76 106l-77 -106l47 -7v-21h-123v21l47 7l94 123l-92 131l-45 5v23h133v-23l-42 -5l74 -102l74 101l-46 6v23h118v-23l-42 -6l-91 -119z" />
    <glyph glyph-name="uni0300" unicode="&#x300;" horiz-adv-x="0" 
d="M60 574l-17 -13l-124 123q-22 21 -22 37q0 11 7.5 18t17.5 7q16 0 36 -27z" />
    <glyph glyph-name="uni0301" unicode="&#x301;" horiz-adv-x="0" 
d="M-60 574l102 145q18 27 36 27q10 0 17.5 -7t7.5 -18q0 -16 -23 -37l-124 -123z" />
    <glyph glyph-name="uni0302" unicode="&#x302;" horiz-adv-x="0" 
d="M131 574l-15 -14l-116 117l-116 -117l-15 14l120 165h22z" />
    <glyph glyph-name="uni0303" unicode="&#x303;" horiz-adv-x="0" 
d="M72 589q-42 0 -84 41q-37 38 -65 38q-52 0 -53 -75h-23q0 1 -0.5 7t-0.5 8q0 46 23.5 72t59.5 26q39 0 82 -40q42 -39 67 -39q51 0 52 75h23q0 -1 0.5 -7t0.5 -8q0 -46 -23 -72t-59 -26z" />
    <glyph glyph-name="uni0304" unicode="&#x304;" horiz-adv-x="0" 
d="M-124 620v40h248v-40h-248z" />
    <glyph glyph-name="uni0306" unicode="&#x306;" horiz-adv-x="0" 
d="M0 581q-60 0 -98 40.5t-47 103.5l21 7q35 -107 124 -107t124 107l21 -7q-9 -63 -47 -103.5t-98 -40.5z" />
    <glyph glyph-name="uni0307" unicode="&#x307;" horiz-adv-x="0" 
d="M0 621q-19 0 -32.5 12.5t-13.5 31.5q0 20 13.5 32.5t32.5 12.5t32.5 -12.5t13.5 -32.5q0 -19 -13.5 -31.5t-32.5 -12.5z" />
    <glyph glyph-name="uni0308" unicode="&#x308;" horiz-adv-x="0" 
d="M96 610q-17 0 -29 11t-12 28t12 28t29 11q16 0 28 -11t12 -28t-12 -28t-28 -11zM-96 610q-16 0 -28 11t-12 28t12 28t28 11q17 0 29 -11t12 -28t-12 -28t-29 -11z" />
    <glyph glyph-name="uni030A" unicode="&#x30a;" horiz-adv-x="0" 
d="M0 579q27 0 44 19.5t17 45.5t-17 45t-44 19t-44 -19t-17 -45t17 -45.5t44 -19.5zM0 551q-38 0 -65.5 25.5t-27.5 67.5q0 41 27.5 66.5t65.5 25.5t65.5 -25.5t27.5 -66.5q0 -42 -27.5 -67.5t-65.5 -25.5z" />
    <glyph glyph-name="uni030B" unicode="&#x30b;" horiz-adv-x="0" 
d="M-109 567l60 144q15 35 36 35q10 0 17 -7t7 -17q0 -17 -15 -37l-86 -129zM28 567l59 144q15 35 37 35q10 0 17 -7t7 -17q0 -15 -15 -37l-86 -129z" />
    <glyph glyph-name="uni030C" unicode="&#x30c;" horiz-adv-x="0" 
d="M116 725l16 -14l-111 -141h-42l-111 141l16 14l116 -108z" />
    <glyph glyph-name="uni0326" unicode="&#x326;" horiz-adv-x="0" 
d="M-68 -236l-8 21q64 26 88 75q-18 7 -30 20t-12 27q0 16 10.5 25.5t26.5 9.5q21 0 36 -14q6 -18 6 -34q0 -46 -33.5 -80.5t-83.5 -49.5z" />
    <glyph glyph-name="uni0327" unicode="&#x327;" horiz-adv-x="0" 
d="M17 1l-8 -60q42 -5 67.5 -26t25.5 -53q0 -35 -26.5 -56.5t-74.5 -21.5q-32 0 -62 10l6 21q36 -6 51 -6q63 0 63 53t-82 57l13 82h27z" />
    <glyph glyph-name="uni0328" unicode="&#x328;" horiz-adv-x="0" 
d="M-87 -133q0 41 25 79t60 62h23q-30 -23 -48 -56t-18 -64q0 -35 18.5 -54t48.5 -19q31 0 60 21l12 -15q-31 -43 -92 -43q-39 0 -64 23.5t-25 65.5z" />
    <glyph glyph-name="pi" unicode="&#x3c0;" horiz-adv-x="620" 
d="M527 44l11 7l16 -30q-35 -34 -79 -34q-81 0 -81 94q0 17 0.5 52.5t2 117t2.5 172.5h-181l-26 -428q-10 -10 -29 -10q-28 0 -28 37q0 15 2 33.5t5.5 42t4.5 35.5l38 289l-144 -11l-2 27q58 30 152 30h389l1 -26q-45 -19 -146 -19v-321q0 -38 12.5 -53t36.5 -15q25 0 43 10
z" />
    <glyph glyph-name="a.sups" unicode="&#x1d43;" horiz-adv-x="339" 
d="M222 504v104q-52 -13 -77 -23q-70 -26 -70 -73q0 -25 14 -39q16 -17 44 -17q20 0 38 10t51 38zM318 466l11 -10q-19 -30 -51 -30q-50 0 -55 56q-32 -32 -54.5 -45.5t-52.5 -13.5q-38 0 -62 21.5t-24 59.5q0 33 24 57t82 43q37 13 86 23v20q0 49 -16 66.5t-53 17.5
q-25 0 -48 -9l-12 -41q-6 -27 -29 -27q-22 0 -25 22q11 37 44.5 58t82.5 21q50 0 74 -25.5t24 -82.5v-145q0 -49 25 -49q13 0 29 13z" />
    <glyph glyph-name="b.sups" unicode="&#x1d47;" horiz-adv-x="387" 
d="M119 679v-182q46 -43 92 -43q42 0 68.5 33.5t26.5 102.5q0 67 -25 100t-67 33q-48 0 -95 -44zM119 908v-204q47 51 104 51t92.5 -43.5t35.5 -119.5q0 -78 -37 -123.5t-97 -45.5q-58 0 -99 48l-5 -45l-91 7v20l55 8v407l-57 4v21l88 20z" />
    <glyph glyph-name="d.sups" unicode="&#x1d48;" horiz-adv-x="386" 
d="M268 498v182q-47 43 -87 43q-47 0 -74.5 -33.5t-27.5 -103.5q0 -67 27 -99.5t71 -32.5q47 0 91 44zM310 461l61 -8v-20l-98 -6l-4 49q-45 -53 -104 -53q-57 0 -93.5 43.5t-36.5 119.5q0 79 39.5 124t101.5 45q52 0 92 -50v163l-57 4v21l89 20l10 -5v-447z" />
    <glyph glyph-name="e.sups" unicode="&#x1d49;" horiz-adv-x="337" 
d="M78 614h159q16 0 22 7.5t6 23.5q0 37 -23.5 61t-61.5 24q-40 0 -68.5 -30.5t-33.5 -85.5zM301 590h-224q1 -64 33.5 -98t81.5 -34q61 0 99 46l12 -11q-40 -70 -120 -70q-66 0 -108 43t-42 122q0 73 43.5 120t104.5 47q56 0 90.5 -36t34.5 -92q0 -20 -5 -37z" />
    <glyph glyph-name="g.sups" unicode="&#x1d4d;" horiz-adv-x="343" 
d="M159 559q34 0 54.5 24t20.5 63q0 38 -20 62t-54 24t-55 -24.5t-21 -62.5q0 -39 20.5 -62.5t54.5 -23.5zM218 422h-72q-25 0 -48 7q-32 -28 -32 -62q0 -67 101 -67q56 0 86.5 20.5t30.5 52.5q0 49 -66 49zM326 744v-34h-69q20 -26 20 -65q0 -49 -33 -78t-85 -29
q-29 0 -51 9q-20 -19 -20 -40q0 -40 66 -40h70q100 0 100 -82q0 -45 -42.5 -77.5t-117.5 -32.5q-67 0 -102.5 23t-35.5 60q0 47 60 76q-35 19 -35 55q0 37 41 65q-50 27 -50 91q0 49 32.5 78.5t84.5 29.5q51 0 82 -26l75 23z" />
    <glyph glyph-name="k.sups" unicode="&#x1d4f;" horiz-adv-x="362" 
d="M305 461l50 -7v-21h-79l-106 168l-51 -51v-88l54 -8v-21h-153v21l57 8v406l-57 4v21l89 20l10 -5v-328l129 134l-54 6v23h150v-23l-64 -6l-81 -83z" />
    <glyph glyph-name="m.sups" unicode="&#x1d50;" horiz-adv-x="597" 
d="M527 462l50 -8v-21h-147v21l54 8v171q0 84 -57 84q-46 0 -101 -52q1 -8 1 -26v-177l50 -8v-21h-147v21l55 8v171q0 84 -56 84q-46 0 -104 -55v-200l51 -8v-21h-147v21l54 8v238l-58 4v21l86 27l8 -6l5 -60q57 69 118 69q64 0 80 -68q56 68 118 68q87 0 87 -114v-179z" />
    <glyph glyph-name="o.sups" unicode="&#x1d52;" horiz-adv-x="363" 
d="M182 730q-49 0 -76.5 -37t-27.5 -105t27.5 -104.5t76.5 -36.5t76.5 37t27.5 104q0 68 -28 105t-76 37zM182 755q60 0 104.5 -44.5t44.5 -122.5q0 -77 -44 -121t-105 -44t-105.5 44t-44.5 121q0 78 45 122.5t105 44.5z" />
    <glyph glyph-name="p.sups" unicode="&#x1d56;" horiz-adv-x="390" 
d="M124 678v-182q45 -42 92 -42q42 0 68.5 33.5t26.5 102.5q0 67 -25 100t-68 33q-46 0 -94 -45zM118 746l5 -47q47 56 105 56q56 0 92 -44t36 -119q0 -78 -37.5 -123.5t-96.5 -45.5t-98 48v-167l63 -8v-21h-162v21l57 8v396l-59 4v21l87 27z" />
    <glyph glyph-name="t.sups" unicode="&#x1d57;" horiz-adv-x="221" 
d="M202 474l11 -17q-28 -31 -71 -31q-71 0 -71 79v208h-60v25l61 5l13 95h31l-2 -95h93v-30h-94v-201q0 -53 41 -53q25 0 48 15z" />
    <glyph glyph-name="u.sups" unicode="&#x1d58;" horiz-adv-x="391" 
d="M320 462l48 -8v-21l-86 -6l-4 62q-54 -66 -117 -66q-46 0 -68.5 28t-22.5 92v169l-50 7v21l86 7l6 -7v-190q0 -90 62 -90q52 0 103 54v198l-50 6v21l87 8l6 -7v-278z" />
    <glyph glyph-name="v.sups" unicode="&#x1d5b;" horiz-adv-x="339" 
d="M337 743v-23l-42 -6l-111 -288h-20l-121 288l-45 6v23h148v-23l-55 -6l92 -232l84 232l-56 6v23h126z" />
    <glyph glyph-name="c.sups" unicode="&#x1d9c;" horiz-adv-x="325" 
d="M289 505l13 -8q-35 -74 -121 -74q-66 0 -107 45t-41 120t45.5 121t108.5 46q41 0 72.5 -22t41.5 -59q-5 -22 -25 -22q-21 0 -30 32l-10 36q-23 10 -48 10q-48 0 -79 -37t-31 -100t31.5 -99t81.5 -36q62 0 98 47z" />
    <glyph glyph-name="f.sups" unicode="&#x1da0;" horiz-adv-x="233" 
d="M24 738l59 6q7 102 52 145q33 37 87 37q45 0 56 -26q-4 -27 -31 -27q-11 0 -43 20l-14 10q-20 -9 -33 -27q-32 -40 -32 -133h98v-30h-98v-251l66 -8v-21h-168v21l60 8v251h-59v25z" />
    <glyph glyph-name="z.sups" unicode="&#x1dbb;" horiz-adv-x="304" 
d="M259 533h26l-6 -100h-253v19l197 267h-153l-16 -71l-25 3l4 92h242v-20l-197 -267h164z" />
    <glyph glyph-name="uni1E44" unicode="&#x1e44;" horiz-adv-x="733" 
d="M360 742q-20 0 -34 13t-14 34q0 20 14 33t34 13t34 -13t14 -33q0 -21 -14 -34t-34 -13zM694 674v-28l-89 -9v-647h-25l-412 597v-550l110 -9v-28h-233v28l88 9v594l-6 6l-86 9v28h133l397 -578v541l-109 9v28h232z" />
    <glyph glyph-name="uni1E45" unicode="&#x1e45;" horiz-adv-x="604" 
d="M316 621q-19 0 -32.5 12.5t-13.5 31.5q0 20 13.5 32.5t32.5 12.5t32.5 -12.5t13.5 -32.5q0 -19 -13.5 -31.5t-32.5 -12.5zM493 36l77 -10v-26h-214v26l84 10q2 102 2 174v98q0 72 -23.5 102.5t-69.5 30.5q-84 0 -172 -91v-140q0 -72 2 -174l77 -10v-26h-214v26l84 10
q2 102 2 174v47q0 93 -3 162l-88 4v26l122 32l12 -8l5 -90q90 103 192 103q61 0 92 -41t31 -134v-101q0 -72 2 -174z" />
    <glyph glyph-name="uni2007" unicode="&#x2007;" horiz-adv-x="493" 
 />
    <glyph glyph-name="figuredash" unicode="&#x2012;" horiz-adv-x="493" 
d="M40 228v42h413v-42h-413z" />
    <glyph glyph-name="endash" unicode="&#x2013;" horiz-adv-x="510" 
d="M40 228v42h430v-42h-430z" />
    <glyph glyph-name="emdash" unicode="&#x2014;" horiz-adv-x="810" 
d="M40 228v42h730v-42h-730z" />
    <glyph glyph-name="uni2015" unicode="&#x2015;" horiz-adv-x="810" 
d="M40 228v42h730v-42h-730z" />
    <glyph glyph-name="quoteleft" unicode="&#x2018;" horiz-adv-x="210" 
d="M82 608l26 -21q30 -25 30 -53q0 -18 -10.5 -28t-27.5 -10q-20 0 -32 9q-20 31 -20 69q0 52 30 99.5t80 81.5l14 -18q-39 -30 -59.5 -59t-30.5 -70z" />
    <glyph glyph-name="quoteright" unicode="&#x2019;" horiz-adv-x="210" 
d="M124 633l-26 21q-30 25 -30 53q0 18 10.5 28t27.5 10q20 0 32 -9q20 -31 20 -69q0 -52 -30 -99.5t-80 -81.5l-14 18q39 30 59.5 59t30.5 70z" />
    <glyph glyph-name="quotesinglbase" unicode="&#x201a;" horiz-adv-x="210" 
d="M124 -14l-26 21q-30 25 -30 53q0 18 10.5 28t27.5 10q20 0 32 -9q20 -31 20 -69q0 -52 -30 -99.5t-80 -81.5l-14 18q39 30 59.5 59t30.5 70z" />
    <glyph glyph-name="quotedblleft" unicode="&#x201c;" horiz-adv-x="381" 
d="M158 755l14 -18q-39 -30 -59.5 -59t-30.5 -70l26 -21q30 -25 30 -53q0 -18 -10.5 -28t-27.5 -10q-20 0 -32 9q-20 31 -20 69q0 52 30 99.5t80 81.5zM253 608l26 -21q30 -25 30 -53q0 -18 -10.5 -28t-27.5 -10q-20 0 -32 9q-20 31 -20 69q0 52 30 99.5t80 81.5l14 -18
q-39 -30 -59.5 -59t-30.5 -70z" />
    <glyph glyph-name="quotedblright" unicode="&#x201d;" horiz-adv-x="381" 
d="M124 633l-26 21q-30 25 -30 53q0 18 10.5 28t27.5 10q20 0 32 -9q20 -31 20 -69q0 -52 -30 -99.5t-80 -81.5l-14 18q39 30 59.5 59t30.5 70zM295 633l-26 21q-30 25 -30 53q0 18 10.5 28t27.5 10q20 0 32 -9q20 -31 20 -69q0 -52 -30 -99.5t-80 -81.5l-14 18
q39 30 59.5 59t30.5 70z" />
    <glyph glyph-name="quotedblbase" unicode="&#x201e;" horiz-adv-x="381" 
d="M124 -14l-26 21q-30 25 -30 53q0 18 10.5 28t27.5 10q20 0 32 -9q20 -31 20 -69q0 -52 -30 -99.5t-80 -81.5l-14 18q39 30 59.5 59t30.5 70zM295 -14l-26 21q-30 25 -30 53q0 18 10.5 28t27.5 10q20 0 32 -9q20 -31 20 -69q0 -52 -30 -99.5t-80 -81.5l-14 18
q39 30 59.5 59t30.5 70z" />
    <glyph glyph-name="dagger" unicode="&#x2020;" horiz-adv-x="504" 
d="M263 490l68 9q82 11 98 11q35 0 35 -30q0 -31 -35 -31q-15 0 -98 11l-68 9q16 -117 16 -150q0 -20 -2.5 -61t-7 -125t-8.5 -184h-18q-4 100 -8.5 184t-7 125t-2.5 61q0 33 16 150l-68 -9q-83 -11 -98 -11q-35 0 -35 31q0 30 35 30q15 0 98 -11l68 -9l-8 75
q-11 77 -11 106q0 35 30 35t30 -35q0 -29 -11 -106z" />
    <glyph glyph-name="daggerdbl" unicode="&#x2021;" horiz-adv-x="504" 
d="M262 155l69 9q66 11 98 11q35 0 35 -30t-35 -30q-32 0 -98 11l-68 9l8 -75q11 -80 11 -106q0 -35 -30 -35t-30 35q0 26 11 106l8 75l-68 -9q-66 -11 -98 -11q-35 0 -35 30t35 30q32 0 98 -11l69 -9q-15 107 -15 157q0 52 15 157l-69 -9q-83 -11 -98 -11q-35 0 -35 31
q0 30 35 30q15 0 98 -11l68 -9l-8 75q-11 77 -11 106q0 35 30 35t30 -35q0 -29 -11 -106l-8 -75l68 9q82 11 98 11q35 0 35 -30q0 -31 -35 -31q-15 0 -98 11l-69 9q15 -105 15 -157t-15 -157z" />
    <glyph glyph-name="bullet" unicode="&#x2022;" horiz-adv-x="302" 
d="M151 234q-35 0 -61 25t-26 63q0 39 25.5 63.5t61.5 24.5t61 -24.5t25 -63.5q0 -38 -25.5 -63t-60.5 -25z" />
    <glyph glyph-name="ellipsis" unicode="&#x2026;" horiz-adv-x="900" 
d="M150 -12q-20 0 -33.5 14t-13.5 32q0 20 13.5 33.5t33.5 13.5t33.5 -13.5t13.5 -33.5q0 -18 -13.5 -32t-33.5 -14zM450 -12q-20 0 -33.5 14t-13.5 32q0 20 13.5 33.5t33.5 13.5t33.5 -13.5t13.5 -33.5q0 -18 -13.5 -32t-33.5 -14zM750 -12q-20 0 -33.5 14t-13.5 32
q0 20 13.5 33.5t33.5 13.5t33.5 -13.5t13.5 -33.5q0 -18 -13.5 -32t-33.5 -14z" />
    <glyph glyph-name="perthousand" unicode="&#x2030;" horiz-adv-x="1195" 
d="M207 -23l-22 16l473 680l22 -17zM126 457q0 -180 84 -180q36 0 59.5 41.5t23.5 138.5q0 98 -23.5 139.5t-59.5 41.5q-84 0 -84 -181zM210 663q55 0 92.5 -51t37.5 -155q0 -103 -37.5 -153.5t-92.5 -50.5q-56 0 -94 50.5t-38 153.5q0 104 38 155t94 51zM568 196
q0 -180 84 -180q36 0 59.5 41.5t23.5 138.5q0 98 -23.5 139.5t-59.5 41.5q-84 0 -84 -181zM652 402q55 0 92.5 -51t37.5 -155q0 -103 -37.5 -153.5t-92.5 -50.5q-56 0 -94 50.5t-38 153.5q0 104 38 155t94 51zM913 196q0 -180 84 -180q36 0 59.5 41.5t23.5 138.5
q0 98 -23.5 139.5t-59.5 41.5q-84 0 -84 -181zM997 402q55 0 92.5 -51t37.5 -155q0 -103 -37.5 -153.5t-92.5 -50.5q-56 0 -94 50.5t-38 153.5q0 104 38 155t94 51z" />
    <glyph glyph-name="uni2032" unicode="&#x2032;" horiz-adv-x="237" 
d="M122 743q29 0 29 -33q0 -31 -29 -149l-24 -107h-23l13 275q16 14 34 14z" />
    <glyph glyph-name="uni2033" unicode="&#x2033;" horiz-adv-x="386" 
d="M122 743q29 0 29 -33q0 -31 -29 -149l-24 -107h-23l13 275q16 14 34 14zM272 743q29 0 29 -33q0 -31 -29 -149l-24 -107h-23l13 275q16 14 34 14z" />
    <glyph glyph-name="guilsinglleft" unicode="&#x2039;" horiz-adv-x="283" 
d="M255 437l-175 -184l175 -185l-17 -19l-214 188v31l214 188z" />
    <glyph glyph-name="guilsinglright" unicode="&#x203a;" horiz-adv-x="283" 
d="M45 456l214 -188v-31l-214 -188l-17 19l175 185l-175 184z" />
    <glyph glyph-name="fraction" unicode="&#x2044;" horiz-adv-x="140" 
d="M-156 -23l-22 16l473 680l22 -17z" />
    <glyph glyph-name="zero.sups" unicode="&#x2070;" 
d="M93 629q0 -180 84 -180q36 0 59.5 41.5t23.5 138.5q0 98 -23.5 139.5t-59.5 41.5q-84 0 -84 -181zM177 835q55 0 92.5 -51t37.5 -155q0 -103 -37.5 -153.5t-92.5 -50.5q-56 0 -94 50.5t-38 153.5q0 104 38 155t94 51z" />
    <glyph glyph-name="i.sups" unicode="&#x2071;" horiz-adv-x="197" 
d="M100 836q-14 0 -24 10t-10 25t9.5 24.5t24.5 9.5t25 -9.5t10 -24.5q0 -16 -10 -25.5t-25 -9.5zM123 462l51 -8v-21h-148v21l55 8v238l-58 4v21l92 27l8 -6v-284z" />
    <glyph glyph-name="four.sups" unicode="&#x2074;" 
d="M65 586h145v195zM323 586v-37h-71v-116h-42v116h-178v31l191 253h29v-247h71z" />
    <glyph glyph-name="five.sups" unicode="&#x2075;" 
d="M111 780l-8 -110q31 10 67 10q62 0 99.5 -33t37.5 -92t-40 -95t-105 -36q-48 0 -79.5 21t-39.5 59q4 22 25 22q20 0 28 -34l12 -36q26 -8 50 -8q48 0 75 27.5t27 74.5q0 48 -26 73t-75 25q-37 0 -68 -11l-16 7l14 183h206v-47h-184z" />
    <glyph glyph-name="six.sups" unicode="&#x2076;" 
d="M186 448q36 0 59 26.5t23 73.5q0 95 -82 95q-49 0 -89 -37q0 -158 89 -158zM293 837l4 -19q-90 -18 -140.5 -68.5t-58.5 -118.5q42 43 99 43q53 0 84.5 -32t31.5 -87q0 -61 -36 -96t-92 -35q-63 0 -99 45t-36 121q0 93 65.5 164.5t177.5 82.5z" />
    <glyph glyph-name="seven.sups" unicode="&#x2077;" 
d="M48 827h254v-29l-155 -365h-42l-4 4l165 343h-218v47z" />
    <glyph glyph-name="eight.sups" unicode="&#x2078;" 
d="M178 448q40 0 64 21t24 53q0 27 -23 48.5t-81 47.5q-71 -38 -71 -95q0 -34 23.5 -54.5t63.5 -20.5zM104 745q0 -54 87 -92q60 37 60 88q0 31 -19 50.5t-53 19.5q-31 0 -53 -18t-22 -48zM212 643q97 -43 97 -114q0 -48 -36.5 -76.5t-95.5 -28.5t-93.5 25.5t-34.5 70.5
q0 66 92 107q-77 41 -77 108q0 46 33.5 73.5t83.5 27.5q49 0 79 -26.5t30 -67.5q0 -58 -78 -99z" />
    <glyph glyph-name="nine.sups" unicode="&#x2079;" 
d="M184 621q45 0 76 30q1 7 1 20q0 68 -23.5 104t-63.5 36q-35 0 -58.5 -25t-23.5 -71t25.5 -70t66.5 -24zM81 423l-6 21q157 50 182 177q-34 -31 -86 -31q-55 0 -90 33t-35 88q0 54 37.5 89.5t92.5 35.5q60 0 96.5 -44.5t36.5 -120.5q0 -91 -59.5 -157.5t-168.5 -90.5z" />
    <glyph glyph-name="parenleft.sups" unicode="&#x207d;" horiz-adv-x="247" 
d="M109 602q0 -73 23 -135.5t79 -139.5l-14 -13q-130 124 -130 288q0 163 130 289l14 -13q-56 -78 -79 -140.5t-23 -135.5z" />
    <glyph glyph-name="parenright.sups" unicode="&#x207e;" horiz-adv-x="247" 
d="M137 602q0 74 -22.5 136t-78.5 140l14 13q130 -126 130 -289q0 -164 -130 -288l-14 13q56 77 78.5 139.5t22.5 135.5z" />
    <glyph glyph-name="n.sups" unicode="&#x207f;" horiz-adv-x="405" 
d="M334 462l50 -8v-21h-147v21l55 8v171q0 84 -59 84q-49 0 -108 -55v-200l51 -8v-21h-147v21l54 8v238l-58 4v21l86 27l8 -6l5 -60q56 69 125 69q85 0 85 -115v-178z" />
    <glyph glyph-name="zero.subs" unicode="&#x2080;" 
d="M93 -12q0 -180 84 -180q36 0 59.5 41.5t23.5 138.5q0 98 -23.5 139.5t-59.5 41.5q-84 0 -84 -181zM177 194q55 0 92.5 -51t37.5 -155q0 -103 -37.5 -153.5t-92.5 -50.5q-56 0 -94 50.5t-38 153.5q0 104 38 155t94 51z" />
    <glyph glyph-name="one.subs" unicode="&#x2081;" 
d="M209 -176l93 -11v-21h-234v21l97 11v324l-88 -11v26l123 31l9 -7v-363z" />
    <glyph glyph-name="two.subs" unicode="&#x2082;" 
d="M97 -163h215v-45h-260v34l113 113q80 81 80 148q0 38 -22 60.5t-62 22.5q-19 0 -42 -6l-15 -40q-9 -35 -29 -35q-16 0 -26 17q9 43 44 66t83 23q57 0 87 -29t30 -75q0 -37 -22.5 -72.5t-79.5 -92.5z" />
    <glyph glyph-name="three.subs" unicode="&#x2083;" 
d="M121 164l-10 -36q-7 -31 -29 -31q-18 0 -24 17q9 40 41 60.5t76 20.5q52 0 84.5 -26.5t32.5 -70.5q0 -35 -22.5 -61.5t-60.5 -36.5q47 -7 72.5 -34.5t25.5 -68.5q0 -53 -39.5 -83.5t-97.5 -30.5q-104 0 -124 82q5 19 25 19t28 -33l12 -37q21 -7 48 -7q48 0 74.5 24.5
t26.5 66.5q0 87 -107 87h-29v28h26q44 0 70 21.5t26 59.5q0 36 -21.5 56t-59.5 20q-20 0 -44 -6z" />
    <glyph glyph-name="four.subs" unicode="&#x2084;" 
d="M65 -55h145v195zM323 -55v-37h-71v-116h-42v116h-178v31l191 253h29v-247h71z" />
    <glyph glyph-name="five.subs" unicode="&#x2085;" 
d="M111 139l-8 -110q31 10 67 10q62 0 99.5 -33t37.5 -92t-40 -95t-105 -36q-48 0 -79.5 21t-39.5 59q4 22 25 22q20 0 28 -34l12 -36q26 -8 50 -8q48 0 75 27.5t27 74.5q0 48 -26 73t-75 25q-37 0 -68 -11l-16 7l14 183h206v-47h-184z" />
    <glyph glyph-name="six.subs" unicode="&#x2086;" 
d="M186 -193q36 0 59 26.5t23 73.5q0 95 -82 95q-49 0 -89 -37q0 -158 89 -158zM293 196l4 -19q-90 -18 -140.5 -68.5t-58.5 -118.5q42 43 99 43q53 0 84.5 -32t31.5 -87q0 -61 -36 -96t-92 -35q-63 0 -99 45t-36 121q0 93 65.5 164.5t177.5 82.5z" />
    <glyph glyph-name="seven.subs" unicode="&#x2087;" 
d="M48 186h254v-29l-155 -365h-42l-4 4l165 343h-218v47z" />
    <glyph glyph-name="eight.subs" unicode="&#x2088;" 
d="M178 -193q40 0 64 21t24 53q0 27 -23 48.5t-81 47.5q-71 -38 -71 -95q0 -34 23.5 -54.5t63.5 -20.5zM104 104q0 -54 87 -92q60 37 60 88q0 31 -19 50.5t-53 19.5q-31 0 -53 -18t-22 -48zM212 2q97 -43 97 -114q0 -48 -36.5 -76.5t-95.5 -28.5t-93.5 25.5t-34.5 70.5
q0 66 92 107q-77 41 -77 108q0 46 33.5 73.5t83.5 27.5q49 0 79 -26.5t30 -67.5q0 -58 -78 -99z" />
    <glyph glyph-name="nine.subs" unicode="&#x2089;" 
d="M184 -20q45 0 76 30q1 7 1 20q0 68 -23.5 104t-63.5 36q-35 0 -58.5 -25t-23.5 -71t25.5 -70t66.5 -24zM81 -218l-6 21q157 50 182 177q-34 -31 -86 -31q-55 0 -90 33t-35 88q0 54 37.5 89.5t92.5 35.5q60 0 96.5 -44.5t36.5 -120.5q0 -91 -59.5 -157.5t-168.5 -90.5z
" />
    <glyph glyph-name="parenleft.subs" unicode="&#x208d;" horiz-adv-x="247" 
d="M109 -39q0 -73 23 -135.5t79 -139.5l-14 -13q-130 124 -130 288q0 163 130 289l14 -13q-56 -78 -79 -140.5t-23 -135.5z" />
    <glyph glyph-name="parenright.subs" unicode="&#x208e;" horiz-adv-x="247" 
d="M137 -39q0 74 -22.5 136t-78.5 140l14 13q130 -126 130 -289q0 -164 -130 -288l-14 13q56 77 78.5 139.5t22.5 135.5z" />
    <glyph glyph-name="Euro" unicode="&#x20ac;" horiz-adv-x="493" 
d="M376 28l26 61q12 39 39 39q24 0 30 -22q-19 -56 -63 -88.5t-106 -32.5q-94 0 -155 68.5t-77 190.5h-59v35h56q-2 30 -2 46q0 22 1 33h-55v35h58q14 126 78 198.5t158 72.5q63 0 106 -32.5t62 -88.5q-8 -23 -32 -23t-38 40l-26 63q-29 11 -66 11q-73 0 -124 -62t-63 -179
h256v-35h-258q-1 -11 -1 -33q0 -31 1 -46h258v-35h-254q13 -111 62.5 -170t122.5 -59q34 0 65 13z" />
    <glyph glyph-name="uni20B9" unicode="&#x20b9;" horiz-adv-x="493" 
d="M331 34l94 -7v-27q-26 -7 -67 -7q-39 0 -57 10.5t-27 36.5l-59 173q-20 61 -44 77t-76 16h-30v35h71q76 0 116 38t41 103h-228v34h225q-10 46 -48.5 73t-101.5 27h-75v34h359v-34h-155q64 -33 77 -100h78v-34h-75q-1 -65 -42 -110t-121 -57q30 -9 46.5 -30.5t36.5 -75.5z
" />
    <glyph glyph-name="uni20BA" unicode="&#x20ba;" horiz-adv-x="493" 
d="M416 114l-4 35l-3 48q1 40 34 40q21 0 27 -18q0 -110 -71 -172t-177 -62q-57 0 -99 15q3 104 3 269l-99 -53v37l99 54v85l-99 -53v37l99 53q0 66 -2 184l-97 8v28h250v-28l-100 -8q-2 -110 -2 -160l172 93v-38l-172 -92v-85l172 93v-38l-172 -93v-274q21 -4 53 -4
q124 0 188 99z" />
    <glyph glyph-name="uni2113" unicode="&#x2113;" horiz-adv-x="440" 
d="M259 725q-53 0 -86 -82t-33 -266q0 -116 14 -194q182 201 182 411q0 131 -77 131zM405 83l16 -21q-68 -77 -150 -77q-100 0 -147 123q-31 -30 -82 -72l-18 23q53 45 90 82q-25 91 -25 229q0 200 47.5 292.5t125.5 92.5q57 0 89 -43.5t32 -119.5q0 -222 -221 -447
q33 -124 117 -124q64 0 126 62z" />
    <glyph glyph-name="uni2117" unicode="&#x2117;" horiz-adv-x="758" 
d="M353 322h27q121 0 121 98q0 93 -99 93h-49v-191zM250 539h158q67 0 102.5 -32t35.5 -88q0 -55 -41.5 -88.5t-123.5 -33.5h-28v-128l64 -6v-24h-167v24l61 6v341l-61 5v24zM379 14q135 0 224.5 89.5t89.5 235.5t-89 233.5t-225 87.5t-224.5 -87.5t-88.5 -233.5
q0 -148 88.5 -236.5t224.5 -88.5zM379 689q149 0 249 -95.5t100 -254.5q0 -160 -100.5 -257t-248.5 -97t-248.5 97t-100.5 257q0 159 100.5 254.5t248.5 95.5z" />
    <glyph glyph-name="uni2120" unicode="&#x2120;" horiz-adv-x="678" 
d="M137 553l19 -9q47 -21 64.5 -39t17.5 -47q0 -38 -29.5 -62t-77.5 -24q-50 0 -86 24l3 64h25l8 -56q25 -11 50 -11q32 0 49.5 14t17.5 37q0 18 -12 30.5t-42 26.5l-21 9q-38 18 -56 37.5t-18 49.5q0 37 27.5 60.5t69.5 23.5t76 -24l-3 -59h-26l-8 54q-16 8 -38 8
q-27 0 -43.5 -13t-16.5 -35q0 -36 50 -59zM634 653l-40 -4v-244l40 -4v-21h-121v21l39 4v209l-102 -234h-14l-102 236v-210l39 -5v-21h-100v21l40 5v242l-39 5v21h77l103 -230l103 230h77v-21z" />
    <glyph glyph-name="trademark" unicode="&#x2122;" horiz-adv-x="714" 
d="M265 674l3 -80h-24l-8 56h-73v-244l45 -5v-21h-132v21l46 5v244h-73l-8 -56h-23l2 80h245zM667 653l-41 -4v-244l41 -4v-21h-122v21l39 4v207l-102 -232h-13l-102 234v-208l39 -5v-21h-100v21l39 5v242l-39 5v21h77l103 -229l103 229h78v-21z" />
    <glyph glyph-name="uni2126" unicode="&#x2126;" horiz-adv-x="751" 
d="M704 171h38l-14 -171h-306v36q89 69 136 167t47 210q0 117 -63 180t-166 63t-166.5 -63t-63.5 -180q0 -111 47.5 -209t135.5 -168v-36h-306l-14 171h39l22 -123h198v2q-83 69 -132 163t-49 196q0 73 25.5 129t68.5 88t92 47.5t103 15.5t103 -15.5t92 -47t68.5 -87.5
t25.5 -129q0 -103 -49 -197t-132 -163v-2h197z" />
    <glyph glyph-name="estimated" unicode="&#x212e;" horiz-adv-x="800" 
d="M176 312v-184q0 -8 8 -20q87 -100 218 -100q66 0 125.5 30t102.5 82h52q-51 -61 -124.5 -96.5t-157.5 -35.5q-147 0 -250.5 98t-103.5 238t103.5 238t250.5 98t250.5 -98t103.5 -238v-8h-574q-4 0 -4 -4zM180 334h440q6 0 6 6v184q0 12 -10 22q-91 94 -214 94
q-127 0 -218 -98q-8 -12 -8 -22v-180q0 -6 4 -6z" />
    <glyph glyph-name="onethird" unicode="&#x2153;" horiz-adv-x="860" 
d="M308 261h-234v21l97 11v324l-88 -11v26l123 31l9 -7v-363l93 -11v-21zM654 673l22 -17l-473 -679l-22 16zM585 372l-10 -36q-7 -31 -29 -31q-18 0 -24 17q9 40 41 60.5t76 20.5q52 0 84.5 -26.5t32.5 -70.5q0 -35 -22.5 -61.5t-60.5 -36.5q47 -7 72.5 -34.5t25.5 -68.5
q0 -53 -39.5 -83.5t-97.5 -30.5q-104 0 -124 82q5 19 25 19t28 -33l12 -37q21 -7 48 -7q48 0 74.5 24.5t26.5 66.5q0 87 -107 87h-29v28h26q44 0 70 21.5t26 59.5q0 36 -21.5 56t-59.5 20q-20 0 -44 -6z" />
    <glyph glyph-name="twothirds" unicode="&#x2154;" horiz-adv-x="860" 
d="M71 295l113 113q80 81 80 148q0 38 -22 60.5t-62 22.5q-20 0 -42 -6l-15 -40q-9 -35 -29 -35q-16 0 -26 17q9 43 44 66t83 23q57 0 87 -29t30 -75q0 -37 -22.5 -72.5t-79.5 -92.5l-94 -89h215v-45h-260v34zM672 673l22 -17l-473 -679l-22 16zM603 372l-10 -36
q-7 -31 -29 -31q-18 0 -24 17q9 40 41 60.5t76 20.5q52 0 84.5 -26.5t32.5 -70.5q0 -35 -22.5 -61.5t-60.5 -36.5q47 -7 72.5 -34.5t25.5 -68.5q0 -53 -39.5 -83.5t-97.5 -30.5q-104 0 -124 82q5 19 25 19t28 -33l12 -37q21 -7 48 -7q48 0 74.5 24.5t26.5 66.5q0 87 -107 87
h-29v28h26q44 0 70 21.5t26 59.5q0 36 -21.5 56t-59.5 20q-20 0 -44 -6z" />
    <glyph glyph-name="oneeighth" unicode="&#x215b;" horiz-adv-x="860" 
d="M307 261h-234v21l97 11v324l-88 -11v26l123 31l9 -7v-363l93 -11v-21zM653 673l22 -17l-473 -679l-22 16zM643 15q40 0 64 21t24 53q0 27 -23 48.5t-81 47.5q-71 -38 -71 -95q0 -34 23.5 -54.5t63.5 -20.5zM569 312q0 -54 87 -92q60 37 60 88q0 31 -19 50.5t-53 19.5
q-31 0 -53 -18t-22 -48zM677 210q97 -43 97 -114q0 -48 -36.5 -76.5t-95.5 -28.5t-93.5 25.5t-34.5 70.5q0 66 92 107q-77 41 -77 108q0 46 33.5 73.5t83.5 27.5q49 0 79 -26.5t30 -67.5q0 -58 -78 -99z" />
    <glyph glyph-name="threeeighths" unicode="&#x215c;" horiz-adv-x="860" 
d="M145 633l-10 -36q-7 -31 -29 -31q-18 0 -24 17q9 40 41 60.5t76 20.5q52 0 84.5 -26.5t32.5 -70.5q0 -35 -22.5 -61.5t-60.5 -36.5q47 -7 72.5 -34.5t25.5 -68.5q0 -53 -39.5 -83.5t-97.5 -30.5q-104 0 -124 82q5 19 25 19t28 -33l12 -37q21 -7 48 -7q48 0 74.5 24.5
t26.5 66.5q0 87 -107 87h-29v28h26q44 0 70 21.5t26 59.5q0 36 -21.5 56t-59.5 20q-20 0 -44 -6zM673 673l22 -17l-473 -679l-22 16zM663 15q40 0 64 21t24 53q0 27 -23 48.5t-81 47.5q-71 -38 -71 -95q0 -34 23.5 -54.5t63.5 -20.5zM589 312q0 -54 87 -92q60 37 60 88
q0 31 -19 50.5t-53 19.5q-31 0 -53 -18t-22 -48zM697 210q97 -43 97 -114q0 -48 -36.5 -76.5t-95.5 -28.5t-93.5 25.5t-34.5 70.5q0 66 92 107q-77 41 -77 108q0 46 33.5 73.5t83.5 27.5q49 0 79 -26.5t30 -67.5q0 -58 -78 -99z" />
    <glyph glyph-name="fiveeighths" unicode="&#x215d;" horiz-adv-x="860" 
d="M135 608l-8 -110q31 10 67 10q62 0 99.5 -33t37.5 -92t-40 -95t-105 -36q-48 0 -79.5 21t-39.5 59q4 22 25 22q20 0 28 -34l12 -36q26 -8 50 -8q48 0 75 27.5t27 74.5q0 48 -26 73t-75 25q-37 0 -68 -11l-16 7l14 183h206v-47h-184zM667 673l22 -17l-473 -679l-22 16z
M660 15q40 0 64 21t24 53q0 27 -23 48.5t-81 47.5q-71 -38 -71 -95q0 -34 23.5 -54.5t63.5 -20.5zM586 312q0 -54 87 -92q60 37 60 88q0 31 -19 50.5t-53 19.5q-31 0 -53 -18t-22 -48zM694 210q97 -43 97 -114q0 -48 -36.5 -76.5t-95.5 -28.5t-93.5 25.5t-34.5 70.5
q0 66 92 107q-77 41 -77 108q0 46 33.5 73.5t83.5 27.5q49 0 79 -26.5t30 -67.5q0 -58 -78 -99z" />
    <glyph glyph-name="seveneighths" unicode="&#x215e;" horiz-adv-x="860" 
d="M345 626l-155 -365h-42l-4 4l165 343h-218v47h254v-29zM629 673l22 -17l-473 -679l-22 16zM639 15q40 0 64 21t24 53q0 27 -23 48.5t-81 47.5q-71 -38 -71 -95q0 -34 23.5 -54.5t63.5 -20.5zM565 312q0 -54 87 -92q60 37 60 88q0 31 -19 50.5t-53 19.5q-31 0 -53 -18
t-22 -48zM673 210q97 -43 97 -114q0 -48 -36.5 -76.5t-95.5 -28.5t-93.5 25.5t-34.5 70.5q0 66 92 107q-77 41 -77 108q0 46 33.5 73.5t83.5 27.5q49 0 79 -26.5t30 -67.5q0 -58 -78 -99z" />
    <glyph glyph-name="uni2190" unicode="&#x2190;" horiz-adv-x="624" 
d="M335 573l17 -18l-265 -265l409 9h109v-44h-109l-410 9l266 -265l-17 -18l-316 290v12z" />
    <glyph glyph-name="arrowup" unicode="&#x2191;" horiz-adv-x="624" 
d="M608 254l-18 -17l-264 265l9 -409v-109h-44v109l9 410l-265 -266l-18 17l289 316h13z" />
    <glyph glyph-name="uni2192" unicode="&#x2192;" horiz-adv-x="624" 
d="M290 -19l-18 18l266 265l-410 -10h-109v44h109l410 -9l-266 265l18 19l315 -290v-13z" />
    <glyph glyph-name="arrowdown" unicode="&#x2193;" horiz-adv-x="624" 
d="M17 300l18 17l265 -265l-10 409v109h44v-109l-9 -410l265 266l18 -17l-289 -316h-13z" />
    <glyph glyph-name="uni2196" unicode="&#x2196;" horiz-adv-x="624" 
d="M538 470l-1 -25h-375l296 -283l77 -76l-31 -31l-77 77l-283 296v-376l-25 -1l-18 428l9 10z" />
    <glyph glyph-name="uni2197" unicode="&#x2197;" horiz-adv-x="624" 
d="M505 51l-24 1v375l-283 -296l-77 -77l-31 31l77 77l296 283h-375l-1 25l428 18l9 -9z" />
    <glyph glyph-name="uni2198" unicode="&#x2198;" horiz-adv-x="624" 
d="M87 84v25l375 -1l-296 283l-77 77l32 31l77 -77l283 -296l-1 375l25 1l19 -428l-9 -9z" />
    <glyph glyph-name="uni2199" unicode="&#x2199;" horiz-adv-x="624" 
d="M119 502l25 -1v-375l283 296l77 77l31 -31l-78 -76l-296 -284l376 1l1 -25l-429 -19l-8 10z" />
    <glyph glyph-name="partialdiff" unicode="&#x2202;" horiz-adv-x="523" 
d="M237 15q70 0 122 76.5t63 210.5q-64 68 -146 68q-72 0 -121.5 -50.5t-49.5 -143.5q0 -74 36.5 -117.5t95.5 -43.5zM165 587l-15 18q58 59 145 59q91 0 137.5 -74.5t46.5 -217.5q0 -175 -69.5 -281t-178.5 -106q-80 0 -131 52t-51 138q0 107 67.5 166t155.5 59
q89 0 152 -62v23q0 144 -34.5 208.5t-104.5 64.5q-62 0 -120 -47z" />
    <glyph glyph-name="uni2206" unicode="&#x2206;" horiz-adv-x="545" 
d="M55 32h411l-209 572zM286 674l241 -648v-26h-509v26l231 648h37z" />
    <glyph glyph-name="product" unicode="&#x220f;" horiz-adv-x="771" 
d="M726 646l-102 -8q-2 -90 -2 -274v-184q0 -183 2 -274l102 -8v-28h-261v28l101 8q2 91 2 274v184q0 185 -2 276h-360q-2 -90 -2 -276v-184q0 -183 2 -274l102 -8v-28h-261v28l101 8q2 91 2 274v184q0 183 -2 274l-102 8v28h680v-28z" />
    <glyph glyph-name="summation" unicode="&#x2211;" horiz-adv-x="555" 
d="M487 51h37l-9 -181h-496v36l258 365l-246 373v30h470l8 -169h-37l-23 136h-349l232 -356l-260 -367h391z" />
    <glyph glyph-name="minus" unicode="&#x2212;" horiz-adv-x="530" 
d="M494 314h-458v39h458v-39z" />
    <glyph glyph-name="uni2215" unicode="&#x2215;" horiz-adv-x="140" 
d="M-156 -23l-22 16l473 680l22 -17z" />
    <glyph glyph-name="uni2219" unicode="&#x2219;" horiz-adv-x="300" 
d="M150 287q-20 0 -33.5 14t-13.5 32q0 20 13.5 33.5t33.5 13.5t33.5 -13.5t13.5 -33.5q0 -18 -13.5 -32t-33.5 -14z" />
    <glyph glyph-name="radical" unicode="&#x221a;" horiz-adv-x="542" 
d="M483 791h49l-213 -887h-27l-153 412h-97v35h132l136 -371z" />
    <glyph glyph-name="infinity" unicode="&#x221e;" horiz-adv-x="782" 
d="M590 219q50 0 83 32.5t33 81.5q0 50 -34 84.5t-89 34.5q-46 0 -84.5 -24t-83.5 -82q47 -61 87.5 -94t87.5 -33zM199 211q47 0 85.5 24t83.5 82q-47 61 -88 94.5t-87 33.5q-50 0 -83.5 -32.5t-33.5 -81.5q0 -51 34.5 -85.5t88.5 -34.5zM587 492q65 0 109 -42.5t44 -114.5
q0 -74 -45.5 -119t-113.5 -45q-55 0 -102 32.5t-96 94.5q-82 -126 -187 -126q-66 0 -110 42t-44 114q0 74 45.5 119t113.5 45q56 0 103 -32t96 -94q83 126 187 126z" />
    <glyph glyph-name="integral" unicode="&#x222b;" horiz-adv-x="337" 
d="M25 -147l17 -13q37 12 63 46q42 56 44 168q0 97 -6 232q-7 144 -7 211q0 147 73 225q47 50 114 50q61 0 94 -40q-4 -32 -36 -32q-27 0 -71 30l-18 13q-36 -14 -58 -43q-47 -61 -48 -169q0 -116 6 -235q6 -123 6 -208q0 -152 -68 -225q-51 -51 -118 -51q-60 0 -92 41
q6 31 36 31q27 0 69 -31z" />
    <glyph glyph-name="approxequal" unicode="&#x2248;" horiz-adv-x="530" 
d="M282 228q41 -40 84 -40q63 0 75 87l34 -5q-4 -56 -33 -88.5t-79 -32.5q-55 0 -111 53q-42 42 -84 42q-65 0 -77 -88l-33 6q4 56 33 88t79 32q53 0 112 -54zM282 456q41 -40 84 -40q63 0 75 87l34 -5q-4 -56 -33 -88.5t-79 -32.5q-55 0 -111 53q-42 42 -84 42
q-65 0 -77 -88l-33 6q4 56 33 88t79 32q53 0 112 -54z" />
    <glyph glyph-name="notequal" unicode="&#x2260;" horiz-adv-x="530" 
d="M494 414h-172l-92 -161h264v-39h-286l-88 -153l-25 13l80 140h-139v39h162l92 161h-254v39h277l83 145l24 -13l-76 -132h150v-39z" />
    <glyph glyph-name="lessequal" unicode="&#x2264;" horiz-adv-x="530" 
d="M470 130l-19 -34l-402 209v30l402 207l19 -33l-371 -189zM36 38h458v-38h-458v38z" />
    <glyph glyph-name="greaterequal" unicode="&#x2265;" horiz-adv-x="530" 
d="M79 96l-19 34l371 190l-371 189l19 33l402 -207v-30zM36 38h458v-38h-458v38z" />
    <glyph glyph-name="uni25A0" unicode="&#x25a0;" horiz-adv-x="720" 
d="M55 0v600h610v-600h-610z" />
    <glyph glyph-name="triagup" unicode="&#x25b2;" horiz-adv-x="592" 
d="M44 60l247 428h10l247 -428l-5 -8h-494z" />
    <glyph glyph-name="uni25B3" unicode="&#x25b3;" horiz-adv-x="592" 
d="M44 60l247 428h10l247 -428l-5 -8h-494zM296 432l-201 -348h402z" />
    <glyph glyph-name="uni25B6" unicode="&#x25b6;" horiz-adv-x="592" 
d="M100 513l429 -247v-10l-429 -247l-8 5v494z" />
    <glyph glyph-name="uni25B7" unicode="&#x25b7;" horiz-adv-x="592" 
d="M100 513l429 -247v-10l-429 -247l-8 5v494zM472 261l-348 201v-402z" />
    <glyph glyph-name="triagdn" unicode="&#x25bc;" horiz-adv-x="592" 
d="M548 470l-247 -428h-10l-247 428l5 8h494z" />
    <glyph glyph-name="uni25BD" unicode="&#x25bd;" horiz-adv-x="592" 
d="M548 470l-247 -428h-10l-247 428l5 8h494zM296 98l201 348h-402z" />
    <glyph glyph-name="uni25C0" unicode="&#x25c0;" horiz-adv-x="592" 
d="M493 9l-429 247v10l429 247l7 -5v-494z" />
    <glyph glyph-name="uni25C1" unicode="&#x25c1;" horiz-adv-x="592" 
d="M493 9l-429 247v10l429 247l7 -5v-494zM121 261l347 -201v402z" />
    <glyph glyph-name="uni25C6" unicode="&#x25c6;" horiz-adv-x="748" 
d="M728 300l-354 -354l-354 354l354 354z" />
    <glyph glyph-name="uni25C9" unicode="&#x25c9;" horiz-adv-x="442" 
d="M221 132q-84 0 -140.5 57t-56.5 141t56.5 141t140.5 57q83 0 140 -57.5t57 -140.5t-57 -140.5t-140 -57.5zM221 160q70 0 118 49.5t48 120.5q0 72 -47.5 120.5t-118.5 48.5t-118.5 -48.5t-47.5 -120.5q0 -71 48 -120.5t118 -49.5zM221 277q-23 0 -38.5 15.5t-15.5 37.5
q0 23 15.5 38t38.5 15t38 -15t15 -38q0 -22 -15 -37.5t-38 -15.5z" />
    <glyph glyph-name="lozenge" unicode="&#x25ca;" horiz-adv-x="568" 
d="M446 324l-162 318l-162 -318l162 -320zM483 324l-194 -379h-10l-194 379l194 377h10z" />
    <glyph glyph-name="uni2610" unicode="&#x2610;" horiz-adv-x="800" 
d="M87 -7h626v614h-626v-614zM55 -37v674h690v-674h-690z" />
    <glyph glyph-name="uni2611" unicode="&#x2611;" horiz-adv-x="800" 
d="M713 -7v614h-95q-113 -253 -213 -544h-28q-72 184 -161 353l41 24q83 -162 135 -302q78 217 194 469h-499v-614h626zM631 637h114v-674h-690v674h545q62 132 112 230l23 -12q-63 -125 -104 -218z" />
    <glyph glyph-name="musicalnote" unicode="&#x266a;" horiz-adv-x="501" 
d="M237 755h22q8 -42 30.5 -70.5t94.5 -93.5q72 -64 72 -153q0 -95 -68 -183l-13 9q32 59 32 126q0 48 -16 84t-55 72q-8 7 -32 29t-39 37v-484q0 -69 -34.5 -106t-96.5 -37q-85 0 -85 64q0 37 33.5 61.5t84.5 24.5q39 0 70 -15v635z" />
    <glyph glyph-name="uni2713" unicode="&#x2713;" horiz-adv-x="578" 
d="M541 804l23 -12q-184 -367 -330 -792h-28q-72 184 -161 353l41 24q83 -162 135 -302q124 342 320 729z" />
    <glyph glyph-name="uni2752" unicode="&#x2752;" horiz-adv-x="848" 
d="M88 0h610v600h-610v-600zM58 -29v644l116 71h616v-594l-76 -121h-656z" />
    <glyph glyph-name="i.trk" horiz-adv-x="301" 
d="M149 627q-19 0 -32.5 12t-13.5 32t13.5 32.5t32.5 12.5t32.5 -12.5t13.5 -32.5t-13.5 -32t-32.5 -12zM180 36l77 -10v-26h-214v26l84 10q2 102 2 174v47q0 93 -3 162l-88 4v26l131 32l12 -8l-3 -124v-139q0 -72 2 -174z" />
    <glyph glyph-name="zero.slash" horiz-adv-x="493" 
d="M347 562l-183 -502q34 -45 83 -45q60 0 101 73.5t41 235.5q0 156 -42 238zM146 87l184 502q-34 45 -83 45q-61 0 -102 -74t-41 -236q0 -156 42 -237zM247 664q84 0 141 -84.5t57 -255.5t-57 -255t-141 -84t-141 84t-57 255t57 255.5t141 84.5z" />
    <glyph glyph-name="zero.lf" horiz-adv-x="500" 
d="M102 324q0 -163 41.5 -236t106.5 -73t106.5 73t41.5 236t-41.5 236.5t-106.5 73.5t-106.5 -73t-41.5 -237zM250 664q89 0 147 -84t58 -256t-58 -255.5t-147 -83.5t-147 83.5t-58 255.5t58 256t147 84z" />
    <glyph glyph-name="one.lf" horiz-adv-x="443" 
d="M268 38l127 -12v-26h-316v26l136 12q2 116 2 174v397l-143 -25v28l182 50l14 -11l-4 -145v-294q0 -58 2 -174z" />
    <glyph glyph-name="two.lf" horiz-adv-x="503" 
d="M107 49h353v-49h-399v39l192 217q64 71 92.5 125.5t28.5 108.5q0 63 -37 103.5t-101 40.5q-38 0 -79 -16l-28 -66q-13 -40 -38 -40q-21 0 -32 21q18 62 69.5 96.5t119.5 34.5q86 0 133 -46t47 -125q0 -57 -32 -113t-107 -133z" />
    <glyph glyph-name="three.lf" horiz-adv-x="500" 
d="M152 620l-21 -62q-7 -21 -15 -29t-23 -8q-24 0 -31 24q16 60 64.5 89.5t113.5 29.5q81 0 129.5 -44t48.5 -115q0 -57 -37.5 -101t-103.5 -62q79 -11 120.5 -55.5t41.5 -114.5q0 -83 -59 -135t-151 -52q-71 0 -118.5 30.5t-65.5 90.5q8 25 33 25q23 0 36 -39l22 -61
q40 -16 84 -16q79 0 122 42.5t43 114.5q0 74 -44 113.5t-132 39.5h-45v33h40q72 0 116.5 39t44.5 107q0 61 -35 95.5t-98 34.5q-42 0 -80 -14z" />
    <glyph glyph-name="four.lf" horiz-adv-x="498" 
d="M72 250h245v341zM480 250v-40h-114v-210h-49v210h-285v32l301 418h33v-410h114z" />
    <glyph glyph-name="five.lf" horiz-adv-x="502" 
d="M144 600l-14 -215q51 20 110 20q95 0 151.5 -54.5t56.5 -149.5q0 -94 -61 -155t-164 -61q-70 0 -116.5 31t-62.5 91q8 23 32 23q14 0 21.5 -8t14.5 -29l23 -63q37 -15 83 -15q84 0 130.5 48.5t46.5 130.5q0 86 -44.5 130.5t-121.5 44.5q-67 0 -113 -23l-22 3l21 300h317
v-49h-288z" />
    <glyph glyph-name="six.lf" horiz-adv-x="503" 
d="M263 15q60 0 99.5 48t39.5 128q0 82 -36 124.5t-100 42.5q-86 0 -153 -75q-1 -8 -1 -23q0 -113 39.5 -179t111.5 -66zM437 664l5 -22q-145 -30 -228.5 -115.5t-98.5 -211.5q69 80 162 80q82 0 130.5 -53t48.5 -144q0 -94 -56 -153.5t-139 -59.5q-95 0 -149 73t-54 196
q0 155 102.5 271t276.5 139z" />
    <glyph glyph-name="seven.lf" horiz-adv-x="490" 
d="M47 649h392v-32l-246 -617h-49l-6 6l260 594h-351v49z" />
    <glyph glyph-name="eight.lf" horiz-adv-x="503" 
d="M251 15q68 0 108 36t40 94q0 49 -37 88t-127 80q-70 -37 -101 -75t-31 -91q0 -59 40 -95.5t108 -36.5zM124 513q0 -48 31 -87.5t106 -73.5q60 35 86 71t26 86q0 53 -32 89t-90 36q-52 0 -89.5 -33.5t-37.5 -87.5zM286 341q87 -40 125 -85t38 -108q0 -73 -55.5 -118
t-142.5 -45q-92 0 -144.5 42.5t-52.5 116.5q0 57 38.5 100t116.5 81q-132 66 -132 179q0 72 50.5 116t124.5 44q75 0 121 -42.5t46 -111.5q0 -104 -133 -169z" />
    <glyph glyph-name="nine.lf" horiz-adv-x="508" 
d="M261 299q79 0 135 63q1 11 1 32q0 113 -41.5 176.5t-106.5 63.5q-60 0 -100.5 -45t-40.5 -122q0 -78 43 -123t110 -45zM99 -17l-8 25q264 94 301 319q-56 -64 -145 -64q-84 0 -139 55.5t-54 146.5q1 88 57 143.5t141 55.5q89 0 144 -71t55 -191q0 -146 -89 -258
t-263 -161z" />
    <glyph glyph-name="zero.lfslash" horiz-adv-x="500" 
d="M353 567l-187 -512q34 -40 84 -40q65 0 106.5 73t41.5 236q0 161 -45 243zM148 81l187 512q-35 41 -85 41q-65 0 -106.5 -73t-41.5 -237t46 -243zM250 664q89 0 147 -84t58 -256t-58 -255.5t-147 -83.5t-147 83.5t-58 255.5t58 256t147 84z" />
    <glyph glyph-name="zero.tosf" horiz-adv-x="493" 
d="M247 544q89 0 150 -71.5t61 -208.5t-61 -208t-150 -71q-90 0 -151 71t-61 208t61 208.5t151 71.5zM91 264q0 -129 44 -189t112 -60q67 0 111.5 61t44.5 188q0 128 -44.5 188.5t-111.5 60.5q-68 0 -112 -59.5t-44 -189.5z" />
    <glyph glyph-name="one.tosf" horiz-adv-x="493" 
d="M283 38l147 -12v-26h-354v26l154 13q2 116 2 173v278l-151 -28v28l189 52l14 -12l-3 -144v-174q0 -56 2 -174z" />
    <glyph glyph-name="two.tosf" horiz-adv-x="493" 
d="M104 49h344v-49h-399v39l176 157q74 66 103.5 109t29.5 91q0 57 -32.5 87t-92.5 30q-46 0 -86 -15l-23 -73q-11 -40 -38 -40q-24 0 -33 25q14 67 65 100.5t122 33.5q85 0 128 -39t43 -108q0 -53 -33.5 -98.5t-122.5 -120.5z" />
    <glyph glyph-name="three.tosf" horiz-adv-x="493" 
d="M152 500l-21 -62q-7 -21 -15 -29t-23 -8q-24 0 -31 24q16 60 64.5 89.5t113.5 29.5q81 0 129.5 -44t48.5 -115q0 -57 -37.5 -101t-103.5 -62q79 -11 120.5 -55.5t41.5 -114.5q0 -83 -59 -135t-151 -52q-71 0 -118.5 30.5t-65.5 90.5q8 25 33 25q23 0 36 -39l22 -61
q40 -16 84 -16q79 0 122 42.5t43 114.5q0 74 -44 113.5t-132 39.5h-45v33h40q72 0 116.5 39t44.5 107q0 61 -35 95.5t-98 34.5q-42 0 -80 -14z" />
    <glyph glyph-name="four.tosf" horiz-adv-x="493" 
d="M64 120h245v341zM472 120v-40h-114v-210h-49v210h-285v32l301 418h33v-410h114z" />
    <glyph glyph-name="five.tosf" horiz-adv-x="493" 
d="M141 480l-14 -215q51 20 110 20q95 0 151.5 -54.5t56.5 -149.5q0 -94 -61 -155t-164 -61q-70 0 -116.5 31t-62.5 91q8 23 32 23q14 0 21.5 -8t14.5 -29l23 -63q38 -15 83 -15q84 0 130.5 48.5t46.5 130.5q0 86 -44.5 130.5t-121.5 44.5q-67 0 -113 -23l-22 3l21 300h317
v-49h-288z" />
    <glyph glyph-name="six.tosf" horiz-adv-x="493" 
d="M250 15q60 0 99.5 48t39.5 128q0 82 -36 124.5t-100 42.5q-86 0 -153 -75q-1 -8 -1 -23q0 -113 39.5 -179t111.5 -66zM424 664l5 -22q-145 -30 -228.5 -115.5t-98.5 -211.5q69 80 162 80q82 0 130.5 -53t48.5 -144q0 -94 -56 -153.5t-139 -59.5q-95 0 -149 73t-54 196
q0 155 102.5 271t276.5 139z" />
    <glyph glyph-name="seven.tosf" horiz-adv-x="493" 
d="M48 529h392v-32l-246 -617h-49l-6 6l260 594h-351v49z" />
    <glyph glyph-name="eight.tosf" horiz-adv-x="493" 
d="M246 15q68 0 108 36t40 94q0 49 -37 88t-127 80q-70 -37 -101 -75t-31 -91q0 -59 40 -95.5t108 -36.5zM119 513q0 -48 31 -87.5t106 -73.5q60 35 86 71t26 86q0 53 -32 89t-90 36q-52 0 -89.5 -33.5t-37.5 -87.5zM281 341q87 -40 125 -85t38 -108q0 -73 -55.5 -118
t-142.5 -45q-92 0 -144.5 42.5t-52.5 116.5q0 57 38.5 100t116.5 81q-132 66 -132 179q0 72 50.5 116t124.5 44q75 0 121 -42.5t46 -111.5q0 -104 -133 -169z" />
    <glyph glyph-name="nine.tosf" horiz-adv-x="493" 
d="M254 179q80 0 135 63q1 11 1 32q0 113 -41.5 176.5t-106.5 63.5q-60 0 -100.5 -45t-40.5 -122q0 -78 43 -123t110 -45zM92 -137l-8 25q264 94 301 319q-56 -64 -145 -64q-84 0 -139 55.5t-54 146.5q1 88 57 143.5t141 55.5q89 0 144 -71t55 -191q0 -146 -89 -258
t-263 -161z" />
    <glyph glyph-name="zero.osf" horiz-adv-x="542" 
d="M272 544q97 0 164.5 -71.5t67.5 -208.5q0 -136 -67.5 -207.5t-164.5 -71.5t-165 71.5t-68 207.5q0 137 68 208.5t165 71.5zM95 264q0 -128 52 -188.5t125 -60.5q72 0 124 61.5t52 187.5q0 127 -51.5 188t-124.5 61q-74 0 -125.5 -60.5t-51.5 -188.5z" />
    <glyph glyph-name="one.osf" horiz-adv-x="450" 
d="M272 38l127 -12v-26h-313v26l133 12q2 116 2 174v274l-147 -27v28l186 55l14 -12l-4 -144v-174q0 -58 2 -174z" />
    <glyph glyph-name="two.osf" horiz-adv-x="504" 
d="M113 49h344v-49h-399v39l176 157q74 66 103.5 109t29.5 91q0 57 -32.5 87t-92.5 30q-46 0 -86 -15l-23 -73q-11 -40 -38 -40q-24 0 -33 25q14 67 65 100.5t122 33.5q85 0 128 -39t43 -108q0 -53 -33.5 -98.5t-122.5 -120.5z" />
    <glyph glyph-name="three.osf" horiz-adv-x="500" 
d="M152 500l-21 -62q-7 -21 -15 -29t-23 -8q-24 0 -31 24q16 60 64.5 89.5t113.5 29.5q81 0 129.5 -44t48.5 -115q0 -57 -37.5 -101t-103.5 -62q79 -11 120.5 -55.5t41.5 -114.5q0 -83 -59 -135t-151 -52q-71 0 -118.5 30.5t-65.5 90.5q8 25 33 25q23 0 36 -39l22 -61
q40 -16 84 -16q79 0 122 42.5t43 114.5q0 74 -44 113.5t-132 39.5h-45v33h40q72 0 116.5 39t44.5 107q0 61 -35 95.5t-98 34.5q-42 0 -80 -14z" />
    <glyph glyph-name="four.osf" horiz-adv-x="498" 
d="M72 120h245v341zM480 120v-40h-114v-210h-49v210h-285v32l301 418h33v-410h114z" />
    <glyph glyph-name="five.osf" horiz-adv-x="502" 
d="M144 480l-14 -215q51 20 110 20q95 0 151.5 -54.5t56.5 -149.5q0 -94 -61 -155t-164 -61q-70 0 -116.5 31t-62.5 91q8 23 32 23q14 0 21.5 -8t14.5 -29l23 -63q37 -15 83 -15q84 0 130.5 48.5t46.5 130.5q0 86 -44.5 130.5t-121.5 44.5q-67 0 -113 -23l-22 3l21 300h317
v-49h-288z" />
    <glyph glyph-name="six.osf" horiz-adv-x="503" 
d="M263 15q60 0 99.5 48t39.5 128q0 82 -36 124.5t-100 42.5q-86 0 -153 -75q-1 -8 -1 -23q0 -113 39.5 -179t111.5 -66zM437 664l5 -22q-145 -30 -228.5 -115.5t-98.5 -211.5q69 80 162 80q82 0 130.5 -53t48.5 -144q0 -94 -56 -153.5t-139 -59.5q-95 0 -149 73t-54 196
q0 155 102.5 271t276.5 139z" />
    <glyph glyph-name="seven.osf" horiz-adv-x="490" 
d="M47 529h392v-32l-246 -617h-49l-6 6l260 594h-351v49z" />
    <glyph glyph-name="eight.osf" horiz-adv-x="503" 
d="M251 15q68 0 108 36t40 94q0 49 -37 88t-127 80q-70 -37 -101 -75t-31 -91q0 -59 40 -95.5t108 -36.5zM124 513q0 -48 31 -87.5t106 -73.5q60 35 86 71t26 86q0 53 -32 89t-90 36q-52 0 -89.5 -33.5t-37.5 -87.5zM286 341q87 -40 125 -85t38 -108q0 -73 -55.5 -118
t-142.5 -45q-92 0 -144.5 42.5t-52.5 116.5q0 57 38.5 100t116.5 81q-132 66 -132 179q0 72 50.5 116t124.5 44q75 0 121 -42.5t46 -111.5q0 -104 -133 -169z" />
    <glyph glyph-name="nine.osf" horiz-adv-x="508" 
d="M261 179q79 0 135 63q1 11 1 32q0 113 -41.5 176.5t-106.5 63.5q-60 0 -100.5 -45t-40.5 -122q0 -78 43 -123t110 -45zM99 -137l-8 25q264 94 301 319q-56 -64 -145 -64q-84 0 -139 55.5t-54 146.5q1 88 57 143.5t141 55.5q89 0 144 -71t55 -191q0 -146 -89 -258
t-263 -161z" />
    <glyph glyph-name="exclamdown.cap" horiz-adv-x="264" 
d="M133 689q18 0 31 -13t13 -30q0 -18 -12.5 -31t-31.5 -13t-31.5 13t-12.5 31q0 17 12.5 30t31.5 13zM133 -15q-34 0 -34 41q0 1 14 263l8 199h24l7 -199q14 -262 14 -263q0 -41 -33 -41z" />
    <glyph glyph-name="questiondown.cap" horiz-adv-x="384" 
d="M244 603q-19 0 -31.5 13t-12.5 31q0 17 12.5 30t31.5 13q18 0 31 -13t13 -30q0 -18 -12.5 -31t-31.5 -13zM133 83l128 -20q50 -7 50 -40q0 -29 -35 -38q-59 12 -106 35.5t-81.5 68.5t-34.5 103q0 94 91 139l34 17q35 18 45 30t9 38l-3 73h25l8 -38q12 -53 12 -67
q0 -22 -16 -38t-58 -37l-39 -18q-40 -23 -56.5 -47.5t-16.5 -61.5q0 -55 44 -99z" />
    <glyph glyph-name="guilsinglleft.cap" horiz-adv-x="283" 
d="M255 482l-175 -184l175 -185l-17 -19l-214 188v31l214 188z" />
    <glyph glyph-name="guilsinglright.cap" horiz-adv-x="283" 
d="M45 501l214 -188v-31l-214 -188l-17 19l175 185l-175 184z" />
    <glyph glyph-name="guillemotleft.cap" horiz-adv-x="477" 
d="M255 482l-175 -184l175 -185l-17 -19l-214 188v31l214 188zM449 482l-175 -184l175 -185l-17 -19l-214 188v31l214 188z" />
    <glyph glyph-name="guillemotright.cap" horiz-adv-x="477" 
d="M259 313v-31l-214 -188l-17 19l175 185l-175 184l17 19zM239 501l214 -188v-31l-214 -188l-17 19l175 185l-175 184z" />
    <glyph glyph-name="hyphen.cap" horiz-adv-x="310" 
d="M40 283v42h230v-42h-230z" />
    <glyph glyph-name="sfthyphen.cap" horiz-adv-x="310" 
d="M40 283v42h230v-42h-230z" />
    <glyph glyph-name="endash.cap" horiz-adv-x="510" 
d="M40 283v42h430v-42h-430z" />
    <glyph glyph-name="emdash.cap" horiz-adv-x="810" 
d="M40 283v42h730v-42h-730z" />
    <glyph glyph-name="horizontalbar.cap" horiz-adv-x="810" 
d="M40 283v42h730v-42h-730z" />
    <glyph glyph-name="parenleft.cap" horiz-adv-x="322" 
d="M137 313q0 -131 35.5 -235t126.5 -236l-17 -14q-194 214 -194 485t194 485l17 -14q-91 -132 -126.5 -236t-35.5 -235z" />
    <glyph glyph-name="parenright.cap" horiz-adv-x="322" 
d="M185 313q0 131 -35.5 235t-126.5 236l17 14q194 -214 194 -485t-194 -485l-17 14q91 132 126.5 236t35.5 235z" />
    <glyph glyph-name="bracketleft.cap" horiz-adv-x="307" 
d="M263 721l-115 -9q-2 -91 -2 -279v-240q0 -186 2 -279l115 -9v-29h-164q3 103 3 317v240q0 212 -3 317h164v-29z" />
    <glyph glyph-name="bracketright.cap" horiz-adv-x="307" 
d="M205 433v-240q0 -212 3 -317h-164v29l115 9q2 91 2 279v240q0 186 -2 279l-115 9v29h164q-3 -103 -3 -317z" />
    <glyph glyph-name="braceleft.cap" horiz-adv-x="346" 
d="M316 721l-33 -2q-66 -5 -89 -25t-23 -69q0 -44 14 -110t14 -87q0 -96 -99 -115q99 -19 99 -115q0 -21 -14 -87t-14 -110q0 -49 23 -69t89 -25l33 -2v-29h-39q-156 0 -156 123q0 43 23 114t23 90q0 84 -127 96v28q127 12 127 96q0 19 -23 90t-23 114q0 123 156 123h39v-29
z" />
    <glyph glyph-name="braceright.cap" horiz-adv-x="346" 
d="M306 327v-28q-127 -12 -127 -96q0 -19 23 -90t23 -114q0 -123 -156 -123h-39v29l33 2q66 5 89 25t23 69q0 44 -14 110t-14 87q0 96 99 115q-99 19 -99 115q0 21 14 87t14 110q0 49 -23 69t-89 25l-33 2v29h39q156 0 156 -123q0 -43 -23 -114t-23 -90q0 -84 127 -96z" />
    <glyph glyph-name="at.cap" horiz-adv-x="822" 
d="M478 230l47 241q-26 39 -71 39q-63 0 -110 -65q-62 -82 -62 -177q0 -51 20.5 -78.5t56.5 -27.5q50 0 119 68zM579 526l-58 -289q-17 -83 57 -83q65 0 119 70.5t54 190.5q0 129 -79 204.5t-206 75.5q-109 0 -199.5 -57.5t-140.5 -153t-50 -206.5q0 -155 91.5 -243
t229.5 -88q95 0 168 35l9 -20q-82 -43 -188 -43q-156 0 -253.5 93t-97.5 259q0 187 125.5 320t311.5 133q143 0 229 -87.5t86 -227.5q0 -131 -69.5 -208t-153.5 -77q-43 0 -66 20.5t-24 56.5q-66 -77 -131 -77q-47 0 -76 32.5t-29 96.5q0 108 77 205q65 84 147 84
q43 0 75 -32l27 26z" />
    <glyph glyph-name="period.sups" horiz-adv-x="232" 
d="M116 425q-15 0 -25.5 10.5t-10.5 26.5t10.5 27t25.5 11t25.5 -11t10.5 -27t-10.5 -26.5t-25.5 -10.5z" />
    <glyph glyph-name="comma.sups" horiz-adv-x="227" 
d="M122 409l-20 16q-21 17 -21 39q0 15 9 25.5t24 10.5q16 0 31 -14q7 -24 7 -42q0 -46 -30 -84.5t-70 -54.5l-7 18q60 31 77 86z" />
    <glyph glyph-name="colon.sups" horiz-adv-x="232" 
d="M116 673q-15 0 -25.5 11t-10.5 27t10.5 27t25.5 11t25.5 -11t10.5 -27t-10.5 -27t-25.5 -11zM116 425q-15 0 -25.5 10.5t-10.5 26.5t10.5 27t25.5 11t25.5 -11t10.5 -27t-10.5 -26.5t-25.5 -10.5z" />
    <glyph glyph-name="hyphen.sups" horiz-adv-x="236" 
d="M43 568v35h150v-35h-150z" />
    <glyph glyph-name="endash.sups" horiz-adv-x="364" 
d="M43 568v35h278v-35h-278z" />
    <glyph glyph-name="emdash.sups" horiz-adv-x="556" 
d="M43 568v35h470v-35h-470z" />
    <glyph glyph-name="period.subs" horiz-adv-x="232" 
d="M116 -216q-15 0 -25.5 10.5t-10.5 26.5t10.5 27t25.5 11t25.5 -11t10.5 -27t-10.5 -26.5t-25.5 -10.5z" />
    <glyph glyph-name="comma.subs" horiz-adv-x="227" 
d="M122 -232l-20 16q-21 17 -21 39q0 15 9 25.5t24 10.5q16 0 31 -14q7 -24 7 -42q0 -46 -30 -84.5t-70 -54.5l-7 18q60 31 77 86z" />
    <glyph glyph-name="zero.dnom" 
d="M93 196q0 -180 84 -180q36 0 59.5 41.5t23.5 138.5q0 98 -23.5 139.5t-59.5 41.5q-84 0 -84 -181zM177 402q55 0 92.5 -51t37.5 -155q0 -103 -37.5 -153.5t-92.5 -50.5q-56 0 -94 50.5t-38 153.5q0 104 38 155t94 51z" />
    <glyph glyph-name="one.dnom" 
d="M209 32l93 -11v-21h-234v21l97 11v324l-88 -11v26l123 31l9 -7v-363z" />
    <glyph glyph-name="two.dnom" 
d="M97 45h215v-45h-260v34l113 113q80 81 80 148q0 38 -22 60.5t-62 22.5q-19 0 -42 -6l-15 -40q-9 -35 -29 -35q-16 0 -26 17q9 43 44 66t83 23q57 0 87 -29t30 -75q0 -37 -22.5 -72.5t-79.5 -92.5z" />
    <glyph glyph-name="three.dnom" 
d="M121 372l-10 -36q-7 -31 -29 -31q-18 0 -24 17q9 40 41 60.5t76 20.5q52 0 84.5 -26.5t32.5 -70.5q0 -35 -22.5 -61.5t-60.5 -36.5q47 -7 72.5 -34.5t25.5 -68.5q0 -53 -39.5 -83.5t-97.5 -30.5q-104 0 -124 82q5 19 25 19t28 -33l12 -37q21 -7 48 -7q48 0 74.5 24.5
t26.5 66.5q0 87 -107 87h-29v28h26q44 0 70 21.5t26 59.5q0 36 -21.5 56t-59.5 20q-20 0 -44 -6z" />
    <glyph glyph-name="four.dnom" 
d="M65 153h145v195zM323 153v-37h-71v-116h-42v116h-178v31l191 253h29v-247h71z" />
    <glyph glyph-name="five.dnom" 
d="M111 347l-8 -110q31 10 67 10q62 0 99.5 -33t37.5 -92t-40 -95t-105 -36q-48 0 -79.5 21t-39.5 59q4 22 25 22q20 0 28 -34l12 -36q26 -8 50 -8q48 0 75 27.5t27 74.5q0 48 -26 73t-75 25q-37 0 -68 -11l-16 7l14 183h206v-47h-184z" />
    <glyph glyph-name="six.dnom" 
d="M186 15q36 0 59 26.5t23 73.5q0 95 -82 95q-49 0 -89 -37q0 -158 89 -158zM293 404l4 -19q-90 -18 -140.5 -68.5t-58.5 -118.5q42 43 99 43q53 0 84.5 -32t31.5 -87q0 -61 -36 -96t-92 -35q-63 0 -99 45t-36 121q0 93 65.5 164.5t177.5 82.5z" />
    <glyph glyph-name="seven.dnom" 
d="M48 394h254v-29l-155 -365h-42l-4 4l165 343h-218v47z" />
    <glyph glyph-name="eight.dnom" 
d="M178 15q40 0 64 21t24 53q0 27 -23 48.5t-81 47.5q-71 -38 -71 -95q0 -34 23.5 -54.5t63.5 -20.5zM104 312q0 -54 87 -92q60 37 60 88q0 31 -19 50.5t-53 19.5q-31 0 -53 -18t-22 -48zM212 210q97 -43 97 -114q0 -48 -36.5 -76.5t-95.5 -28.5t-93.5 25.5t-34.5 70.5
q0 66 92 107q-77 41 -77 108q0 46 33.5 73.5t83.5 27.5q49 0 79 -26.5t30 -67.5q0 -58 -78 -99z" />
    <glyph glyph-name="nine.dnom" 
d="M184 188q45 0 76 30q1 7 1 20q0 68 -23.5 104t-63.5 36q-35 0 -58.5 -25t-23.5 -71t25.5 -70t66.5 -24zM81 -10l-6 21q157 50 182 177q-34 -31 -86 -31q-55 0 -90 33t-35 88q0 54 37.5 89.5t92.5 35.5q60 0 96.5 -44.5t36.5 -120.5q0 -91 -59.5 -157.5t-168.5 -90.5z" />
    <glyph glyph-name="parenleft.dnom" horiz-adv-x="247" 
d="M109 169q0 -73 23 -135.5t79 -139.5l-14 -13q-130 124 -130 288q0 163 130 289l14 -13q-56 -78 -79 -140.5t-23 -135.5z" />
    <glyph glyph-name="parenright.dnom" horiz-adv-x="247" 
d="M137 169q0 74 -22.5 136t-78.5 140l14 13q130 -126 130 -289q0 -164 -130 -288l-14 13q56 77 78.5 139.5t22.5 135.5z" />
    <glyph glyph-name="period.dnom" horiz-adv-x="232" 
d="M116 -8q-15 0 -25.5 10.5t-10.5 26.5t10.5 27t25.5 11t25.5 -11t10.5 -27t-10.5 -26.5t-25.5 -10.5z" />
    <glyph glyph-name="comma.dnom" horiz-adv-x="227" 
d="M122 -24l-20 16q-21 16 -21 39q0 15 9 25.5t24 10.5q16 0 31 -14q7 -25 7 -42q0 -46 -30 -84.5t-70 -54.5l-7 18q60 31 77 86z" />
    <glyph glyph-name="zero.numr" 
d="M93 457q0 -180 84 -180q36 0 59.5 41.5t23.5 138.5q0 98 -23.5 139.5t-59.5 41.5q-84 0 -84 -181zM177 663q55 0 92.5 -51t37.5 -155q0 -103 -37.5 -153.5t-92.5 -50.5q-56 0 -94 50.5t-38 153.5q0 104 38 155t94 51z" />
    <glyph glyph-name="one.numr" 
d="M209 293l93 -11v-21h-234v21l97 11v324l-88 -11v26l123 31l9 -7v-363z" />
    <glyph glyph-name="two.numr" 
d="M97 306h215v-45h-260v34l113 113q80 81 80 148q0 38 -22 60.5t-62 22.5q-19 0 -42 -6l-15 -40q-9 -35 -29 -35q-16 0 -26 17q9 43 44 66t83 23q57 0 87 -29t30 -75q0 -37 -22.5 -72.5t-79.5 -92.5z" />
    <glyph glyph-name="three.numr" 
d="M121 633l-10 -36q-7 -31 -29 -31q-18 0 -24 17q9 40 41 60.5t76 20.5q52 0 84.5 -26.5t32.5 -70.5q0 -35 -22.5 -61.5t-60.5 -36.5q47 -7 72.5 -34.5t25.5 -68.5q0 -53 -39.5 -83.5t-97.5 -30.5q-104 0 -124 82q5 19 25 19t28 -33l12 -37q21 -7 48 -7q48 0 74.5 24.5
t26.5 66.5q0 87 -107 87h-29v28h26q44 0 70 21.5t26 59.5q0 36 -21.5 56t-59.5 20q-20 0 -44 -6z" />
    <glyph glyph-name="four.numr" 
d="M65 414h145v195zM323 414v-37h-71v-116h-42v116h-178v31l191 253h29v-247h71z" />
    <glyph glyph-name="five.numr" 
d="M111 608l-8 -110q31 10 67 10q62 0 99.5 -33t37.5 -92t-40 -95t-105 -36q-48 0 -79.5 21t-39.5 59q4 22 25 22q20 0 28 -34l12 -36q26 -8 50 -8q48 0 75 27.5t27 74.5q0 48 -26 73t-75 25q-37 0 -68 -11l-16 7l14 183h206v-47h-184z" />
    <glyph glyph-name="six.numr" 
d="M186 276q36 0 59 26.5t23 73.5q0 95 -82 95q-49 0 -89 -37q0 -158 89 -158zM293 665l4 -19q-90 -18 -140.5 -68.5t-58.5 -118.5q42 43 99 43q53 0 84.5 -32t31.5 -87q0 -61 -36 -96t-92 -35q-63 0 -99 45t-36 121q0 93 65.5 164.5t177.5 82.5z" />
    <glyph glyph-name="seven.numr" 
d="M48 655h254v-29l-155 -365h-42l-4 4l165 343h-218v47z" />
    <glyph glyph-name="eight.numr" 
d="M178 276q40 0 64 21t24 53q0 27 -23 48.5t-81 47.5q-71 -38 -71 -95q0 -34 23.5 -54.5t63.5 -20.5zM104 573q0 -54 87 -92q60 37 60 88q0 31 -19 50.5t-53 19.5q-31 0 -53 -18t-22 -48zM212 471q97 -43 97 -114q0 -48 -36.5 -76.5t-95.5 -28.5t-93.5 25.5t-34.5 70.5
q0 66 92 107q-77 41 -77 108q0 46 33.5 73.5t83.5 27.5q49 0 79 -26.5t30 -67.5q0 -58 -78 -99z" />
    <glyph glyph-name="nine.numr" 
d="M184 449q45 0 76 30q1 7 1 20q0 68 -23.5 104t-63.5 36q-35 0 -58.5 -25t-23.5 -71t25.5 -70t66.5 -24zM81 251l-6 21q157 50 182 177q-34 -31 -86 -31q-55 0 -90 33t-35 88q0 54 37.5 89.5t92.5 35.5q60 0 96.5 -44.5t36.5 -120.5q0 -91 -59.5 -157.5t-168.5 -90.5z" />
    <glyph glyph-name="parenleft.numr" horiz-adv-x="247" 
d="M109 430q0 -73 23 -135.5t79 -139.5l-14 -13q-130 124 -130 288q0 163 130 289l14 -13q-56 -78 -79 -140.5t-23 -135.5z" />
    <glyph glyph-name="parenright.numr" horiz-adv-x="247" 
d="M137 430q0 74 -22.5 136t-78.5 140l14 13q130 -126 130 -289q0 -164 -130 -288l-14 13q56 77 78.5 139.5t22.5 135.5z" />
    <glyph glyph-name="period.numr" horiz-adv-x="232" 
d="M116 253q-15 0 -25.5 10.5t-10.5 26.5t10.5 27t25.5 11t25.5 -11t10.5 -27t-10.5 -26.5t-25.5 -10.5z" />
    <glyph glyph-name="comma.numr" horiz-adv-x="227" 
d="M122 237l-20 16q-21 17 -21 39q0 15 9 25.5t24 10.5q16 0 31 -14q7 -24 7 -42q0 -46 -30 -84.5t-70 -54.5l-7 18q60 31 77 86z" />
    <glyph glyph-name="q.sups" horiz-adv-x="372" 
d="M269 501v178q-49 44 -90 44q-45 0 -72.5 -34t-27.5 -103q0 -66 26.5 -99t69.5 -33q47 0 94 47zM312 304l56 -8v-21h-162v21l63 8v174q-46 -55 -106 -55q-57 0 -92.5 43.5t-35.5 118.5q0 79 39 124.5t99 45.5q55 0 97 -52l30 47l12 -4v-442z" />
    <glyph glyph-name="egrave.sups" horiz-adv-x="337" 
d="M195 796l-79 76q-22 19 -22 34q0 19 20 19q17 0 35 -27l60 -90zM78 614h159q16 0 22 7.5t6 23.5q0 37 -23.5 61t-61.5 24q-40 0 -68.5 -30.5t-33.5 -85.5zM301 590h-224q1 -64 33.5 -98t81.5 -34q61 0 99 46l12 -11q-40 -70 -120 -70q-66 0 -108 43t-42 122
q0 73 43.5 120t104.5 47q56 0 90.5 -36t34.5 -92q0 -20 -5 -37z" />
    <glyph glyph-name="eacute.sups" horiz-adv-x="337" 
d="M239 872l-79 -76l-14 12l61 90q17 27 34 27q20 0 20 -19q0 -15 -22 -34zM78 614h159q16 0 22 7.5t6 23.5q0 37 -23.5 61t-61.5 24q-40 0 -68.5 -30.5t-33.5 -85.5zM301 590h-224q1 -64 33.5 -98t81.5 -34q61 0 99 46l12 -11q-40 -70 -120 -70q-66 0 -108 43t-42 122
q0 73 43.5 120t104.5 47q56 0 90.5 -36t34.5 -92q0 -20 -5 -37z" />
    <glyph glyph-name="slash.frac" horiz-adv-x="140" 
d="M-156 -23l-22 16l473 680l22 -17z" />
    <glyph glyph-name="space.frac" horiz-adv-x="159" 
 />
    <glyph glyph-name="uni00A0.frac" horiz-adv-x="159" 
 />
    <glyph glyph-name="caron.alt" horiz-adv-x="10" 
d="M-14 742q23 0 23 -27q0 -20 -21 -131l-12 -65h-22l3 215q12 8 29 8z" />
    <glyph glyph-name="commabelowcmb.alt" horiz-adv-x="0" 
d="M66 753l8 -21q-64 -26 -88 -75q18 -7 30 -20t12 -27q0 -16 -10.5 -25.5t-26.5 -9.5q-21 0 -36 14q-6 18 -6 34q0 46 33.5 80.5t83.5 49.5z" />
    <glyph glyph-name="gravecmb.cap" horiz-adv-x="0" 
d="M63 743l-12 -16l-120 70q-26 16 -36 25.5t-10 20.5q0 10 7.5 16.5t18.5 6.5q16 0 49 -30z" />
    <glyph glyph-name="acutecmb.cap" horiz-adv-x="0" 
d="M-63 743l103 93q33 30 49 30q11 0 18.5 -6.5t7.5 -16.5q0 -11 -10 -20.5t-36 -25.5l-120 -70z" />
    <glyph glyph-name="circumflexcmb.cap" horiz-adv-x="0" 
d="M131 746l-13 -16l-118 78l-118 -78l-13 16l120 112h22z" />
    <glyph glyph-name="tildecmb.cap" horiz-adv-x="0" 
d="M156 845v-14q0 -45 -22.5 -69.5t-61.5 -24.5q-41 0 -85 40q-39 36 -65 36q-54 0 -55 -72h-24q-1 2 -1 15q0 45 22.5 68.5t62.5 23.5q39 0 83 -38q41 -37 67 -37q52 0 55 72h24z" />
    <glyph glyph-name="macroncmb.cap" horiz-adv-x="0" 
d="M-148 760v40h296v-40h-296z" />
    <glyph glyph-name="brevecmb.cap" horiz-adv-x="0" 
d="M0 735q-59 0 -93.5 36t-44.5 85l21 7q30 -88 117 -88q89 0 117 88l21 -7q-10 -49 -44.5 -85t-93.5 -36z" />
    <glyph glyph-name="dotaccentcmb.cap" horiz-adv-x="0" 
d="M0 750q-20 0 -34 13t-14 34q0 20 14 33t34 13t34 -13t14 -33q0 -21 -14 -34t-34 -13z" />
    <glyph glyph-name="dieresiscmb.cap" horiz-adv-x="0" 
d="M-106 747q-17 0 -29.5 11.5t-12.5 29.5t12.5 29.5t29.5 11.5t29.5 -11.5t12.5 -29.5t-12.5 -29.5t-29.5 -11.5zM106 747q-18 0 -30 11.5t-12 29.5t12 29.5t30 11.5q17 0 29.5 -11.5t12.5 -29.5t-12.5 -29.5t-29.5 -11.5z" />
    <glyph glyph-name="ringcmb.cap" horiz-adv-x="0" 
d="M0 722q-35 0 -61.5 24t-26.5 62q0 39 26.5 63.5t61.5 24.5t61.5 -24.5t26.5 -63.5q0 -38 -26.5 -62t-61.5 -24zM0 748q24 0 40 18t16 42q0 25 -15.5 43t-40.5 18t-40.5 -18t-15.5 -43q0 -24 16 -42t40 -18z" />
    <glyph glyph-name="hungarumlautcmb.cap" horiz-adv-x="0" 
d="M-115 732l71 115q15 28 36 28q10 0 16.5 -6.5t6.5 -16.5q0 -14 -16 -33l-96 -99zM37 732l70 115q16 28 36 28q10 0 17 -6.5t7 -16.5q0 -13 -17 -33l-96 -99z" />
    <glyph glyph-name="caroncmb.cap" horiz-adv-x="0" 
d="M112 866l16 -15l-107 -115h-42l-107 115l16 15l112 -89z" />
    </font>
</defs>
</svg>
