<?xml version="1.0" encoding="utf-8"?>
<!-- Generator: Adobe Illustrator 19.2.1, SVG Export Plug-In . SVG Version: 6.00 Build 0)  -->
<svg version="1.1" id="Calque_1" xmlns="http://www.w3.org/2000/svg" xmlns:xlink="http://www.w3.org/1999/xlink" x="0px" y="0px"
	 viewBox="0 0 613 179.7" style="enable-background:new 0 0 613 179.7;" xml:space="preserve">
<style type="text/css">
	.st0{fill:#880006;}
</style>
<g>
	<polygon class="st0" points="228.1,48 237.3,20.7 237.4,20.7 245.6,48 258,48 273,0.9 260.3,0.9 251.5,31.5 251.4,31.5 242.2,0.9 
		232.5,0.9 222.7,31.5 222.6,31.5 214.5,0.9 201.9,0.9 215.8,48 	"/>
	<path class="st0" d="M299.5,49.9c7.5,0,13.7-2.4,18.6-7.2c4.9-4.8,7.3-11,7.3-18.6c0-4.6-1.2-8.7-3.7-12.5
		c-2.4-3.7-5.6-6.6-9.5-8.6c-3.9-2-8.1-3-12.6-3c-4.5,0-8.7,1-12.6,3c-3.9,2-7.1,4.9-9.5,8.6c-2.4,3.7-3.7,7.9-3.7,12.5
		c0,7.6,2.4,13.8,7.3,18.6C285.8,47.4,292,49.9,299.5,49.9z M290.2,15.5c2.6-2.5,5.7-3.7,9.3-3.7c3.6,0,6.7,1.2,9.3,3.7
		c2.6,2.5,3.9,5.4,3.9,8.6c0,4-1.3,7.3-3.8,10c-2.6,2.7-5.7,4-9.4,4c-3.7,0-6.8-1.3-9.4-4c-2.6-2.7-3.8-6-3.8-10
		C286.3,20.9,287.6,18,290.2,15.5z"/>
	<path class="st0" d="M343.3,30.2L343.3,30.2L354.8,48h15.1l-14.7-19c3.2-0.6,5.7-2.1,7.5-4.5c1.8-2.4,2.7-5.3,2.7-8.7
		c0-4.8-1.5-8.5-4.5-10.9c-3-2.4-6.9-3.9-11.8-3.9h-18V48h12.1V30.2z M343.3,10.5h1.1c5.6,0,8.4,1.8,8.4,5.7c0,3.9-2.8,5.7-8.4,5.7
		h-1.1V10.5z"/>
	<polygon class="st0" points="399.9,37.8 385.2,37.8 385.2,0.9 373.2,0.9 373.2,48 399.9,48 	"/>
	<path class="st0" d="M437.9,41.3c4.7-4.5,7-10,7-16.5c0-6.5-2.3-12.2-7-16.7c-4.7-4.5-10.2-7.1-16.8-7.1h-17.4V48h17.4
		C427.6,48,433.2,45.8,437.9,41.3z M415.8,37.8V11.8h3.1c4,0,7.2,1.2,9.7,3.5c2.4,2.3,3.7,5.5,3.7,9.6c0,4.3-1.3,7.6-3.8,9.8
		c-2.5,2.2-5.8,3.2-9.6,3.2H415.8z"/>
	<polygon class="st0" points="495.3,31.5 495.1,31.5 486,0.9 476.3,0.9 466.5,31.5 466.4,31.5 458.2,0.9 445.6,0.9 459.5,48 
		471.9,48 481.1,20.7 481.2,20.7 489.4,48 501.8,48 516.7,0.9 504.1,0.9 	"/>
	<rect x="519.5" y="0.9" class="st0" width="12.1" height="47.1"/>
	<path class="st0" d="M557.1,0.9h-17.2V48h17.2c6.5,0,12.1-2.2,16.8-6.7c4.7-4.5,7-10,7-16.5c0-6.5-2.3-12.2-7-16.7
		C569.2,3.5,563.6,0.9,557.1,0.9z M564.4,34.6c-2.5,2.2-5.8,3.2-9.6,3.2h-2.8V11.8h2.9c4,0,7.2,1.2,9.7,3.5c2.4,2.3,3.7,5.5,3.7,9.6
		C568.2,29.2,566.9,32.4,564.4,34.6z"/>
	<polygon class="st0" points="613,11.8 613,0.9 586.3,0.9 586.3,48 613,48 613,37.8 598.3,37.8 598.3,29.6 612.3,29.6 612.3,19.4 
		598.3,19.4 598.3,11.8 	"/>
	<polygon class="st0" points="350.4,81.7 345.4,96.4 355.5,96.4 350.5,81.7 	"/>
	<path class="st0" d="M270.3,76.6h-1.5v11.4h1.5c5.6,0,8.4-1.8,8.4-5.7C278.7,78.5,275.9,76.6,270.3,76.6z"/>
	<path class="st0" d="M508,57.8H205.3c-1.4,0-2.5,1.1-2.5,2.5v62c0,0.7,0.6,1.3,1.3,1.3h305.2c0.7,0,1.3-0.6,1.3-1.3v-62
		C510.5,59,509.4,57.8,508,57.8z M251,83c-1.3-1.7-2.8-2.9-4.7-3.8c-1.9-0.9-3.9-1.3-6-1.3c-3.7,0-6.7,1.2-9,3.7
		c-2.3,2.5-3.5,5.6-3.5,9.2c0,3.7,1.2,6.8,3.5,9.1c2.3,2.4,5.4,3.6,9.1,3.6c2,0,3.9-0.4,5.8-1.3c1.9-0.9,3.4-2.1,4.7-3.6v14.6
		c-5.1,1.4-8.3,2.2-10.7,2.2c-6.7,0-12.5-2.3-17.5-6.9c-5-4.5-7.5-10.4-7.5-17.7c0-6.7,2.3-12.4,6.9-17.1c2.3-2.4,5-4.2,8.2-5.5
		c3.1-1.3,6.3-2,9.6-2c3.6,0,7.3,0.8,11.1,2.4V83z M280.7,113.5l-11.5-17.8h-0.4v17.8h-12.1V67.1h18.4c4.9,0,8.8,1.3,11.8,3.7
		c3,2.4,4.5,6.1,4.5,10.9c0,3.3-0.9,6.1-2.7,8.6c-1.8,2.4-4.3,3.8-7.5,4.4l14.7,18.9H280.7z M324.2,77.3h-14.6v7.6h14v10.8h-14v7.6
		h14.6v10.2h-26.7V67.1h26.7V77.3z M361.8,113.5l-3-7.6H342l-3.2,7.6h-12.9l18-46.4h13.3l17.6,46.4H361.8z M401.8,77.3h-10.2v36.3
		h-12.1V77.3h-10.2V67.1h32.4V77.3z M417.1,113.5H405V67.1h12.1V113.5z M447.5,113.5h-9.4l-19.7-46.4h13.2l11.3,28.4l11.3-28.4h13.2
		L447.5,113.5z M495.3,77.3h-14v7.6h13.4v10.8h-13.4v7.6h14v10.2h-26.7V67.1h26.7V77.3z"/>
	<path class="st0" d="M219.9,132.6h-17.2v47.1h17.2c6.5,0,12.1-2.2,16.8-6.7c4.7-4.5,7-10,7-16.5c0-6.5-2.3-12.2-7-16.7
		C232,135.2,226.4,132.6,219.9,132.6z M227.1,166.3c-2.5,2.2-5.8,3.2-9.6,3.2h-2.7v-26.1h2.9c4,0,7.2,1.2,9.7,3.5
		c2.4,2.3,3.7,5.5,3.7,9.6C231,160.9,229.7,164.1,227.1,166.3z"/>
	<path class="st0" d="M263,132.6l-18,47.1h12.9l3.2-8.3h16.7l3,8.3h13l-17.6-47.1H263z M264.5,162.5l5-15.3h0.1l5,15.3H264.5z"/>
	<polygon class="st0" points="308.4,145.3 299.7,132.6 285.1,132.6 302.6,157.5 302.6,179.7 314.6,179.7 314.6,157.5 331.7,132.6 
		317.1,132.6 	"/>
	<path class="st0" d="M80.9,1.3H2.5C1.1,1.3,0,2.4,0,3.8v79.7c0,0.7,0.6,1.3,1.3,1.3h80.9c0.7,0,1.3-0.6,1.3-1.3V3.8
		C83.5,2.4,82.3,1.3,80.9,1.3z"/>
	<path class="st0" d="M176.2,96.5H97.8c-1.4,0-2.5,1.1-2.5,2.5v79.7c0,0.7,0.6,1.3,1.3,1.3h80.9c0.7,0,1.3-0.6,1.3-1.3V99.1
		C178.7,97.7,177.6,96.5,176.2,96.5z"/>
	<path class="st0" d="M176.2,1.3H97.8c-1.4,0-2.5,1.1-2.5,2.5v79.7c0,0.7,0.6,1.3,1.3,1.3h80.9c0.7,0,1.3-0.6,1.3-1.3V3.8
		C178.7,2.4,177.6,1.3,176.2,1.3z"/>
	<path class="st0" d="M80.9,96.5H2.5c-1.4,0-2.5,1.1-2.5,2.5v79.7c0,0.7,0.6,1.3,1.3,1.3h80.9c0.7,0,1.3-0.6,1.3-1.3V99.1
		C83.5,97.7,82.3,96.5,80.9,96.5z"/>
</g>
</svg>
